<?xml version="1.0" encoding="utf-8"?>
<!-- Generator: Adobe Illustrator 25.0.0, SVG Export Plug-In . SVG Version: 6.00 Build 0)  -->
<svg version="1.1" id="Capa_1" xmlns="http://www.w3.org/2000/svg" xmlns:xlink="http://www.w3.org/1999/xlink" x="0px" y="0px"
	 width="142.1px" height="122px" viewBox="0 0 142.1 122" style="enable-background:new 0 0 142.1 122;" xml:space="preserve">
<style type="text/css">
	.st0{opacity:0.5;}
	.st1{fill:url(#SVGID_1_);}
	.st2{fill:#FFFFFF;}
	.st3{fill:url(#SVGID_2_);}
	.st4{opacity:0.6;}
	.st5{fill:url(#SVGID_3_);}
	.st6{fill:url(#SVGID_4_);}
	.st7{fill:url(#SVGID_5_);}
	.st8{fill:url(#SVGID_6_);}
	.st9{fill:url(#SVGID_7_);}
	.st10{fill:url(#SVGID_8_);}
	.st11{fill:url(#SVGID_9_);}
	.st12{fill:url(#SVGID_10_);}
	.st13{fill:url(#SVGID_11_);}
	.st14{fill:url(#SVGID_12_);}
	.st15{fill:url(#SVGID_13_);}
	.st16{opacity:0.6;fill:#FFFFFF;}
	.st17{fill:#DEC3DF;}
	.st18{fill:url(#SVGID_14_);}
	.st19{fill:url(#SVGID_15_);}
	.st20{fill:url(#SVGID_16_);}
	.st21{fill:url(#SVGID_17_);}
	.st22{fill:url(#SVGID_18_);}
	.st23{fill:url(#SVGID_19_);}
	.st24{fill:url(#SVGID_20_);}
	.st25{fill:url(#SVGID_21_);}
	.st26{opacity:0.76;}
	.st27{fill:url(#SVGID_22_);}
	.st28{fill:url(#SVGID_23_);}
	.st29{fill:url(#SVGID_24_);}
	.st30{opacity:0.78;fill:#FFFFFF;}
	.st31{fill:url(#SVGID_25_);}
	.st32{fill:url(#SVGID_26_);}
	.st33{fill:url(#SVGID_27_);}
	.st34{fill:url(#SVGID_28_);}
	.st35{fill:url(#SVGID_29_);}
	.st36{fill:url(#SVGID_30_);}
	.st37{fill:url(#SVGID_31_);}
	.st38{fill:url(#SVGID_32_);}
	.st39{fill:url(#SVGID_33_);}
	.st40{fill:url(#SVGID_34_);}
	.st41{fill:url(#SVGID_35_);}
	.st42{fill:url(#SVGID_36_);}
	.st43{fill:url(#SVGID_37_);}
	.st44{fill:url(#SVGID_38_);}
	.st45{fill:url(#SVGID_39_);}
	.st46{fill:url(#SVGID_40_);}
	.st47{fill:url(#SVGID_41_);}
	.st48{fill:url(#SVGID_42_);}
	.st49{fill:url(#SVGID_43_);}
	.st50{fill:url(#SVGID_44_);}
	.st51{fill:url(#SVGID_45_);}
	.st52{fill:url(#SVGID_46_);}
	.st53{fill:url(#SVGID_47_);}
	.st54{fill:url(#SVGID_48_);}
	.st55{fill:url(#SVGID_49_);}
	.st56{fill:url(#SVGID_50_);}
	.st57{fill:url(#SVGID_51_);}
	.st58{fill:url(#SVGID_52_);}
	.st59{fill:url(#SVGID_53_);}
	.st60{fill:url(#SVGID_54_);}
	.st61{fill:url(#SVGID_55_);}
	.st62{fill:url(#SVGID_56_);}
	.st63{fill:url(#SVGID_57_);}
	.st64{opacity:0.5;fill:url(#SVGID_58_);}
	.st65{fill:url(#SVGID_59_);}
	.st66{fill:url(#SVGID_60_);}
	.st67{fill:url(#SVGID_61_);}
	.st68{fill:url(#SVGID_62_);}
	.st69{fill:url(#SVGID_63_);}
	.st70{fill:url(#SVGID_64_);}
	.st71{fill:url(#SVGID_65_);}
	.st72{fill:url(#SVGID_66_);}
	.st73{fill:url(#SVGID_67_);}
	.st74{fill:url(#SVGID_68_);}
	.st75{fill:url(#SVGID_69_);}
	.st76{fill:url(#SVGID_70_);}
	.st77{fill:url(#SVGID_71_);}
	.st78{fill:url(#SVGID_72_);}
	.st79{fill:url(#SVGID_73_);}
	.st80{fill:url(#SVGID_74_);}
	.st81{fill:url(#SVGID_75_);}
	.st82{fill:url(#SVGID_76_);}
	.st83{fill:url(#SVGID_77_);}
	.st84{fill:url(#SVGID_78_);}
	.st85{fill:url(#SVGID_79_);}
	.st86{fill:url(#SVGID_80_);}
	.st87{fill:url(#SVGID_81_);}
	.st88{fill:url(#SVGID_82_);}
	.st89{fill:url(#SVGID_83_);}
	.st90{fill:url(#SVGID_84_);}
	.st91{fill:url(#SVGID_85_);}
	.st92{fill:url(#SVGID_86_);}
	.st93{fill:url(#SVGID_87_);}
	.st94{fill:url(#SVGID_88_);}
	.st95{fill:url(#SVGID_89_);}
	.st96{fill:url(#SVGID_90_);}
	.st97{fill:url(#SVGID_91_);}
	.st98{fill:url(#SVGID_92_);}
	.st99{fill:url(#SVGID_93_);}
	.st100{fill:url(#SVGID_94_);}
	.st101{fill:url(#SVGID_95_);}
	.st102{fill:url(#SVGID_96_);}
	.st103{fill:url(#SVGID_97_);}
	.st104{fill:url(#SVGID_98_);}
	.st105{fill:url(#SVGID_99_);}
	.st106{fill:url(#SVGID_100_);}
	.st107{fill:#CB96C3;}
	.st108{fill:url(#SVGID_101_);}
	.st109{fill:url(#SVGID_102_);}
	.st110{fill:url(#SVGID_103_);}
	.st111{fill:url(#SVGID_104_);}
	.st112{fill:url(#SVGID_105_);}
	.st113{fill:url(#SVGID_106_);}
	.st114{fill:url(#SVGID_107_);}
	.st115{fill:url(#SVGID_108_);}
	.st116{fill:url(#SVGID_109_);}
	.st117{fill:url(#SVGID_110_);}
	.st118{fill:url(#SVGID_111_);}
	.st119{fill:url(#SVGID_112_);}
	.st120{fill:url(#SVGID_113_);}
	.st121{fill:url(#SVGID_114_);}
	.st122{fill:url(#SVGID_115_);}
	.st123{fill:url(#SVGID_116_);}
	.st124{fill:url(#SVGID_117_);}
	.st125{fill:url(#SVGID_118_);}
	.st126{fill:url(#SVGID_119_);}
	.st127{fill:url(#SVGID_120_);}
	.st128{opacity:0.53;fill:#FFFFFF;}
	.st129{fill:url(#SVGID_121_);}
	.st130{opacity:0.75;fill:#FBE0E5;}
	.st131{fill:#ECD2D8;}
	.st132{fill:none;stroke:#E1BFC8;stroke-width:2;stroke-linecap:round;stroke-linejoin:round;}
	.st133{fill:none;stroke:#E1BFC8;stroke-width:2;stroke-linecap:round;stroke-linejoin:round;stroke-dasharray:0,3.9583;}
	.st134{fill:none;stroke:#E1BFC8;stroke-width:2;stroke-linecap:round;stroke-linejoin:round;stroke-dasharray:0,3.9765;}
	.st135{fill:#324D9C;}
	.st136{fill:#1D3D91;}
	.st137{fill:#F6DADD;}
	.st138{fill:#E9C7CB;}
	.st139{fill:#D48A0A;}
	.st140{fill:#F2927C;}
	.st141{fill:#EB836C;}
	.st142{fill:#F4F2F1;}
	.st143{fill:#FBB916;}
	.st144{fill:#F6A318;}
	.st145{fill:#FEC708;}
	.st146{fill:#F5B301;}
	.st147{fill:#232020;}
	.st148{fill:#020203;}
	.st149{fill:#3C73B9;}
	.st150{fill:#366BB3;}
	.st151{fill:#FFD504;}
	.st152{fill:#FBB911;}
	.st153{fill:#FFDB2A;}
	.st154{fill:#E8F2FA;}
	.st155{fill:#C9DEF4;}
	.st156{fill:#DDE9F8;}
	.st157{fill:#F28F35;}
	.st158{fill:#ACC0E4;}
	.st159{fill:#FFF7EF;}
	.st160{fill:#FDDCC3;}
	.st161{fill:#F7AD76;}
	.st162{fill:#1F3865;}
	.st163{fill:#264790;}
	.st164{fill:#F39153;}
	.st165{fill:#91B0DD;}
	.st166{fill:#EE751B;}
	.st167{fill:#20396F;}
	.st168{fill:#EEC09D;}
	.st169{fill:#EF7A3E;}
	.st170{fill:#6896CF;}
	.st171{fill:#4880C1;}
	.st172{fill:#FDDBBA;}
	.st173{fill:#144179;}
	.st174{fill:#EE761C;}
	.st175{fill:#F39254;}
	.st176{fill:#2A3967;}
	.st177{fill:#ACCAEB;}
	.st178{fill:#EA5A21;}
	.st179{fill:#F07F26;}
	.st180{fill:#9FC6EA;}
	.st181{fill:#E0EFFB;}
	.st182{fill:#183F73;}
	.st183{fill:#F59E60;}
	.st184{fill:#1A3760;}
	.st185{fill:#0F4E88;}
	.st186{fill:#AFCCED;}
	.st187{fill:#2D3555;}
	.st188{opacity:0.7;}
	.st189{opacity:0.5;fill:url(#SVGID_122_);}
	.st190{opacity:0.5;fill:url(#SVGID_123_);}
	.st191{opacity:0.65;fill:#FFFFFF;}
	.st192{fill:url(#SVGID_124_);}
	.st193{opacity:0.57;fill:#FFFFFF;}
	.st194{fill:url(#SVGID_125_);}
	.st195{fill:url(#SVGID_126_);}
	.st196{opacity:0.5;fill:#FFFFFF;}
	.st197{fill:url(#SVGID_127_);}
	.st198{fill:url(#SVGID_128_);}
	.st199{fill:url(#SVGID_129_);}
	.st200{fill:url(#SVGID_130_);}
	.st201{fill:url(#SVGID_131_);}
	.st202{fill:url(#SVGID_132_);}
	.st203{fill:url(#SVGID_133_);}
	.st204{fill:url(#SVGID_134_);}
	.st205{fill:url(#SVGID_135_);}
	.st206{fill:url(#SVGID_136_);}
	.st207{opacity:0.69;fill:#FFFFFF;}
	.st208{fill:url(#SVGID_137_);}
	.st209{fill:url(#SVGID_138_);}
	.st210{fill:url(#SVGID_139_);}
	.st211{fill:url(#SVGID_140_);}
	.st212{fill:url(#SVGID_141_);}
	.st213{fill:url(#SVGID_142_);}
	.st214{fill:url(#SVGID_143_);}
	.st215{fill:url(#SVGID_144_);}
	.st216{fill:url(#SVGID_145_);}
	.st217{fill:url(#SVGID_146_);}
	.st218{fill:url(#SVGID_147_);}
	.st219{fill:url(#SVGID_148_);}
	.st220{fill:url(#SVGID_149_);}
	.st221{fill:url(#SVGID_150_);}
	.st222{fill:url(#SVGID_151_);}
	.st223{opacity:0.72;fill:#FFFFFF;}
	.st224{fill:url(#SVGID_152_);}
	.st225{fill:url(#SVGID_153_);}
	.st226{fill:url(#SVGID_154_);}
	.st227{fill:url(#SVGID_155_);}
	.st228{fill:url(#SVGID_156_);}
	.st229{fill:url(#SVGID_157_);}
	.st230{fill:url(#SVGID_158_);}
	.st231{fill:url(#SVGID_159_);}
	.st232{fill:url(#SVGID_160_);}
	.st233{fill:url(#SVGID_161_);}
	.st234{fill:url(#SVGID_162_);}
	.st235{fill:url(#SVGID_163_);}
	.st236{fill:url(#SVGID_164_);}
	.st237{fill:url(#SVGID_165_);}
	.st238{fill:url(#SVGID_166_);}
	.st239{fill:url(#SVGID_167_);}
	.st240{fill:url(#SVGID_168_);}
	.st241{fill:url(#SVGID_169_);}
	.st242{fill-rule:evenodd;clip-rule:evenodd;fill:url(#SVGID_170_);}
	.st243{fill-rule:evenodd;clip-rule:evenodd;fill:url(#SVGID_171_);}
	.st244{fill-rule:evenodd;clip-rule:evenodd;fill:url(#SVGID_172_);}
	.st245{fill-rule:evenodd;clip-rule:evenodd;fill:url(#SVGID_173_);}
	.st246{fill-rule:evenodd;clip-rule:evenodd;fill:url(#SVGID_174_);}
	.st247{fill-rule:evenodd;clip-rule:evenodd;fill:url(#SVGID_175_);}
	.st248{fill-rule:evenodd;clip-rule:evenodd;fill:url(#SVGID_176_);}
	.st249{fill-rule:evenodd;clip-rule:evenodd;fill:url(#SVGID_177_);}
	.st250{fill-rule:evenodd;clip-rule:evenodd;fill:url(#SVGID_178_);}
	.st251{fill-rule:evenodd;clip-rule:evenodd;fill:url(#SVGID_179_);}
	.st252{fill-rule:evenodd;clip-rule:evenodd;fill:url(#SVGID_180_);}
	.st253{fill-rule:evenodd;clip-rule:evenodd;fill:url(#SVGID_181_);}
	.st254{fill-rule:evenodd;clip-rule:evenodd;fill:url(#SVGID_182_);}
	.st255{fill-rule:evenodd;clip-rule:evenodd;fill:url(#SVGID_183_);}
	.st256{fill-rule:evenodd;clip-rule:evenodd;fill:url(#SVGID_184_);}
	.st257{fill-rule:evenodd;clip-rule:evenodd;fill:url(#SVGID_185_);}
	.st258{fill-rule:evenodd;clip-rule:evenodd;fill:url(#SVGID_186_);}
	.st259{fill:url(#SVGID_187_);}
	.st260{fill:url(#SVGID_188_);}
	.st261{fill:url(#SVGID_189_);}
	.st262{fill-rule:evenodd;clip-rule:evenodd;fill:url(#SVGID_190_);}
	.st263{fill-rule:evenodd;clip-rule:evenodd;fill:url(#SVGID_191_);}
	.st264{fill-rule:evenodd;clip-rule:evenodd;fill:url(#SVGID_192_);}
	.st265{fill-rule:evenodd;clip-rule:evenodd;fill:url(#SVGID_193_);}
	.st266{fill-rule:evenodd;clip-rule:evenodd;fill:url(#SVGID_194_);}
	.st267{fill-rule:evenodd;clip-rule:evenodd;fill:url(#SVGID_195_);}
	.st268{fill-rule:evenodd;clip-rule:evenodd;fill:url(#SVGID_196_);}
	.st269{fill-rule:evenodd;clip-rule:evenodd;fill:url(#SVGID_197_);}
	.st270{fill-rule:evenodd;clip-rule:evenodd;fill:url(#SVGID_198_);}
	.st271{fill-rule:evenodd;clip-rule:evenodd;fill:url(#SVGID_199_);}
	.st272{fill-rule:evenodd;clip-rule:evenodd;fill:url(#SVGID_200_);}
	.st273{fill-rule:evenodd;clip-rule:evenodd;fill:url(#SVGID_201_);}
	.st274{fill-rule:evenodd;clip-rule:evenodd;fill:url(#SVGID_202_);}
	.st275{fill-rule:evenodd;clip-rule:evenodd;fill:url(#SVGID_203_);}
	.st276{fill-rule:evenodd;clip-rule:evenodd;fill:url(#SVGID_204_);}
	.st277{fill-rule:evenodd;clip-rule:evenodd;fill:url(#SVGID_205_);}
</style>
<g>
	<g>
		<path class="st130" d="M39.02,112.95c-4.99,1.6-10.57-1.79-12.9-6.49c-2.34-4.7-2.1-10.26-1.13-15.42
			c0.97-5.16,2.6-10.21,2.91-15.45c0.49-8.47-2.52-16.71-5.42-24.69c-2.9-7.98-5.78-16.29-5-24.75S23.75,9.08,32.09,7.47
			c5.61-1.08,11.27,1.11,16.75,2.74c14.47,4.3,30.07,4.78,44.77,1.37c5.71-1.32,11.35-3.23,17.21-3.5
			c5.86-0.27,12.19,1.42,15.83,6.02c4.83,6.1,3.42,14.95,0.95,22.33c-2.47,7.37-5.81,15.06-4.08,22.64
			c1.59,6.97,7.17,12.29,10.14,18.8c3.98,8.74,2.72,19.65-3.15,27.25c-5.87,7.6-16.11,11.58-25.57,9.93"/>
		<ellipse class="st131" cx="74.42" cy="115.41" rx="51.56" ry="6.42"/>
	</g>
	<g>
		<g>
			<g>
				<line class="st132" x1="32.03" y1="116.75" x2="32.03" y2="116.75"/>
				<path class="st133" d="M29.02,114.18c-4.95-4.3-9.65-8.97-12.2-14.95c-3.07-7.18-1.94-16.8,4.62-21.05
					c2.12-1.37,4.62-2.09,6.66-3.56c4.56-3.29,5.84-9.72,4.79-15.25c-1.05-5.53-3.97-10.49-6.39-15.57
					c-4.29-9-7.05-19.87-2.44-28.71c4.36-8.38,15.36-12.59,24.2-9.27c8.22,3.09,13.56,12.3,12.47,20.96"/>
				<line class="st132" x1="60.37" y1="28.74" x2="60.37" y2="28.74"/>
			</g>
		</g>
		<g>
			<g>
				<line class="st132" x1="49.93" y1="23.37" x2="49.93" y2="23.37"/>
				<path class="st134" d="M50.93,19.52c2.36-6.86,7.56-12.75,14.15-15.81c7.8-3.62,17.35-3.18,24.79,1.14
					c3.5,2.03,6.55,4.86,10.29,6.43c9.93,4.18,22.7-1.25,31.47,5.01c5.51,3.93,7.43,11.46,6.58,18.17s-3.99,12.88-6.88,19
					c-2.89,6.12-5.62,12.57-5.57,19.34c0.04,5.52,1.95,10.95,1.53,16.45c-0.42,5.56-3.34,10.89-7.81,14.23
					c-3.94,2.94-9.01,4.3-13.89,3.78"/>
				<line class="st132" x1="103.62" y1="106.96" x2="103.62" y2="106.96"/>
			</g>
		</g>
	</g>
	<g>
		<g>
			<g>
				<g>
					<path class="st135" d="M97.81,115.89H51.04c-7.46,0-13.51-6.05-13.51-13.51V32.62c0-7.46,6.05-13.51,13.51-13.51h46.77
						c7.46,0,13.51,6.05,13.51,13.51v69.77C111.31,109.84,105.27,115.89,97.81,115.89z"/>
					<path class="st136" d="M47.33,26.7c0.81-2.61,1.86-5.17,3.14-7.59h-8.73c-2.32,0-4.2,1.88-4.2,4.2v88.38
						c0,2.32,1.88,4.2,4.2,4.2h15.29c-9.25-21.82-13.63-45.7-12.66-69.38C44.63,39.82,45.34,33.1,47.33,26.7z"/>
				</g>
			</g>
			<g>
				<g>
					<g>
						<path class="st137" d="M104.65,111.48H44.19c-1.24,0-2.25-1.01-2.25-2.25V25.77c0-1.24,1.01-2.25,2.25-2.25h60.46
							c1.24,0,2.25,1.01,2.25,2.25v83.46C106.9,110.47,105.9,111.48,104.65,111.48z"/>
						<path class="st138" d="M47.33,26.7c0.33-1.07,0.71-2.13,1.12-3.18h-5.8c-0.39,0-0.7,0.31-0.7,0.7v86.56
							c0,0.39,0.31,0.7,0.7,0.7h12.58C47.21,90.87,43.45,68.6,44.36,46.51C44.63,39.82,45.34,33.1,47.33,26.7z"/>
					</g>
					<g>
						<g>
							<g>
								<path class="st139" d="M100.23,39.77h-35.6c-0.23,0-0.42-0.19-0.42-0.42l0,0c0-0.23,0.19-0.42,0.42-0.42h35.6
									c0.23,0,0.42,0.19,0.42,0.42l0,0C100.65,39.58,100.46,39.77,100.23,39.77z"/>
								<path class="st139" d="M100.23,37.21h-35.6c-0.23,0-0.42-0.19-0.42-0.42l0,0c0-0.23,0.19-0.42,0.42-0.42h35.6
									c0.23,0,0.42,0.19,0.42,0.42l0,0C100.65,37.03,100.46,37.21,100.23,37.21z"/>
								<path class="st139" d="M100.23,41.49h-35.6c-0.23,0-0.42,0.19-0.42,0.42l0,0c0,0.23,0.19,0.42,0.42,0.42h35.6
									c0.23,0,0.42-0.19,0.42-0.42l0,0C100.65,41.67,100.46,41.49,100.23,41.49z"/>
							</g>
							<g>
								<g>
									<circle class="st140" cx="54.7" cy="39.35" r="6.5"/>
								</g>
								<g>
									<path class="st2" d="M53.14,42.51c-0.01,0-0.01,0-0.02,0c-0.17,0-0.33-0.08-0.45-0.21l-1.7-1.91
										c-0.23-0.26-0.21-0.65,0.05-0.88c0.26-0.23,0.65-0.21,0.88,0.05l1.27,1.42l4.61-4.61c0.24-0.24,0.64-0.24,0.88,0
										c0.24,0.24,0.24,0.64,0,0.88l-5.08,5.08C53.46,42.45,53.31,42.51,53.14,42.51z"/>
								</g>
							</g>
						</g>
						<g>
							<g>
								<path class="st139" d="M100.23,80.19h-35.6c-0.23,0-0.42-0.19-0.42-0.42l0,0c0-0.23,0.19-0.42,0.42-0.42h35.6
									c0.23,0,0.42,0.19,0.42,0.42l0,0C100.65,80,100.46,80.19,100.23,80.19z"/>
								<path class="st139" d="M100.23,77.63h-35.6c-0.23,0-0.42-0.19-0.42-0.42l0,0c0-0.23,0.19-0.42,0.42-0.42h35.6
									c0.23,0,0.42,0.19,0.42,0.42l0,0C100.65,77.45,100.46,77.63,100.23,77.63z"/>
								<path class="st139" d="M100.23,81.91h-35.6c-0.23,0-0.42,0.19-0.42,0.42l0,0c0,0.23,0.19,0.42,0.42,0.42h35.6
									c0.23,0,0.42-0.19,0.42-0.42l0,0C100.65,82.09,100.46,81.91,100.23,81.91z"/>
							</g>
							<g>
								<g>
									<g>
										<circle class="st140" cx="54.7" cy="79.77" r="6.5"/>
									</g>
								</g>
								<g>
									<path class="st2" d="M53.14,82.93c-0.01,0-0.01,0-0.02,0c-0.17,0-0.33-0.08-0.45-0.21l-1.7-1.91
										c-0.23-0.26-0.21-0.65,0.05-0.88c0.26-0.23,0.65-0.21,0.88,0.05l1.27,1.42l4.61-4.61c0.24-0.24,0.64-0.24,0.88,0
										c0.24,0.24,0.24,0.64,0,0.88l-5.08,5.08C53.46,82.87,53.31,82.93,53.14,82.93z"/>
								</g>
							</g>
						</g>
						<g>
							<g>
								<circle class="st140" cx="54.7" cy="59.56" r="6.5"/>
								<g>
									<path class="st2" d="M53.14,62.72c-0.01,0-0.01,0-0.02,0c-0.17,0-0.33-0.08-0.45-0.21l-1.7-1.91
										c-0.23-0.26-0.21-0.65,0.05-0.88c0.26-0.23,0.65-0.21,0.88,0.05l1.27,1.42l4.61-4.61c0.24-0.24,0.64-0.24,0.88,0
										c0.24,0.24,0.24,0.64,0,0.88l-5.08,5.08C53.46,62.66,53.31,62.72,53.14,62.72z"/>
								</g>
							</g>
							<g>
								<path class="st139" d="M100.23,59.98h-35.6c-0.23,0-0.42-0.19-0.42-0.42l0,0c0-0.23,0.19-0.42,0.42-0.42h35.6
									c0.23,0,0.42,0.19,0.42,0.42l0,0C100.65,59.79,100.46,59.98,100.23,59.98z"/>
								<path class="st139" d="M100.23,57.42h-35.6c-0.23,0-0.42-0.19-0.42-0.42l0,0c0-0.23,0.19-0.42,0.42-0.42h35.6
									c0.23,0,0.42,0.19,0.42,0.42l0,0C100.65,57.24,100.46,57.42,100.23,57.42z"/>
								<path class="st139" d="M100.23,61.7h-35.6c-0.23,0-0.42,0.19-0.42,0.42l0,0c0,0.23,0.19,0.42,0.42,0.42h35.6
									c0.23,0,0.42-0.19,0.42-0.42l0,0C100.65,61.88,100.46,61.7,100.23,61.7z"/>
							</g>
						</g>
						<g>
							<g>
								<g>
									<g>
										<g>
											<circle class="st140" cx="54.7" cy="99.98" r="6.5"/>
										</g>
									</g>
									<path class="st141" d="M49.96,95.54c-1.09,1.16-1.76,2.72-1.76,4.44c0,3.12,2.2,5.72,5.13,6.36
										C52.08,102.78,50.96,99.17,49.96,95.54z"/>
								</g>
								<g>
									<g>
										<g>
											<g>
												<path class="st2" d="M53.14,103.14c-0.01,0-0.01,0-0.02,0c-0.17,0-0.33-0.08-0.45-0.21l-1.7-1.91
													c-0.23-0.26-0.21-0.65,0.05-0.88c0.26-0.23,0.65-0.21,0.88,0.05l1.27,1.42L57.78,97c0.24-0.24,0.64-0.24,0.88,0
													c0.24,0.24,0.24,0.64,0,0.88l-5.08,5.08C53.46,103.08,53.31,103.14,53.14,103.14z"/>
											</g>
										</g>
									</g>
									<path class="st142" d="M51.26,100.01c-0.09,0.03-0.17,0.07-0.24,0.13c-0.26,0.23-0.28,0.62-0.05,0.88l0.93,1.04
										C51.68,101.38,51.47,100.7,51.26,100.01z"/>
								</g>
							</g>
							<g>
								<path class="st139" d="M100.23,100.4h-35.6c-0.23,0-0.42-0.19-0.42-0.42l0,0c0-0.23,0.19-0.42,0.42-0.42h35.6
									c0.23,0,0.42,0.19,0.42,0.42l0,0C100.65,100.21,100.46,100.4,100.23,100.4z"/>
								<path class="st139" d="M100.23,97.85h-35.6c-0.23,0-0.42-0.19-0.42-0.42l0,0c0-0.23,0.19-0.42,0.42-0.42h35.6
									c0.23,0,0.42,0.19,0.42,0.42l0,0C100.65,97.66,100.46,97.85,100.23,97.85z"/>
								<path class="st139" d="M100.23,102.12h-35.6c-0.23,0-0.42,0.19-0.42,0.42l0,0c0,0.23,0.19,0.42,0.42,0.42h35.6
									c0.23,0,0.42-0.19,0.42-0.42l0,0C100.65,102.3,100.46,102.12,100.23,102.12z"/>
							</g>
						</g>
					</g>
				</g>
				<g>
					<path class="st140" d="M89.95,18.14c-0.95,0-1.72-0.77-1.72-1.72v-0.89c0-1.34-1.09-2.43-2.43-2.43h-5.07
						c0-3.49-2.83-6.32-6.32-6.32s-6.32,2.83-6.32,6.32h-5.07c-1.34,0-2.43,1.09-2.43,2.43v0.89c0,0.95-0.77,1.72-1.72,1.72
						c-2.56,0-4.75,2-4.8,4.56c-0.05,2.61,2.05,4.73,4.64,4.73h31.37c2.59,0,4.69-2.13,4.64-4.73
						C94.71,20.14,92.51,18.14,89.95,18.14z M74.42,16.03c-1.62,0-2.93-1.31-2.93-2.93s1.31-2.93,2.93-2.93
						c1.62,0,2.93,1.31,2.93,2.93S76.04,16.03,74.42,16.03z"/>
					<path class="st141" d="M69.7,17.75c0.04-3.85,1.3-7.67,3.5-10.84c-2.9,0.57-5.09,3.13-5.09,6.19h-5.07
						c-1.34,0-2.43,1.09-2.43,2.43v0.89c0,0.95-0.77,1.72-1.72,1.72c-2.56,0-4.75,2-4.8,4.56c-0.05,2.61,2.05,4.73,4.64,4.73h13.5
						C70.58,24.49,69.67,21.12,69.7,17.75z"/>
				</g>
			</g>
		</g>
		<g>
			<g>
				<g>
					<path class="st143" d="M118.93,30.75h-17.65c-4.24,0-7.68,3.44-7.68,7.68v6.3c0,4.24,3.44,7.68,7.68,7.68h7.05l8.88,5.07
						c0.77,0.44,1.72-0.12,1.72-1V52.4c4.24,0,7.68-3.44,7.68-7.68v-6.3C126.61,34.18,123.17,30.75,118.93,30.75z"/>
					<path class="st144" d="M107.7,30.75h-6.41c-4.24,0-7.68,3.44-7.68,7.68v6.3c0,4.24,3.44,7.68,7.68,7.68h4.58
						c-1.69-3.32-2.49-7.09-2.23-10.8C103.91,37.69,105.36,33.89,107.7,30.75z"/>
					<g>
						<path class="st2" d="M120.51,42.32H99.7c-0.41,0-0.75-0.34-0.75-0.75l0,0c0-0.41,0.34-0.75,0.75-0.75h20.81
							c0.41,0,0.75,0.34,0.75,0.75l0,0C121.26,41.99,120.93,42.32,120.51,42.32z"/>
						<path class="st2" d="M120.97,37.99H99.25c-0.16,0-0.29-0.13-0.29-0.29v-0.91c0-0.16,0.13-0.29,0.29-0.29h21.72
							c0.16,0,0.29,0.13,0.29,0.29v0.91C121.26,37.86,121.13,37.99,120.97,37.99z"/>
						<path class="st2" d="M120.51,45.15H99.7c-0.41,0-0.75,0.33-0.75,0.75l0,0c0,0.41,0.34,0.75,0.75,0.75h20.81
							c0.41,0,0.75-0.34,0.75-0.75l0,0C121.26,45.49,120.93,45.15,120.51,45.15z"/>
						<g>
							<path class="st142" d="M99.7,40.82c-0.41,0-0.75,0.33-0.75,0.75c0,0.41,0.34,0.75,0.75,0.75h3.9
								c0.01-0.24,0.02-0.48,0.03-0.73c0.02-0.26,0.05-0.51,0.08-0.77H99.7z"/>
							<path class="st142" d="M103.71,45.15h-4c-0.41,0-0.75,0.34-0.75,0.75c0,0.41,0.34,0.75,0.75,0.75h4.22
								C103.83,46.15,103.76,45.65,103.71,45.15z"/>
							<path class="st142" d="M99.7,36.49c-0.41,0-0.75,0.34-0.75,0.75c0,0.41,0.34,0.75,0.75,0.75h4.53c0.13-0.5,0.27-1,0.44-1.5
								H99.7z"/>
						</g>
					</g>
				</g>
				<g>
					<g>
						<g>
							
								<ellipse transform="matrix(0.2447 -0.9696 0.9696 0.2447 0.8718 165.5996)" class="st145" cx="106.72" cy="82.24" rx="10.97" ry="10.97"/>
							<path class="st146" d="M102.74,82.68c-0.5-3.92,0.48-7.99,2.6-11.32c-5.4,0.68-9.58,5.29-9.58,10.88
								c0,6.06,4.91,10.97,10.97,10.97c0.5,0,0.99-0.04,1.47-0.1C105.25,90.4,103.24,86.66,102.74,82.68z"/>
						</g>
					</g>
					<g>
						<g>
							<path class="st147" d="M106.72,89.13c-3.27,0-6.09-2.33-6.71-5.53c-0.04-0.19,0.09-0.37,0.28-0.41
								c0.19-0.04,0.37,0.09,0.41,0.28c0.55,2.88,3.09,4.96,6.02,4.96c2.93,0,5.47-2.09,6.02-4.96c0.04-0.19,0.22-0.31,0.41-0.28
								c0.19,0.04,0.31,0.22,0.28,0.41C112.81,86.8,109.99,89.13,106.72,89.13z"/>
						</g>
						<g>
							<path class="st147" d="M111.45,79.05c0,0.73-0.46,1.33-1.03,1.33c-0.57,0-1.03-0.6-1.03-1.33c0-0.73,0.46-1.33,1.03-1.33
								C110.99,77.72,111.45,78.31,111.45,79.05z"/>
						</g>
						<g>
							<path class="st147" d="M101.99,79.05c0,0.73,0.46,1.33,1.03,1.33c0.57,0,1.03-0.6,1.03-1.33c0-0.73-0.46-1.33-1.03-1.33
								C102.45,77.72,101.99,78.31,101.99,79.05z"/>
						</g>
						<g>
							<path class="st148" d="M104.33,87.93c-1.83-0.78-3.23-2.42-3.63-4.47c-0.04-0.19-0.22-0.31-0.41-0.28
								c-0.19,0.04-0.31,0.22-0.28,0.41c0.49,2.56,2.39,4.55,4.8,5.25C104.64,88.55,104.48,88.24,104.33,87.93z"/>
							<path class="st148" d="M102.62,80.27c0.02-0.85,0.11-1.7,0.25-2.53c-0.49,0.1-0.87,0.64-0.87,1.31
								C101.99,79.59,102.25,80.06,102.62,80.27z"/>
						</g>
					</g>
				</g>
				<g>
					<g>
						<g>
							<path class="st143" d="M47.51,83.86H31.35c-1.55,0-2.8,1.25-2.8,2.8v14.28c0,1.55,1.25,2.8,2.8,2.8h1.27v3.64
								c0,0.53,0.56,0.86,1.03,0.62l8.09-4.26h5.77c1.55,0,2.8-1.25,2.8-2.8V86.65C50.3,85.11,49.05,83.86,47.51,83.86z"/>
							<path class="st144" d="M31.35,83.86c-1.55,0-2.8,1.25-2.8,2.8v14.28c0,1.55,1.25,2.8,2.8,2.8h1.27v3.64
								c0,0.53,0.56,0.86,1.03,0.62l5.34-2.81c-2.06-3.02-3.46-6.49-4.01-10.1c-0.57-3.74-0.24-7.62,0.93-11.22H31.35z"/>
						</g>
					</g>
					<g>
						<g>
							<path class="st2" d="M47.34,102.8H31.51c-1.06,0-1.92-0.86-1.92-1.92V86.71c0-1.06,0.86-1.92,1.92-1.92h15.83
								c1.06,0,1.92,0.86,1.92,1.92v14.16C49.27,101.94,48.41,102.8,47.34,102.8z M31.51,85.14c-0.87,0-1.57,0.71-1.57,1.57v14.16
								c0,0.87,0.71,1.57,1.57,1.57h15.83c0.87,0,1.57-0.71,1.57-1.57V86.71c0-0.87-0.71-1.57-1.57-1.57H31.51z"/>
						</g>
						<path class="st142" d="M37.38,102.45h-5.87c-0.87,0-1.57-0.71-1.57-1.57V86.71c0-0.87,0.71-1.57,1.57-1.57h4.02
							c0.03-0.12,0.06-0.23,0.1-0.35h-4.12c-1.06,0-1.92,0.86-1.92,1.92v14.16c0,1.06,0.86,1.92,1.92,1.92h6.04
							C37.5,102.68,37.44,102.56,37.38,102.45z"/>
					</g>
					<g>
						<g>
							<path class="st2" d="M36.57,99.15c-0.01,0-0.02,0-0.03,0c-0.29-0.01-0.56-0.14-0.76-0.35l-2.89-3.24
								c-0.39-0.44-0.35-1.1,0.09-1.49c0.43-0.39,1.1-0.35,1.49,0.09l2.14,2.4l7.82-7.82c0.41-0.41,1.08-0.41,1.49,0
								c0.41,0.41,0.41,1.08,0,1.49l-8.61,8.61C37.12,99.04,36.85,99.15,36.57,99.15z"/>
						</g>
						<path class="st142" d="M35.78,98.8c0.04,0.04,0.08,0.08,0.12,0.11c-0.41-1.25-0.72-2.53-0.92-3.83
							c-0.02-0.14-0.04-0.27-0.06-0.41l-0.46-0.52c-0.39-0.44-1.06-0.47-1.49-0.09c-0.43,0.39-0.47,1.05-0.09,1.49L35.78,98.8z"/>
					</g>
				</g>
				<g>
					<g>
						<g>
							<path class="st149" d="M58.4,45.4H10.23c-4.36,0-7.9,3.54-7.9,7.9c0,4.36,3.54,7.9,7.9,7.9h15.8h1.13l6.16,6.16
								c0.55,0.55,1.44,0.55,1.98,0l6.16-6.16H58.4c4.36,0,7.9-3.54,7.9-7.9C66.3,48.94,62.76,45.4,58.4,45.4z"/>
							<path class="st150" d="M13.6,45.4h-3.37c-4.36,0-7.9,3.54-7.9,7.9c0,4.36,3.54,7.9,7.9,7.9h5.3
								c-2.28-3.83-3.3-8.43-2.66-12.85C13.01,47.35,13.25,46.35,13.6,45.4z"/>
						</g>
					</g>
					<g>
						<g>
							<g>
								<path class="st151" d="M12.17,56.22l-1.96,1.03c-0.23,0.12-0.49-0.07-0.45-0.33l0.37-2.18c0.02-0.1-0.02-0.2-0.09-0.28
									l-1.59-1.55c-0.18-0.18-0.08-0.49,0.17-0.53l2.19-0.32c0.1-0.01,0.19-0.08,0.23-0.17l0.98-1.99c0.11-0.23,0.44-0.23,0.56,0
									l0.98,1.99c0.05,0.09,0.13,0.16,0.23,0.17L16,52.38c0.25,0.04,0.36,0.35,0.17,0.53l-1.59,1.55
									c-0.07,0.07-0.11,0.17-0.09,0.28l0.37,2.18c0.04,0.25-0.22,0.45-0.45,0.33l-1.96-1.03C12.37,56.17,12.26,56.17,12.17,56.22z
									"/>
								<path class="st152" d="M12.11,56.25c-0.22-0.41-0.38-0.84-0.46-1.3c-0.24-1.46,0.37-2.99,1.46-3.98l-0.52-1.06
									c-0.11-0.23-0.44-0.23-0.56,0l-0.98,1.99c-0.05,0.09-0.13,0.16-0.23,0.17l-2.19,0.32c-0.25,0.04-0.36,0.35-0.17,0.53
									l1.59,1.55c0.07,0.07,0.11,0.17,0.09,0.28l-0.37,2.18c-0.04,0.25,0.22,0.45,0.45,0.33L12.11,56.25z"/>
							</g>
						</g>
						<g>
							<g>
								<path class="st151" d="M23.1,56.22l-1.96,1.03c-0.23,0.12-0.49-0.07-0.45-0.33l0.37-2.18c0.02-0.1-0.02-0.2-0.09-0.28
									l-1.59-1.55c-0.18-0.18-0.08-0.49,0.17-0.53l2.19-0.32c0.1-0.01,0.19-0.08,0.23-0.17l0.98-1.99c0.11-0.23,0.44-0.23,0.56,0
									l0.98,1.99c0.05,0.09,0.13,0.16,0.23,0.17l2.19,0.32c0.25,0.04,0.36,0.35,0.17,0.53l-1.59,1.55
									c-0.07,0.07-0.11,0.17-0.09,0.28l0.37,2.18c0.04,0.25-0.22,0.45-0.45,0.33l-1.96-1.03C23.3,56.17,23.19,56.17,23.1,56.22z"
									/>
								<path class="st152" d="M23.04,56.25c-0.22-0.41-0.38-0.84-0.46-1.3c-0.24-1.46,0.37-2.99,1.46-3.98l-0.52-1.06
									c-0.11-0.23-0.44-0.23-0.56,0l-0.98,1.99c-0.05,0.09-0.13,0.16-0.23,0.17l-2.19,0.32c-0.25,0.04-0.36,0.35-0.17,0.53
									l1.59,1.55c0.07,0.07,0.11,0.17,0.09,0.28l-0.37,2.18c-0.04,0.25,0.22,0.45,0.45,0.33L23.04,56.25z"/>
							</g>
						</g>
						<g>
							<g>
								<path class="st151" d="M34.03,56.22l-1.96,1.03c-0.23,0.12-0.49-0.07-0.45-0.33l0.37-2.18c0.02-0.1-0.02-0.2-0.09-0.28
									l-1.59-1.55c-0.18-0.18-0.08-0.49,0.17-0.53l2.19-0.32c0.1-0.01,0.19-0.08,0.23-0.17l0.98-1.99c0.11-0.23,0.44-0.23,0.56,0
									l0.98,1.99c0.05,0.09,0.13,0.16,0.23,0.17l2.19,0.32c0.25,0.04,0.36,0.35,0.17,0.53l-1.59,1.55
									c-0.07,0.07-0.11,0.17-0.09,0.28l0.37,2.18c0.04,0.25-0.22,0.45-0.45,0.33l-1.96-1.03C34.23,56.17,34.12,56.17,34.03,56.22z
									"/>
								<path class="st152" d="M33.97,56.25c-0.22-0.41-0.38-0.84-0.46-1.3c-0.24-1.46,0.37-2.99,1.46-3.98l-0.52-1.06
									c-0.11-0.23-0.44-0.23-0.56,0l-0.98,1.99c-0.05,0.09-0.13,0.16-0.23,0.17l-2.19,0.32c-0.25,0.04-0.36,0.35-0.17,0.53
									l1.59,1.55c0.07,0.07,0.11,0.17,0.09,0.28l-0.37,2.18c-0.04,0.25,0.22,0.45,0.45,0.33L33.97,56.25z"/>
							</g>
						</g>
						<g>
							<g>
								<path class="st151" d="M44.96,56.22L43,57.25c-0.23,0.12-0.49-0.07-0.45-0.33l0.37-2.18c0.02-0.1-0.02-0.2-0.09-0.28
									l-1.59-1.55c-0.18-0.18-0.08-0.49,0.17-0.53l2.19-0.32c0.1-0.01,0.19-0.08,0.23-0.17l0.98-1.99c0.11-0.23,0.44-0.23,0.56,0
									l0.98,1.99c0.05,0.09,0.13,0.16,0.23,0.17l2.19,0.32c0.25,0.04,0.36,0.35,0.17,0.53l-1.59,1.55
									c-0.07,0.07-0.11,0.17-0.09,0.28l0.37,2.18c0.04,0.25-0.22,0.45-0.45,0.33l-1.96-1.03C45.16,56.17,45.05,56.17,44.96,56.22z
									"/>
								<path class="st152" d="M44.9,56.25c-0.22-0.41-0.38-0.84-0.46-1.3c-0.24-1.46,0.37-2.99,1.46-3.98l-0.52-1.06
									c-0.11-0.23-0.44-0.23-0.56,0l-0.98,1.99c-0.05,0.09-0.13,0.16-0.23,0.17l-2.19,0.32c-0.25,0.04-0.36,0.35-0.17,0.53
									l1.59,1.55c0.07,0.07,0.11,0.17,0.09,0.28l-0.37,2.18c-0.04,0.25,0.22,0.45,0.45,0.33L44.9,56.25z"/>
							</g>
						</g>
						<g>
							<g>
								<path class="st151" d="M55.89,56.22l-1.96,1.03c-0.23,0.12-0.49-0.07-0.45-0.33l0.37-2.18c0.02-0.1-0.02-0.2-0.09-0.28
									l-1.59-1.55c-0.18-0.18-0.08-0.49,0.17-0.53l2.19-0.32c0.1-0.01,0.19-0.08,0.23-0.17l0.98-1.99c0.11-0.23,0.44-0.23,0.56,0
									l0.98,1.99c0.05,0.09,0.13,0.16,0.23,0.17l2.19,0.32c0.25,0.04,0.36,0.35,0.17,0.53l-1.59,1.55
									c-0.07,0.07-0.11,0.17-0.09,0.28l0.37,2.18c0.04,0.25-0.22,0.45-0.45,0.33l-1.96-1.03C56.09,56.17,55.98,56.17,55.89,56.22z
									"/>
								<path class="st152" d="M55.83,56.25c-0.22-0.41-0.38-0.84-0.46-1.3c-0.24-1.46,0.37-2.99,1.46-3.98l-0.52-1.06
									c-0.11-0.23-0.44-0.23-0.56,0l-0.98,1.99c-0.05,0.09-0.13,0.16-0.23,0.17l-2.19,0.32c-0.25,0.04-0.36,0.35-0.17,0.53
									l1.59,1.55c0.07,0.07,0.11,0.17,0.09,0.28l-0.37,2.18c-0.04,0.25,0.22,0.45,0.45,0.33L55.83,56.25z"/>
							</g>
						</g>
					</g>
				</g>
			</g>
			<g>
				<g>
					<g>
						<path class="st145" d="M80.05,110.79l-2.83,1.49c-0.33,0.17-0.71-0.11-0.65-0.47l0.54-3.15c0.02-0.15-0.02-0.29-0.13-0.4
							l-2.29-2.23c-0.27-0.26-0.12-0.71,0.25-0.77l3.17-0.46c0.15-0.02,0.27-0.11,0.34-0.25l1.42-2.87c0.16-0.33,0.64-0.33,0.81,0
							l1.42,2.87c0.07,0.13,0.19,0.22,0.34,0.25l3.17,0.46c0.37,0.05,0.52,0.51,0.25,0.77l-2.29,2.23c-0.11,0.1-0.15,0.25-0.13,0.4
							l0.54,3.15c0.06,0.37-0.32,0.65-0.65,0.47l-2.83-1.49C80.34,110.72,80.18,110.72,80.05,110.79z"/>
					</g>
					<g>
						<polygon class="st153" points="83.3,104.92 80.94,111.04 81.43,111.3 83.85,105.01 						"/>
						<path class="st153" d="M82.49,104.81l-2.29,5.94c0.09-0.01,0.19,0,0.27,0.04l0.11,0.06l2.31-5.99L82.49,104.81z"/>
					</g>
					<path class="st146" d="M76.57,111.81c-0.06,0.37,0.32,0.65,0.65,0.47l2.76-1.45c-0.42-0.47-0.77-1-1.03-1.57
						c-0.34-0.75-0.53-1.6-0.37-2.41c0.17-0.89,0.76-1.67,1.47-2.24c0.49-0.39,1.03-0.69,1.6-0.96l-0.97-1.97
						c-0.16-0.33-0.64-0.33-0.81,0l-1.42,2.87c-0.07,0.13-0.19,0.22-0.34,0.25l-3.17,0.46c-0.37,0.05-0.52,0.51-0.25,0.77l2.29,2.23
						c0.11,0.1,0.15,0.25,0.13,0.4L76.57,111.81z"/>
				</g>
				<g>
					<g>
						<path class="st145" d="M35.14,38.69l-2.83,1.49c-0.33,0.17-0.71-0.11-0.65-0.47l0.54-3.15c0.02-0.15-0.02-0.29-0.13-0.4
							l-2.29-2.23c-0.27-0.26-0.12-0.71,0.25-0.77l3.17-0.46c0.15-0.02,0.27-0.11,0.34-0.25l1.42-2.87c0.16-0.33,0.64-0.33,0.81,0
							l1.42,2.87c0.07,0.13,0.19,0.22,0.34,0.25l3.17,0.46c0.37,0.05,0.52,0.51,0.25,0.77l-2.29,2.23c-0.11,0.1-0.15,0.25-0.13,0.4
							l0.54,3.15c0.06,0.37-0.32,0.65-0.65,0.47l-2.83-1.49C35.43,38.62,35.27,38.62,35.14,38.69z"/>
					</g>
					<g>
						<polygon class="st153" points="38.39,32.82 36.03,38.93 36.52,39.19 38.94,32.9 						"/>
						<path class="st153" d="M37.58,32.7l-2.29,5.94c0.09-0.01,0.19,0,0.27,0.04l0.11,0.06l2.31-5.99L37.58,32.7z"/>
					</g>
					<path class="st146" d="M31.66,39.7c-0.06,0.37,0.32,0.65,0.65,0.47l2.76-1.45c-0.42-0.47-0.77-1-1.03-1.57
						c-0.34-0.75-0.53-1.6-0.37-2.41c0.17-0.89,0.76-1.67,1.47-2.24c0.49-0.39,1.03-0.69,1.6-0.96l-0.97-1.97
						c-0.16-0.33-0.64-0.33-0.81,0l-1.42,2.87c-0.07,0.13-0.19,0.22-0.34,0.25l-3.17,0.46c-0.37,0.05-0.52,0.51-0.25,0.77l2.29,2.23
						c0.11,0.1,0.15,0.25,0.13,0.4L31.66,39.7z"/>
				</g>
				<g>
					<g>
						<path class="st145" d="M89.95,112.66l-2.01,1.05c-0.23,0.12-0.51-0.08-0.46-0.34l0.38-2.23c0.02-0.1-0.02-0.21-0.09-0.28
							l-1.62-1.58c-0.19-0.18-0.08-0.5,0.18-0.54l2.24-0.33c0.1-0.02,0.19-0.08,0.24-0.17l1-2.03c0.12-0.24,0.45-0.24,0.57,0l1,2.03
							c0.05,0.09,0.14,0.16,0.24,0.17l2.24,0.33c0.26,0.04,0.37,0.36,0.18,0.54l-1.62,1.58c-0.07,0.07-0.11,0.18-0.09,0.28
							l0.38,2.23c0.04,0.26-0.23,0.46-0.46,0.34l-2.01-1.05C90.15,112.61,90.04,112.61,89.95,112.66z"/>
					</g>
					<g>
						<polygon class="st153" points="92.25,108.5 90.58,112.84 90.92,113.02 92.64,108.56 						"/>
						<path class="st153" d="M91.67,108.42l-1.62,4.21c0.07-0.01,0.13,0,0.19,0.03l0.08,0.04l1.63-4.24L91.67,108.42z"/>
					</g>
					<path class="st146" d="M87.48,113.38c-0.04,0.26,0.23,0.46,0.46,0.34l1.95-1.03c-0.3-0.33-0.55-0.71-0.73-1.11
						c-0.24-0.53-0.37-1.13-0.26-1.7c0.12-0.63,0.53-1.18,1.04-1.58c0.34-0.28,0.73-0.49,1.13-0.68l-0.69-1.4
						c-0.12-0.24-0.45-0.24-0.57,0l-1,2.03c-0.05,0.09-0.14,0.16-0.24,0.17l-2.24,0.33c-0.26,0.04-0.37,0.36-0.18,0.54l1.62,1.58
						c0.07,0.07,0.11,0.18,0.09,0.28L87.48,113.38z"/>
				</g>
				<g>
					<g>
						<path class="st145" d="M44.91,32.09l-2.01,1.05c-0.23,0.12-0.51-0.08-0.46-0.34l0.38-2.23c0.02-0.1-0.02-0.21-0.09-0.28
							l-1.62-1.58c-0.19-0.18-0.08-0.5,0.18-0.54l2.24-0.33c0.1-0.02,0.19-0.08,0.24-0.17l1-2.03c0.12-0.24,0.45-0.24,0.57,0l1,2.03
							c0.05,0.09,0.14,0.16,0.24,0.17l2.24,0.33c0.26,0.04,0.37,0.36,0.18,0.54l-1.62,1.58c-0.07,0.07-0.11,0.18-0.09,0.28
							l0.38,2.23c0.04,0.26-0.23,0.46-0.46,0.34l-2.01-1.05C45.11,32.04,45,32.04,44.91,32.09z"/>
					</g>
					<g>
						<polygon class="st153" points="47.21,27.94 45.54,32.27 45.88,32.45 47.6,27.99 						"/>
						<path class="st153" d="M46.64,27.85l-1.62,4.21c0.07-0.01,0.13,0,0.19,0.03l0.08,0.04l1.63-4.24L46.64,27.85z"/>
					</g>
					<path class="st146" d="M42.44,32.81c-0.04,0.26,0.23,0.46,0.46,0.34l1.95-1.03c-0.3-0.33-0.55-0.71-0.73-1.11
						c-0.24-0.53-0.37-1.13-0.26-1.7c0.12-0.63,0.53-1.18,1.04-1.58c0.34-0.28,0.73-0.49,1.13-0.68l-0.69-1.4
						c-0.12-0.24-0.45-0.24-0.57,0l-1,2.03c-0.05,0.09-0.14,0.16-0.24,0.17l-2.24,0.33c-0.26,0.04-0.37,0.36-0.18,0.54l1.62,1.58
						c0.07,0.07,0.11,0.18,0.09,0.28L42.44,32.81z"/>
				</g>
			</g>
		</g>
	</g>
</g>
</svg>
