<?xml version="1.0" encoding="utf-8"?>
<!-- Generator: Adobe Illustrator 25.0.0, SVG Export Plug-In . SVG Version: 6.00 Build 0)  -->
<svg version="1.1" id="Capa_1" xmlns="http://www.w3.org/2000/svg" xmlns:xlink="http://www.w3.org/1999/xlink" x="0px" y="0px"
	 width="183.37px" height="122px" viewBox="0 0 183.37 122" style="enable-background:new 0 0 183.37 122;" xml:space="preserve">
<style type="text/css">
	.st0{opacity:0.5;}
	.st1{fill:url(#SVGID_1_);}
	.st2{fill:#FFFFFF;}
	.st3{fill:url(#SVGID_2_);}
	.st4{opacity:0.6;}
	.st5{fill:url(#SVGID_3_);}
	.st6{fill:url(#SVGID_4_);}
	.st7{fill:url(#SVGID_5_);}
	.st8{fill:url(#SVGID_6_);}
	.st9{fill:url(#SVGID_7_);}
	.st10{fill:url(#SVGID_8_);}
	.st11{fill:url(#SVGID_9_);}
	.st12{fill:url(#SVGID_10_);}
	.st13{fill:url(#SVGID_11_);}
	.st14{fill:url(#SVGID_12_);}
	.st15{fill:url(#SVGID_13_);}
	.st16{opacity:0.6;fill:#FFFFFF;}
	.st17{fill:#DEC3DF;}
	.st18{fill:url(#SVGID_14_);}
	.st19{fill:url(#SVGID_15_);}
	.st20{fill:url(#SVGID_16_);}
	.st21{fill:url(#SVGID_17_);}
	.st22{fill:url(#SVGID_18_);}
	.st23{fill:url(#SVGID_19_);}
	.st24{fill:url(#SVGID_20_);}
	.st25{fill:url(#SVGID_21_);}
	.st26{opacity:0.76;}
	.st27{fill:url(#SVGID_22_);}
	.st28{fill:url(#SVGID_23_);}
	.st29{fill:url(#SVGID_24_);}
	.st30{opacity:0.78;fill:#FFFFFF;}
	.st31{fill:url(#SVGID_25_);}
	.st32{fill:url(#SVGID_26_);}
	.st33{fill:url(#SVGID_27_);}
	.st34{fill:url(#SVGID_28_);}
	.st35{fill:url(#SVGID_29_);}
	.st36{fill:url(#SVGID_30_);}
	.st37{fill:url(#SVGID_31_);}
	.st38{fill:url(#SVGID_32_);}
	.st39{fill:url(#SVGID_33_);}
	.st40{fill:url(#SVGID_34_);}
	.st41{fill:url(#SVGID_35_);}
	.st42{fill:url(#SVGID_36_);}
	.st43{fill:url(#SVGID_37_);}
	.st44{fill:url(#SVGID_38_);}
	.st45{fill:url(#SVGID_39_);}
	.st46{fill:url(#SVGID_40_);}
	.st47{fill:url(#SVGID_41_);}
	.st48{fill:url(#SVGID_42_);}
	.st49{fill:url(#SVGID_43_);}
	.st50{fill:url(#SVGID_44_);}
	.st51{fill:url(#SVGID_45_);}
	.st52{fill:url(#SVGID_46_);}
	.st53{fill:url(#SVGID_47_);}
	.st54{fill:url(#SVGID_48_);}
	.st55{fill:url(#SVGID_49_);}
	.st56{fill:url(#SVGID_50_);}
	.st57{fill:url(#SVGID_51_);}
	.st58{fill:url(#SVGID_52_);}
	.st59{fill:url(#SVGID_53_);}
	.st60{fill:url(#SVGID_54_);}
	.st61{fill:url(#SVGID_55_);}
	.st62{fill:url(#SVGID_56_);}
	.st63{fill:url(#SVGID_57_);}
	.st64{opacity:0.5;fill:url(#SVGID_58_);}
	.st65{fill:url(#SVGID_59_);}
	.st66{fill:url(#SVGID_60_);}
	.st67{fill:url(#SVGID_61_);}
	.st68{fill:url(#SVGID_62_);}
	.st69{fill:url(#SVGID_63_);}
	.st70{fill:url(#SVGID_64_);}
	.st71{fill:url(#SVGID_65_);}
	.st72{fill:url(#SVGID_66_);}
	.st73{fill:url(#SVGID_67_);}
	.st74{fill:url(#SVGID_68_);}
	.st75{fill:url(#SVGID_69_);}
	.st76{fill:url(#SVGID_70_);}
	.st77{fill:url(#SVGID_71_);}
	.st78{fill:url(#SVGID_72_);}
	.st79{fill:url(#SVGID_73_);}
	.st80{fill:url(#SVGID_74_);}
	.st81{fill:url(#SVGID_75_);}
	.st82{fill:url(#SVGID_76_);}
	.st83{fill:url(#SVGID_77_);}
	.st84{fill:url(#SVGID_78_);}
	.st85{fill:url(#SVGID_79_);}
	.st86{fill:url(#SVGID_80_);}
	.st87{fill:url(#SVGID_81_);}
	.st88{fill:url(#SVGID_82_);}
	.st89{fill:url(#SVGID_83_);}
	.st90{fill:url(#SVGID_84_);}
	.st91{fill:url(#SVGID_85_);}
	.st92{fill:url(#SVGID_86_);}
	.st93{fill:url(#SVGID_87_);}
	.st94{fill:url(#SVGID_88_);}
	.st95{fill:url(#SVGID_89_);}
	.st96{fill:url(#SVGID_90_);}
	.st97{fill:url(#SVGID_91_);}
	.st98{fill:url(#SVGID_92_);}
	.st99{fill:url(#SVGID_93_);}
	.st100{fill:url(#SVGID_94_);}
	.st101{fill:url(#SVGID_95_);}
	.st102{fill:url(#SVGID_96_);}
	.st103{fill:url(#SVGID_97_);}
	.st104{fill:url(#SVGID_98_);}
	.st105{fill:url(#SVGID_99_);}
	.st106{fill:url(#SVGID_100_);}
	.st107{fill:#CB96C3;}
	.st108{fill:url(#SVGID_101_);}
	.st109{fill:url(#SVGID_102_);}
	.st110{fill:url(#SVGID_103_);}
	.st111{fill:url(#SVGID_104_);}
	.st112{fill:url(#SVGID_105_);}
	.st113{fill:url(#SVGID_106_);}
	.st114{fill:url(#SVGID_107_);}
	.st115{fill:url(#SVGID_108_);}
	.st116{fill:url(#SVGID_109_);}
	.st117{fill:url(#SVGID_110_);}
	.st118{fill:url(#SVGID_111_);}
	.st119{fill:url(#SVGID_112_);}
	.st120{fill:url(#SVGID_113_);}
	.st121{fill:url(#SVGID_114_);}
	.st122{fill:url(#SVGID_115_);}
	.st123{fill:url(#SVGID_116_);}
	.st124{fill:url(#SVGID_117_);}
	.st125{fill:url(#SVGID_118_);}
	.st126{fill:url(#SVGID_119_);}
	.st127{fill:url(#SVGID_120_);}
	.st128{opacity:0.53;fill:#FFFFFF;}
	.st129{fill:url(#SVGID_121_);}
	.st130{opacity:0.75;fill:#FBE0E5;}
	.st131{fill:#ECD2D8;}
	.st132{fill:none;stroke:#E1BFC8;stroke-width:2;stroke-linecap:round;stroke-linejoin:round;}
	.st133{fill:none;stroke:#E1BFC8;stroke-width:2;stroke-linecap:round;stroke-linejoin:round;stroke-dasharray:0,3.9583;}
	.st134{fill:none;stroke:#E1BFC8;stroke-width:2;stroke-linecap:round;stroke-linejoin:round;stroke-dasharray:0,3.9765;}
	.st135{fill:#324D9C;}
	.st136{fill:#1D3D91;}
	.st137{fill:#F6DADD;}
	.st138{fill:#E9C7CB;}
	.st139{fill:#D48A0A;}
	.st140{fill:#F2927C;}
	.st141{fill:#EB836C;}
	.st142{fill:#F4F2F1;}
	.st143{fill:#FBB916;}
	.st144{fill:#F6A318;}
	.st145{fill:#FEC708;}
	.st146{fill:#F5B301;}
	.st147{fill:#232020;}
	.st148{fill:#020203;}
	.st149{fill:#3C73B9;}
	.st150{fill:#366BB3;}
	.st151{fill:#FFD504;}
	.st152{fill:#FBB911;}
	.st153{fill:#FFDB2A;}
	.st154{fill:#E8F2FA;}
	.st155{fill:#C9DEF4;}
	.st156{fill:#DDE9F8;}
	.st157{fill:#F28F35;}
	.st158{fill:#ACC0E4;}
	.st159{fill:#FFF7EF;}
	.st160{fill:#FDDCC3;}
	.st161{fill:#F7AD76;}
	.st162{fill:#1F3865;}
	.st163{fill:#264790;}
	.st164{fill:#F39153;}
	.st165{fill:#91B0DD;}
	.st166{fill:#EE751B;}
	.st167{fill:#20396F;}
	.st168{fill:#EEC09D;}
	.st169{fill:#EF7A3E;}
	.st170{fill:#6896CF;}
	.st171{fill:#4880C1;}
	.st172{fill:#FDDBBA;}
	.st173{fill:#144179;}
	.st174{fill:#EE761C;}
	.st175{fill:#F39254;}
	.st176{fill:#2A3967;}
	.st177{fill:#ACCAEB;}
	.st178{fill:#EA5A21;}
	.st179{fill:#F07F26;}
	.st180{fill:#9FC6EA;}
	.st181{fill:#E0EFFB;}
	.st182{fill:#183F73;}
	.st183{fill:#F59E60;}
	.st184{fill:#1A3760;}
	.st185{fill:#0F4E88;}
	.st186{fill:#AFCCED;}
	.st187{fill:#2D3555;}
	.st188{opacity:0.7;}
	.st189{opacity:0.5;fill:url(#SVGID_122_);}
	.st190{opacity:0.5;fill:url(#SVGID_123_);}
	.st191{opacity:0.65;fill:#FFFFFF;}
	.st192{fill:url(#SVGID_124_);}
	.st193{opacity:0.57;fill:#FFFFFF;}
	.st194{fill:url(#SVGID_125_);}
	.st195{fill:url(#SVGID_126_);}
	.st196{opacity:0.5;fill:#FFFFFF;}
	.st197{fill:url(#SVGID_127_);}
	.st198{fill:url(#SVGID_128_);}
	.st199{fill:url(#SVGID_129_);}
	.st200{fill:url(#SVGID_130_);}
	.st201{fill:url(#SVGID_131_);}
	.st202{fill:url(#SVGID_132_);}
	.st203{fill:url(#SVGID_133_);}
	.st204{fill:url(#SVGID_134_);}
	.st205{fill:url(#SVGID_135_);}
	.st206{fill:url(#SVGID_136_);}
	.st207{opacity:0.69;fill:#FFFFFF;}
	.st208{fill:url(#SVGID_137_);}
	.st209{fill:url(#SVGID_138_);}
	.st210{fill:url(#SVGID_139_);}
	.st211{fill:url(#SVGID_140_);}
	.st212{fill:url(#SVGID_141_);}
	.st213{fill:url(#SVGID_142_);}
	.st214{fill:url(#SVGID_143_);}
	.st215{fill:url(#SVGID_144_);}
	.st216{fill:url(#SVGID_145_);}
	.st217{fill:url(#SVGID_146_);}
	.st218{fill:url(#SVGID_147_);}
	.st219{fill:url(#SVGID_148_);}
	.st220{fill:url(#SVGID_149_);}
	.st221{fill:url(#SVGID_150_);}
	.st222{fill:url(#SVGID_151_);}
	.st223{opacity:0.72;fill:#FFFFFF;}
	.st224{fill:url(#SVGID_152_);}
	.st225{fill:url(#SVGID_153_);}
	.st226{fill:url(#SVGID_154_);}
	.st227{fill:url(#SVGID_155_);}
	.st228{fill:url(#SVGID_156_);}
	.st229{fill:url(#SVGID_157_);}
	.st230{fill:url(#SVGID_158_);}
	.st231{fill:url(#SVGID_159_);}
	.st232{fill:url(#SVGID_160_);}
	.st233{fill:url(#SVGID_161_);}
	.st234{fill:url(#SVGID_162_);}
	.st235{fill:url(#SVGID_163_);}
	.st236{fill:url(#SVGID_164_);}
	.st237{fill:url(#SVGID_165_);}
	.st238{fill:url(#SVGID_166_);}
	.st239{fill:url(#SVGID_167_);}
	.st240{fill:url(#SVGID_168_);}
	.st241{fill:url(#SVGID_169_);}
	.st242{fill-rule:evenodd;clip-rule:evenodd;fill:url(#SVGID_170_);}
	.st243{fill-rule:evenodd;clip-rule:evenodd;fill:url(#SVGID_171_);}
	.st244{fill-rule:evenodd;clip-rule:evenodd;fill:url(#SVGID_172_);}
	.st245{fill-rule:evenodd;clip-rule:evenodd;fill:url(#SVGID_173_);}
	.st246{fill-rule:evenodd;clip-rule:evenodd;fill:url(#SVGID_174_);}
	.st247{fill-rule:evenodd;clip-rule:evenodd;fill:url(#SVGID_175_);}
	.st248{fill-rule:evenodd;clip-rule:evenodd;fill:url(#SVGID_176_);}
	.st249{fill-rule:evenodd;clip-rule:evenodd;fill:url(#SVGID_177_);}
	.st250{fill-rule:evenodd;clip-rule:evenodd;fill:url(#SVGID_178_);}
	.st251{fill-rule:evenodd;clip-rule:evenodd;fill:url(#SVGID_179_);}
	.st252{fill-rule:evenodd;clip-rule:evenodd;fill:url(#SVGID_180_);}
	.st253{fill-rule:evenodd;clip-rule:evenodd;fill:url(#SVGID_181_);}
	.st254{fill-rule:evenodd;clip-rule:evenodd;fill:url(#SVGID_182_);}
	.st255{fill-rule:evenodd;clip-rule:evenodd;fill:url(#SVGID_183_);}
	.st256{fill-rule:evenodd;clip-rule:evenodd;fill:url(#SVGID_184_);}
	.st257{fill-rule:evenodd;clip-rule:evenodd;fill:url(#SVGID_185_);}
	.st258{fill-rule:evenodd;clip-rule:evenodd;fill:url(#SVGID_186_);}
	.st259{fill:url(#SVGID_187_);}
	.st260{fill:url(#SVGID_188_);}
	.st261{fill:url(#SVGID_189_);}
	.st262{fill-rule:evenodd;clip-rule:evenodd;fill:url(#SVGID_190_);}
	.st263{fill-rule:evenodd;clip-rule:evenodd;fill:url(#SVGID_191_);}
	.st264{fill-rule:evenodd;clip-rule:evenodd;fill:url(#SVGID_192_);}
	.st265{fill-rule:evenodd;clip-rule:evenodd;fill:url(#SVGID_193_);}
	.st266{fill-rule:evenodd;clip-rule:evenodd;fill:url(#SVGID_194_);}
	.st267{fill-rule:evenodd;clip-rule:evenodd;fill:url(#SVGID_195_);}
	.st268{fill-rule:evenodd;clip-rule:evenodd;fill:url(#SVGID_196_);}
	.st269{fill-rule:evenodd;clip-rule:evenodd;fill:url(#SVGID_197_);}
	.st270{fill-rule:evenodd;clip-rule:evenodd;fill:url(#SVGID_198_);}
	.st271{fill-rule:evenodd;clip-rule:evenodd;fill:url(#SVGID_199_);}
	.st272{fill-rule:evenodd;clip-rule:evenodd;fill:url(#SVGID_200_);}
	.st273{fill-rule:evenodd;clip-rule:evenodd;fill:url(#SVGID_201_);}
	.st274{fill-rule:evenodd;clip-rule:evenodd;fill:url(#SVGID_202_);}
	.st275{fill-rule:evenodd;clip-rule:evenodd;fill:url(#SVGID_203_);}
	.st276{fill-rule:evenodd;clip-rule:evenodd;fill:url(#SVGID_204_);}
	.st277{fill-rule:evenodd;clip-rule:evenodd;fill:url(#SVGID_205_);}
</style>
<g>
	<path class="st154" d="M12.87,115.2c0,0-19.36-5.46-10.48-30.45c8.88-25,25.77-14.21,20.89-36.07
		C16.84,19.85,44.09,0.25,74.05,8.23c29.96,7.98,21.93,16.86,57.14,7.92c42.92-10.89,46.54,34.43,36.59,49.49
		c-9.95,15.06,27.17,17.23,11.84,49.56H12.87z"/>
	<g>
		<path class="st155" d="M148.21,58.5c0,0,4.96-10.11,7.74-9.22C158.72,50.18,148.21,58.5,148.21,58.5z"/>
		<path class="st155" d="M144.64,63.07c0,0,11.88-11.65,16.5-9.52c4.62,2.12-2.81,4.4-5.65,5.02
			C152.66,59.19,144.64,63.07,144.64,63.07z"/>
	</g>
	<path class="st155" d="M174.43,106.98c4.25-2.79,0.21-10.17,0.21-10.17s-9.9-2.67-10.61-4.16c-0.7-1.49,8.91,0.63,8.91,0.63
		c-0.7-3.1-6.9-9.56-6.9-9.56s-9.35,3.6-9.67,1.99c-0.31-1.62,8.44-2.77,8.44-2.77c-1.83-2.63-6.12-4.23-6.12-4.23
		c-6.65-1.58-8.34,7.03-8.34,7.03s-3.27,1.18-7.72,0.38l0,0c0,0-0.85-0.23-2.19-0.31l0.26,0.79c0.23,0,0.46,0,0.69,0.01c0,0,0,0,0,0
		c0,0,0.01,0,0.01,0c0.14,0.01,0.34,0.04,0.59,0.06c0,0,0,0,0,0c0,0,0,0,0,0c0.55,0.09,0.96,0.14,1.25,0.16c0,0,0,0,0,0
		c1.73,0.24,4.01,0.65,4.65,1.21c0,0,0.09-0.13,0.31-0.29c-0.1,0.09-0.2,0.19-0.31,0.29c-2.47,2.31-0.72,9.27,1.29,12.8
		c2.02,3.53,2.54,1.53,3.61-1.08c1.06-2.61-0.79-6.73-0.53-8.21c0.27-1.48,1.55,0.14,2.18,2.72c0.63,2.59-1.48,4.68-0.53,8.88
		c0.95,4.2,9.63,4.8,9.63,4.8c-1.8-2.53-1.9-8.08-0.99-8.6c0.91-0.51,3.26,6.99,3.93,8.06C167.18,108.5,170.18,109.77,174.43,106.98
		z"/>
	<g>
		<path class="st156" d="M40.35,69.83c0,0-6.26-12.76-9.76-11.63C27.1,59.34,40.35,69.83,40.35,69.83z"/>
		<path class="st156" d="M44.85,75.6c0,0-14.99-14.69-20.81-12.01c-5.82,2.68,3.55,5.55,7.13,6.34
			C34.74,70.71,44.85,75.6,44.85,75.6z"/>
	</g>
	<path class="st155" d="M16.59,84.04c0.08-4.46,7.46-4.94,7.46-4.94s6.63,6.1,8.07,5.93c1.44-0.18-4.65-6.33-4.65-6.33
		c2.63-0.94,10.34,0.63,10.34,0.63s1.72,8.64,3.07,8.12c1.35-0.53-1.91-7.57-1.91-7.57c2.81,0.12,6.02,2.56,6.02,2.56
		c4.3,4.19-1.31,9.5-1.31,9.5s0.66,2.98,3.34,5.92l0,0c0,0,0.57,0.52,1.26,1.48l-0.71,0.18c-0.11-0.18-0.22-0.34-0.33-0.5
		c0,0,0,0,0,0c0,0,0,0-0.01-0.01c-0.08-0.1-0.19-0.24-0.32-0.41c0,0,0,0,0,0c0,0,0,0,0,0c-0.32-0.37-0.55-0.65-0.7-0.85c0,0,0,0,0,0
		c-0.99-1.17-9.63,2.01-13.2,2.17c-3.57,0.16-2.33-1.17-0.9-3.19c1.44-2.02,5.37-2.57,6.35-3.47c0.98-0.9-0.83-1.09-3.05-0.34
		c-2.22,0.75-2.78,3.29-6.35,4.57c-3.57,1.27-8.09-4.9-8.09-4.9c2.72,0.15,6.9-2.39,6.85-3.3s-6.73,0.86-7.84,0.87
		C18.87,90.13,16.52,88.5,16.59,84.04z"/>
	<g>
		<path class="st157" d="M91.64,114.88H38.93c-1.14,0-2.07-0.93-2.07-2.08V42.39c0-1.18,0.98-2.12,2.15-2.08l54.7,2.52v69.97
			C93.71,113.95,92.78,114.88,91.64,114.88z"/>
		<path class="st157" d="M95.78,114.88h52.71c1.14,0,2.07-0.93,2.07-2.08V42.39c0-1.18-0.98-2.12-2.15-2.08l-54.7,2.52v69.97
			C93.71,113.95,94.64,114.88,95.78,114.88z"/>
		<path class="st158" d="M40.85,43.36l-1.71,1.39c-0.24,0.2-0.38,0.49-0.38,0.81v68.27c0,0.57,0.45,1.03,1.01,1.03h4.25
			c0.58,0,1.04-0.5,1.01-1.1L40.85,43.36z"/>
		<path class="st158" d="M146.67,43.36l1.71,1.39c0.24,0.2,0.38,0.49,0.38,0.81v68.27c0,0.57-0.45,1.03-1.01,1.03h-4.25
			c-0.58,0-1.04-0.5-1.01-1.1L146.67,43.36z"/>
		<path class="st159" d="M91.76,114.88H42.17c-1.08,0-1.95-0.9-1.95-2.01V44.84c0-1.14,0.92-2.05,2.02-2.01l43.28,1.67
			c4.57,0.18,8.18,4.04,8.18,8.75v59.62C93.71,113.98,92.84,114.88,91.76,114.88z"/>
		<path class="st159" d="M95.5,114.88h49.91c0.99,0,1.79-0.83,1.79-1.84V44.67c0-1.05-0.84-1.88-1.86-1.84l-44.37,1.71
			c-4.05,0.16-7.26,3.59-7.26,7.76v60.73C93.71,114.06,94.51,114.88,95.5,114.88z"/>
		<g>
			<rect x="93.57" y="56.37" class="st160" width="0.27" height="44.17"/>
		</g>
	</g>
	<g>
		<g>
			<path class="st161" d="M119.66,51.96c0.1,0.12,0.11,0.24,0.06,0.38c0,0,0,0,0,0c-0.09,0.25-0.4,0.53-0.75,0.81
				c-0.05,0.04-0.09,0.07-0.12,0.1c-0.01,0.01-0.02,0.02-0.03,0.02c-0.01,0.01-0.01,0.01-0.02,0.02c-0.33,0.3-0.21,0.37-0.8,0.98
				c-0.68,0.7-1.14,0.7-1.27,0.64c-0.11-0.06,0.12-0.42,0.37-0.84c0.01-0.02,0.02-0.04,0.04-0.06c0.03-0.06,0.07-0.11,0.1-0.17
				c0.3-0.5,0.22-0.74,0.16-1.48c-0.05-0.61-0.92-3.4-0.92-3.4l1.29-0.21c0,0,0.37,2.22,0.8,2.57c0.23,0.18,0.48,0.19,0.7,0.32
				c0.02,0.01,0.03,0.02,0.05,0.03C119.44,51.76,119.56,51.85,119.66,51.96z"/>
			<path class="st162" d="M119.66,51.96c0.1,0.12,0.11,0.24,0.06,0.38c0,0,0,0,0,0c-0.11,0.25-0.41,0.53-0.75,0.81
				c-0.04,0.04-0.08,0.07-0.12,0.1c-0.01,0.01-0.02,0.02-0.03,0.02c-0.01,0.01-0.01,0.01-0.02,0.02c-0.33,0.3-0.21,0.37-0.8,0.98
				c-0.68,0.7-1.14,0.7-1.27,0.64c-0.11-0.06,0.12-0.42,0.37-0.84c0.13-0.05,0.74-0.29,1.21-0.88c0.41-0.51,0.68-1.18,0.96-1.56
				c0.02,0.01,0.03,0.02,0.05,0.03C119.44,51.76,119.56,51.85,119.66,51.96z"/>
			<path class="st161" d="M109.27,51.08c-0.08,0.4-0.65,0.33-1.28,0.17c-0.63-0.16-0.48,0.03-1.39-0.08
				c-0.9-0.11-1.17-0.44-1.2-0.58c-0.02-0.12,0.42-0.16,0.9-0.21c0.06-0.01,0.12-0.01,0.18-0.02c0.54-0.06,0.94-0.41,1.43-0.69
				c0.47-0.27,1.17-1.37,1.17-1.37l1.24,0.11c0,0-0.66,0.98-0.91,1.41c-0.15,0.25-0.14,0.58-0.13,0.84
				C109.29,50.8,109.3,50.94,109.27,51.08z"/>
			<path class="st162" d="M107.99,51.25c-0.63-0.16-0.48,0.03-1.39-0.08c-0.9-0.11-1.17-0.44-1.2-0.58
				c-0.02-0.12,0.42-0.16,0.9-0.21l0,0.01c0,0,0.54,0.39,1.29,0.41c0.61,0.02,1.26-0.15,1.68-0.14c0.01,0.14,0.02,0.28-0.01,0.42
				C109.19,51.48,108.62,51.41,107.99,51.25z"/>
			<path class="st162" d="M118.26,49.96c0,0-0.09,0.06-0.21,0.13c-0.15,0.08-0.37,0.19-0.56,0.25c-0.21,0.06-0.43,0.07-0.58,0.08
				c-0.13,0-0.22-0.01-0.22-0.01l-1.48-4.08l-0.27-0.74l-0.28-0.78l-0.1-0.27l-0.48-1.33c0,0,1.18-3.02,2.38-1.58
				c0.15,0.18,0.28,0.43,0.41,0.74c0.09,0.21,0.17,0.45,0.25,0.72c0.06,0.2,0.12,0.4,0.17,0.62c0.15,0.59,0.28,1.24,0.4,1.89
				C118.07,47.76,118.26,49.96,118.26,49.96z"/>
			<path class="st163" d="M126.23,43.55l-6.01,0.25c-1.32-0.27-2.43-0.97-3.18-1.34c-0.06-0.03-0.12-0.06-0.18-0.09
				c-0.26-0.13-0.44-0.22-0.51-0.23c-0.46-0.1-0.69,0.65-1.08,1.57c-0.08,0.19-0.16,0.38-0.26,0.57c-0.07,0.14-0.19,0.32-0.37,0.53
				c-0.03,0.04-0.06,0.08-0.1,0.12c-1.33,1.55-4.75,4.45-4.75,4.45s-0.04,0-0.11,0c-0.21,0-0.68-0.02-0.9-0.11
				c-0.13-0.05-0.22-0.1-0.29-0.15c-0.1-0.07-0.14-0.12-0.14-0.12s4.1-8.01,6.22-10.19v0c0.03-0.03,0.06-0.06,0.09-0.09
				c0.23-0.23,0.44-0.38,0.61-0.43c0.72-0.23,5.4,0.03,5.4,0.03l0.15-0.24l0.25-0.02l0.04,0l0.21-0.02h0l0.29-0.02l0.43-0.03
				l1.16-0.08l0.19-0.01l2.14-0.15c0,0,0.1,0.22,0.23,0.58c0.05,0.14,0.11,0.31,0.17,0.49C126.29,39.99,126.79,42.13,126.23,43.55z"
				/>
			<path class="st162" d="M127.59,29.76c-1.07-0.91-1.83-1.14-1.93-2.58c-0.06-0.78-1.11-3.37-2.89-3.15
				c-0.15,0.02-0.3,0.03-0.45,0.03c-0.21-0.01-0.55,0.02-0.9,0.23c-0.86,0.5-2.43,5.14-1.37,6.76c0.19,0.29,0.47,0.49,0.85,0.55
				c0.04,0.03,0.09,0.05,0.14,0.08h0c0.19,0.11,0.4,0.23,0.62,0.35c1.26,0.71,2.9,1.65,3.74,2.12h0c0.05,0.03,0.1,0.06,0.14,0.08
				c0.1,0.05,0.18,0.1,0.25,0.14c0.1,0.05,0.16,0.08,0.16,0.08c0,0,0.22,0.08,0.52,0.15c0.42,0.09,1.02,0.14,1.43-0.13
				c0.16-0.11,0.32-0.24,0.45-0.39C129.21,33.11,129.44,31.33,127.59,29.76z"/>
			<path class="st161" d="M122.3,30.82c-0.01,0,0.82,0.29,1.38,0.05c0.52-0.23,0.92-1.08,0.92-1.08c-0.24-0.01-0.5-0.22-0.69-1.58
				l-0.1,0.04l-1.7,0.6c0,0,0.12,0.55,0.2,1.07C122.36,30.35,122.4,30.76,122.3,30.82z"/>
			<path class="st164" d="M122.1,28.84c0,0,0.07,0.38,0.17,0.93c0.98-0.17,1.39-1,1.53-1.53L122.1,28.84z"/>
			<path class="st161" d="M121.85,29.38c0,0,2.33-0.3,2.12-1.74c-0.21-1.45-0.05-2.46-1.54-2.33c-1.49,0.13-1.7,0.72-1.75,1.22
				C120.63,27.03,121.24,29.42,121.85,29.38z"/>
			<path class="st162" d="M120.77,25.74c0,0,1.48,1.29,2.49,1.4c1.01,0.11,1.4-0.21,1.4-0.21s-0.59-0.5-0.95-1.3
				c-0.1-0.24-0.33-0.4-0.58-0.42C122.4,25.14,121.03,25.1,120.77,25.74z"/>
			<path class="st162" d="M121.7,25.63c0,0-0.5,0.48-0.66,0.83c-0.15,0.34-0.2,1.17-0.09,1.49c0,0-0.76-1.51-0.32-2.24
				C121.1,24.95,121.7,25.63,121.7,25.63z"/>
			<path class="st158" d="M120.32,34.23c0.04,4.7-0.01,3.72,0.5,4.17c0.12,0.11,0.47,0.17,0.93,0.21c1.44,0.11,3.98-0.11,4.08-0.38
				c0.34-0.92,0.11-1.21,0.39-2.62c0.03-0.15,0.07-0.31,0.11-0.49c0.24-0.97,0.47-1.3-0.34-2.86c-0.73-1.42-1.5-2.57-1.57-2.53
				c-1.97,1.15-2.12,0.17-2.12,0.17S120.3,31.94,120.32,34.23z"/>
			<path class="st163" d="M118.26,49.96c0,0-0.09,0.06-0.21,0.13c-0.15,0.08-0.37,0.19-0.56,0.25c-0.21,0.06-0.43,0.07-0.58,0.08
				c-0.13,0-0.22-0.01-0.22-0.01l-1.48-4.08l0.43-0.74l1.11-1.89l0.36-0.62c0.06,0.2,0.12,0.4,0.17,0.62
				c0.15,0.59,0.28,1.24,0.4,1.89C118.07,47.76,118.26,49.96,118.26,49.96z"/>
			<path class="st158" d="M122.3,29.91c0,0-2.02,0.33-2.27,1.2c-0.24,0.87-1.68,5.98-1.68,5.98s1.03,0.19,1.5-0.28
				c0.48-0.47,1.68-4.39,1.68-4.39L122.3,29.91z"/>
			<path class="st165" d="M121.76,38.61c1.44,0.11,3.98-0.11,4.08-0.38c0.34-0.92,0.11-1.21,0.39-2.62l-0.68-1.96
				c0,0,0.1,2.18-0.55,2.75c-0.65,0.57-2.64,1.09-2.96,1.57C121.89,38.2,121.79,38.43,121.76,38.61z"/>
			<path class="st161" d="M123.41,37.71c0,0-1.42-0.33-1.65-0.2c-0.23,0.12-0.79,0.58-0.87,0.74c-0.07,0.16,0.51-0.12,0.7-0.17
				c0.12-0.03,0.44,0.08,0.6,0.14c0.67,0.23,1.08,0.12,1.08,0.12L123.41,37.71z"/>
			<path class="st158" d="M124.42,29.74c0,0,1.91,0.13,2.56,1.06c0.92,1.31,2.73,6.85,1.67,7.58c-1.2,0.82-5.43,0.18-5.43,0.18
				s-0.14-0.66,0.06-0.98c0.2-0.32,3.39-0.81,3.54-0.96c0.15-0.15-1.82-2.88-1.81-3.32C125.01,32.87,124.42,29.74,124.42,29.74z"/>
			<path class="st161" d="M121.69,37.9c0,0-0.3,0.38-0.4,0.43c-0.1,0.05-0.16,0.03-0.16,0.03l0.2-0.36L121.69,37.9z"/>
			<path class="st161" d="M121.76,37.51l-0.87,0.41c0,0,0.04,0.06,0.14,0.06c0.11,0,0.38-0.1,0.38-0.1L121.76,37.51z"/>
		</g>
		<g>
			<g>
				<polygon class="st157" points="121.48,38.73 114.62,38.69 112.59,33.54 119.44,33.59 				"/>
				<polygon class="st166" points="114.54,38.49 123.6,38.55 123.6,38.75 114.62,38.69 				"/>
			</g>
			<path class="st2" d="M116.37,36.13c-0.05-0.18,0.05-0.33,0.24-0.32c0.18,0,0.37,0.15,0.42,0.33c0.05,0.18-0.05,0.33-0.24,0.32
				C116.61,36.46,116.42,36.31,116.37,36.13z"/>
		</g>
	</g>
	<g>
		<g>
			<path class="st163" d="M44.1,114.84h42.98c0.79,0,1.42-0.64,1.42-1.42v-6.57c0-0.79-0.64-1.42-1.42-1.42H44.1
				c-0.79,0-1.42,0.64-1.42,1.42v6.57C42.68,114.2,43.31,114.84,44.1,114.84z"/>
			<path class="st160" d="M68.03,108.88L68,110.93c-0.03,1.82,1.42,3.32,3.24,3.35l24.33,0.39l0.01-0.41
				c-1.36-0.71-2.29-2.15-2.26-3.79l0.01-0.72c0.03-1.64,0.99-3.05,2.38-3.72l0-0.01l-24.33-0.39
				C69.56,105.61,68.06,107.06,68.03,108.88z"/>
			<g>
				<path class="st167" d="M96.2,114.84H70.57c-1.65,0-2.95-2.07-2.95-4.71s1.29-4.71,2.95-4.71H96.2c0.21,0,0.39,0.17,0.39,0.39
					c0,0.21-0.17,0.39-0.39,0.39H70.57c-1.18,0-2.18,1.8-2.18,3.94s1,3.94,2.18,3.94H96.2c0.21,0,0.39,0.17,0.39,0.39
					C96.59,114.66,96.42,114.84,96.2,114.84z"/>
			</g>
			<g>
				<rect x="71.72" y="107.93" class="st168" width="22.04" height="0.06"/>
			</g>
			<g>
				<rect x="85.08" y="108.78" class="st168" width="8.37" height="0.06"/>
			</g>
			<g>
				<rect x="78.85" y="111.71" class="st168" width="14.6" height="0.06"/>
			</g>
		</g>
		<path class="st169" d="M74.46,107.96c0,0,1.13,0.47,1.27,2.07c0.13,1.6,0,2.45,0,2.45l-1.37-0.65l-1.38,0.65v-2.5
			c0,0-0.05-2.02-1.93-2.02H74.46z"/>
	</g>
	<g>
		<g>
			<path class="st170" d="M42.41,105.42h32.05c0.59,0,1.07-0.48,1.07-1.07v-4.94c0-0.59-0.48-1.07-1.07-1.07H42.41
				c-0.59,0-1.07,0.48-1.07,1.07v4.94C41.33,104.94,41.81,105.42,42.41,105.42z"/>
			<path class="st160" d="M60.26,100.94l-0.02,1.55c-0.02,1.37,1.06,2.49,2.42,2.52l18.16,0.29l0-0.31
				c-1.02-0.53-1.71-1.61-1.69-2.85l0.01-0.54c0.02-1.23,0.74-2.29,1.78-2.79l0-0.01L62.75,98.5
				C61.4,98.48,60.28,99.57,60.26,100.94z"/>
			<g>
				<path class="st171" d="M81.28,105.41H62.15c-1.23,0-2.2-1.55-2.2-3.54c0-1.98,0.97-3.54,2.2-3.54h19.13
					c0.16,0,0.29,0.13,0.29,0.29s-0.13,0.29-0.29,0.29H62.15c-0.88,0-1.62,1.36-1.62,2.96c0,1.6,0.74,2.96,1.62,2.96h19.13
					c0.16,0,0.29,0.13,0.29,0.29S81.44,105.41,81.28,105.41z"/>
			</g>
			<g>
				<rect x="65.65" y="100.22" class="st168" width="13.81" height="0.04"/>
			</g>
			<g>
				<rect x="72.98" y="100.87" class="st168" width="6.24" height="0.04"/>
			</g>
			<g>
				<rect x="68.33" y="103.06" class="st168" width="10.89" height="0.04"/>
			</g>
		</g>
	</g>
	<g>
		<g>
			<path class="st161" d="M140.87,92.47c0,0,0.35,1.08,0.32,1.33c-0.03,0.25-0.25,1.09-0.41,1.31s-0.24-0.88-0.36-1.05
				c-0.12-0.17-0.03,0.41-0.11,0.47c-0.09,0.05-0.27-0.43-0.35-0.6c-0.08-0.17,0.19-0.79,0.19-1.23
				C140.15,92.27,140.87,92.47,140.87,92.47z"/>
			<path class="st162" d="M132.6,83.86c-0.1-1.24,1.25-2.09,2.32-1.45c0.02,0.01,0.04,0.03,0.06,0.04c1.6,1.03,5.04,5.82,5.28,6.3
				c0.24,0.48,0.94,4.3,0.94,4.3s-0.86,0.32-1.27-0.01c0,0-1.4-3.62-1.61-3.8c-0.21-0.18-5.61-3.21-5.65-4.35
				C132.65,84.59,132.63,84.23,132.6,83.86z"/>
		</g>
		<g>
			
				<rect x="121.61" y="80.12" transform="matrix(-0.3288 -0.9444 0.9444 -0.3288 83.4909 226.7519)" class="st157" width="1.43" height="7.18"/>
			<polygon class="st172" points="117.36,85.44 119.17,85.56 118.7,84.21 			"/>
			<path class="st172" d="M126.34,81.78l0.33,0.94c0.04,0.12-0.02,0.24-0.14,0.28l-0.58,0.2l-0.47-1.35l0.59-0.21
				C126.18,81.61,126.3,81.67,126.34,81.78z"/>
		</g>
		<g>
			<path class="st173" d="M142.23,111.91c0,0,0.64,0.59,0.52,1c-0.13,0.42-0.71,0.7-0.78,1.21c-0.08,0.51-0.39,0.79-0.67,0.79
				s-1.35,0-1.35,0s-0.21-0.36,0.29-0.47c0.5-0.11,0.69-0.71,0.66-1.26c-0.03-0.56,0.05-1.3,0.05-1.3l1.07-0.25L142.23,111.91z"/>
			<path class="st173" d="M134.34,113.43c0,0,0.12,1.34-0.17,1.48l-3.61-0.01c0,0,0-0.42,0.58-0.51c0.58-0.09,1.6-0.43,1.77-1.19
				C133.08,112.44,134.34,113.43,134.34,113.43z"/>
			<path class="st157" d="M131.29,94.55c0,0,0.19,2.34,0.41,5.16c0.3,3.82,0.67,8.52,0.71,9.41c0.06,1.55,0.31,4.02,0.31,4.02
				s0.6,0.59,1.79,0.34c0,0,1.06-3.53,1.37-7.26c0-0.06,0.01-0.12,0.01-0.18c0.28-3.8,0.72-11.81,0.72-11.81L131.29,94.55z"/>
			<path class="st174" d="M131.29,94.55c0,0,0.19,2.34,0.41,5.16l4.18,6.51c0-0.06,0.01-0.12,0.01-0.18
				c0.28-3.8,0.72-11.81,0.72-11.81L131.29,94.55z"/>
			<path class="st157" d="M132.16,94.83c0,0,3.44,8.48,5.7,12.47c2.26,3.99,2.97,5.1,2.97,5.1s1.29-0.51,1.41-0.86
				c0,0-0.86-7.7-2.38-9.57c-0.86-1.06-1.86-4.24-1.91-5.35c-0.05-1.11-0.31-3.31-0.31-3.31L132.16,94.83z"/>
		</g>
		<path class="st161" d="M135.12,82.11c0,0-2.3,1.17-3.65,0.78c0,0,0.32-0.42,0.89-0.74c-0.05-0.27-0.09-0.5-0.12-0.7
			c-0.07-0.46-0.07-0.71-0.07-0.71l0.88-0.72l0.84-0.69C133.87,81.21,135.12,82.11,135.12,82.11z"/>
		<path class="st163" d="M137.41,93.97c-0.93,0.56-1.81,0.99-2.84,1.22c-1.21,0.29-2.71,0.2-3.21,0.28
			c-0.05,0.01-0.1-0.01-0.15-0.04c-0.04-0.02-0.26-1.5-0.48-3.37c-0.01-0.08-0.02-0.15-0.02-0.23l0-0.03
			c-0.09-0.73-0.16-1.5-0.23-2.27c-0.05-0.6-0.1-1.19-0.13-1.75c-0.04-0.7-0.05-1.34-0.04-1.86c0.01-0.24,0.02-0.46,0.04-0.64
			c0.13-1.09,0.65-1.87,1.14-2.45l0.41-0.46c0.47,0.03,0.95-0.06,1.41-0.36c0.5-0.33,1.04-0.72,1.14-0.66
			c0.76,0.42,1.38,1.53,1.82,2.96c0.25,0.82,0.45,1.75,0.57,2.74c0.04,0.31,0.07,0.62,0.1,0.93c0.01,0.06,0.01,0.12,0.01,0.17
			c0.06,0.86,0.16,1.66,0.27,2.37c0.15,0.97,0.31,1.77,0.43,2.34c0.06,0.29,0.1,0.51,0.13,0.67
			C137.81,93.69,137.53,93.89,137.41,93.97z"/>
		<path class="st175" d="M133.92,80.04c0,0-0.57,1.08-1.68,1.4c-0.07-0.46-0.07-0.71-0.07-0.71l0.88-0.72L133.92,80.04z"/>
		<path class="st161" d="M131.76,80.7c0,0,2.22,0.32,2.41-1.05c0.18-1.37,0.59-2.25-0.82-2.51s-1.76,0.23-1.93,0.67
			C131.24,78.26,131.19,80.59,131.76,80.7z"/>
		<path class="st176" d="M134.92,76.95c0.02-0.02,0.07-0.04,0.17-0.05c0,0-0.08-0.05-0.19-0.05c-0.02-0.14-0.11-0.4-0.35-0.45
			c0,0,0.13,0.07,0.15,0.22c-0.29-0.29-0.91-0.49-2.61-0.32c-2.24,0.22-1.47,1.64-1.18,1.81c0.29,0.17,1.01-0.32,1.56-0.29
			c0.54,0.03,0.66,0.81,0.84,0.91c0.19,0.1,0.11-0.08,0.36-0.2c0.25-0.12,0.28,0.29,0.21,0.56c-0.07,0.27,0.28,0.61,0.28,0.61
			s0,0,0.34-0.38c0.34-0.38,0.63-1.95,0.47-2.29C134.95,77.01,134.94,76.98,134.92,76.95z"/>
		<path class="st162" d="M134.22,86.06c0,0-1.88,1.43-3.86,1.74c-0.04-0.7-0.05-1.34-0.04-1.86L134.22,86.06z"/>
		<g>
			<path class="st161" d="M122.7,84.21c-0.03-0.03-0.41-1.31-1.07-1.22c-0.43,0.06-1.14,0.31-0.95,0.88
				c0.07,0.22,1.39,0.99,1.39,0.99L122.7,84.21z"/>
			<path class="st163" d="M134.45,83.3c1.07,0.64,0.98,2.23-0.16,2.73c-0.02,0.01-0.05,0.02-0.07,0.03c-1.76,0.71-7,0.78-8.19,0.65
				c-1.29-0.14-4.05-1.73-4.05-1.73s0.24-0.89,0.74-1.03c0,0,2.91,0.83,4.03,0.89c0.71,0.04,5.86-2.71,6.82-2.09
				C133.82,82.92,134.13,83.11,134.45,83.3z"/>
		</g>
	</g>
	<g>
		<g>
			<polygon class="st160" points="108.82,108.62 96.9,109.21 96.9,97.29 108.82,96.7 			"/>
			<g>
				<polygon class="st159" points="97.8,107.8 101.32,101.28 103.91,104.68 105.2,103.21 107.94,107.3 				"/>
				<path class="st159" d="M103,100.29c0-0.5,0.41-0.93,0.91-0.96c0.5-0.02,0.91,0.36,0.91,0.87s-0.41,0.93-0.91,0.96
					C103.4,101.18,103,100.79,103,100.29z"/>
			</g>
		</g>
		<g>
			<polygon class="st160" points="144.25,63.03 127.08,63.88 127.08,46.7 144.25,45.86 			"/>
			<g>
				<polygon class="st159" points="128.37,61.85 133.44,52.46 137.17,57.36 139.03,55.23 142.98,61.13 				"/>
				<path class="st159" d="M135.86,51.03c0-0.73,0.59-1.34,1.31-1.38c0.73-0.04,1.31,0.52,1.31,1.25c0,0.73-0.59,1.34-1.31,1.38
					C136.44,52.31,135.86,51.75,135.86,51.03z"/>
			</g>
		</g>
		<g>
			<polygon class="st157" points="113.7,75.99 96.9,76.82 96.9,75.84 113.7,75.02 			"/>
			<polygon class="st160" points="105.9,78.36 96.9,78.8 96.9,78.31 105.9,77.87 			"/>
			<polygon class="st160" points="103.27,80.11 96.9,80.43 96.9,79.94 103.27,79.63 			"/>
			<polygon class="st160" points="110.87,79.74 104.5,80.05 104.5,79.56 110.87,79.25 			"/>
			<polygon class="st160" points="119.53,79.31 111.77,79.7 111.77,79.21 119.53,78.83 			"/>
			<polygon class="st160" points="102.43,81.75 96.9,82.02 96.9,81.53 102.43,81.26 			"/>
			<polygon class="st160" points="109.02,81.43 103.5,81.7 103.5,81.21 109.02,80.94 			"/>
			<polygon class="st160" points="116.55,81.06 109.81,81.39 109.81,80.9 116.55,80.57 			"/>
		</g>
		<g>
			<polygon class="st157" points="113.7,64.95 96.9,65.78 96.9,64.8 113.7,63.98 			"/>
			<polygon class="st160" points="105.9,67.32 96.9,67.76 96.9,67.27 105.9,66.83 			"/>
			<polygon class="st160" points="116.66,66.79 107.65,67.23 107.65,66.74 116.66,66.3 			"/>
			<polygon class="st160" points="103.27,69.07 96.9,69.39 96.9,68.9 103.27,68.59 			"/>
			<polygon class="st160" points="110.87,68.7 104.5,69.01 104.5,68.52 110.87,68.21 			"/>
			<polygon class="st160" points="119.53,68.27 111.77,68.66 111.77,68.17 119.53,67.79 			"/>
			<polygon class="st160" points="102.43,70.71 96.9,70.98 96.9,70.49 102.43,70.22 			"/>
			<polygon class="st160" points="109.02,70.39 103.5,70.66 103.5,70.17 109.02,69.9 			"/>
			<polygon class="st160" points="116.55,70.02 109.81,70.35 109.81,69.86 116.55,69.53 			"/>
		</g>
		<g>
			<polygon class="st157" points="138.79,66.32 126.98,66.9 126.98,66.21 138.79,65.63 			"/>
			<polygon class="st160" points="133.31,67.98 126.98,68.29 126.98,67.94 133.31,67.63 			"/>
			<polygon class="st160" points="140.88,67.61 134.54,67.92 134.54,67.57 140.88,67.26 			"/>
			<polygon class="st160" points="131.46,69.21 126.98,69.43 126.98,69.09 131.46,68.87 			"/>
			<polygon class="st160" points="136.8,68.95 132.33,69.17 132.33,68.83 136.8,68.61 			"/>
			<polygon class="st160" points="142.9,68.65 137.44,68.92 137.44,68.58 142.9,68.31 			"/>
			<polygon class="st160" points="130.87,70.36 126.98,70.56 126.98,70.21 130.87,70.02 			"/>
			<polygon class="st160" points="135.51,70.14 131.62,70.33 131.62,69.98 135.51,69.79 			"/>
			<polygon class="st160" points="140.8,69.88 136.06,70.11 136.06,69.76 140.8,69.53 			"/>
		</g>
		<g>
			<polygon class="st157" points="113.7,87.51 96.9,88.34 96.9,87.36 113.7,86.53 			"/>
			<polygon class="st160" points="105.9,89.87 96.9,90.32 96.9,89.83 105.9,89.38 			"/>
			<polygon class="st160" points="116.66,89.34 107.65,89.79 107.65,89.3 116.66,88.86 			"/>
			<polygon class="st160" points="103.27,91.63 96.9,91.94 96.9,91.45 103.27,91.14 			"/>
			<polygon class="st160" points="110.87,91.26 104.5,91.57 104.5,91.08 110.87,90.77 			"/>
			<polygon class="st160" points="119.53,90.83 111.77,91.21 111.77,90.72 119.53,90.34 			"/>
			<polygon class="st160" points="102.43,93.27 96.9,93.54 96.9,93.05 102.43,92.78 			"/>
			<polygon class="st160" points="109.02,92.94 103.5,93.21 103.5,92.72 109.02,92.45 			"/>
			<polygon class="st160" points="116.55,92.57 109.81,92.9 109.81,92.41 116.55,92.08 			"/>
		</g>
		<g>
			<polygon class="st157" points="124.87,102.85 111.9,103.49 111.9,102.51 124.87,101.87 			"/>
			<polygon class="st160" points="118.85,105.13 111.9,105.47 111.9,104.98 118.85,104.64 			"/>
			<polygon class="st160" points="127.16,104.72 120.2,105.06 120.2,104.57 127.16,104.23 			"/>
			<polygon class="st160" points="116.81,106.85 111.9,107.1 111.9,106.61 116.81,106.37 			"/>
			<polygon class="st160" points="122.68,106.57 117.77,106.81 117.77,106.32 122.68,106.08 			"/>
			<polygon class="st160" points="129.38,106.24 123.39,106.53 123.39,106.04 129.38,105.75 			"/>
			<polygon class="st160" points="116.17,108.48 111.9,108.69 111.9,108.2 116.17,107.99 			"/>
			<polygon class="st160" points="121.26,108.23 116.99,108.44 116.99,107.95 121.26,107.74 			"/>
			<polygon class="st160" points="127.07,107.94 121.87,108.2 121.87,107.71 127.07,107.46 			"/>
		</g>
	</g>
	<g>
		<g>
			<polygon class="st160" points="87.55,68.91 68.84,68.23 68.84,49.51 87.55,50.19 			"/>
			<g>
				<polygon class="st159" points="70.24,66.14 75.77,56.37 79.83,62.07 81.86,59.92 86.17,66.72 				"/>
				<path class="st159" d="M78.4,55.04c0-0.79,0.64-1.41,1.43-1.38c0.79,0.03,1.43,0.69,1.43,1.48s-0.64,1.41-1.43,1.38
					C79.04,56.49,78.4,55.83,78.4,55.04z"/>
			</g>
		</g>
		<g>
			<polygon class="st157" points="85.32,76.29 68.52,75.68 68.52,74.7 85.32,75.31 			"/>
			<polygon class="st160" points="77.52,77.99 68.52,77.66 68.52,77.17 77.52,77.5 			"/>
			<polygon class="st160" points="74.89,79.52 68.52,79.29 68.52,78.8 74.89,79.03 			"/>
			<polygon class="st160" points="82.49,79.79 76.12,79.56 76.12,79.07 82.49,79.3 			"/>
			<polygon class="st160" points="91.15,80.11 83.39,79.83 83.39,79.34 91.15,79.62 			"/>
			<polygon class="st160" points="74.05,81.08 68.52,80.88 68.52,80.39 74.05,80.59 			"/>
			<polygon class="st160" points="80.65,81.32 75.12,81.12 75.12,80.63 80.65,80.83 			"/>
			<polygon class="st160" points="88.17,81.59 81.43,81.35 81.43,80.86 88.17,81.1 			"/>
		</g>
		<g>
			<polygon class="st157" points="85.32,87.8 68.52,87.19 68.52,86.22 85.32,86.83 			"/>
			<polygon class="st160" points="77.52,89.5 68.52,89.17 68.52,88.69 77.52,89.01 			"/>
			<polygon class="st160" points="88.28,89.89 79.27,89.57 79.27,89.08 88.28,89.4 			"/>
			<polygon class="st160" points="74.89,91.03 68.52,90.8 68.52,90.31 74.89,90.54 			"/>
			<polygon class="st160" points="82.49,91.31 76.12,91.08 76.12,90.59 82.49,90.82 			"/>
			<polygon class="st160" points="91.15,91.62 83.39,91.34 83.39,90.85 91.15,91.13 			"/>
			<polygon class="st160" points="74.05,92.6 68.52,92.4 68.52,91.91 74.05,92.11 			"/>
			<polygon class="st160" points="80.65,92.84 75.12,92.64 75.12,92.15 80.65,92.35 			"/>
			<polygon class="st160" points="88.17,93.11 81.43,92.87 81.43,92.38 88.17,92.62 			"/>
		</g>
		<g>
			<polygon class="st157" points="61.45,47.7 44.66,47.09 44.66,46.11 61.45,46.72 			"/>
			<polygon class="st160" points="53.66,49.4 44.66,49.07 44.66,48.58 53.66,48.91 			"/>
			<polygon class="st160" points="64.41,49.79 55.41,49.46 55.41,48.97 64.41,49.3 			"/>
			<polygon class="st160" points="51.02,50.93 44.66,50.7 44.66,50.21 51.02,50.44 			"/>
			<polygon class="st160" points="58.62,51.2 52.26,50.97 52.26,50.48 58.62,50.71 			"/>
			<polygon class="st160" points="67.28,51.52 59.53,51.24 59.53,50.75 67.28,51.03 			"/>
			<polygon class="st160" points="50.18,52.49 44.66,52.29 44.66,51.8 50.18,52 			"/>
			<polygon class="st160" points="56.78,52.73 51.25,52.53 51.25,52.04 56.78,52.24 			"/>
			<polygon class="st160" points="64.3,53 57.57,52.76 57.57,52.27 64.3,52.51 			"/>
		</g>
	</g>
	<g>
		<path class="st177" d="M52.8,27.9l1.47-0.35l4.85,6.58l-1.67,0.4l-1.05-1.47l-3.07,0.73l-0.28,1.79l-1.63,0.39L52.8,27.9z
			 M55.5,31.78l-1.52-2.13l-0.41,2.59L55.5,31.78z"/>
	</g>
	<g>
		<path class="st177" d="M61.06,23.6c0.21-2.11,1.97-3.68,4.26-3.46c1.4,0.14,2.13,0.75,2.76,1.5l-1.09,1.03
			c-0.52-0.58-0.98-0.93-1.83-1.02c-1.25-0.12-2.26,0.83-2.39,2.12c-0.13,1.27,0.65,2.42,1.92,2.55c0.85,0.08,1.4-0.2,2.04-0.68
			l0.93,1.22c-0.85,0.74-1.74,1.1-3.17,0.96C62.31,27.6,60.85,25.75,61.06,23.6z"/>
	</g>
	<g>
		<path class="st177" d="M83.57,21.58L87,21.03c0.84-0.14,1.54-0.01,2.03,0.34c0.39,0.28,0.63,0.67,0.71,1.19
			c0.13,0.83-0.23,1.37-0.71,1.75c0.91,0.19,1.51,0.6,1.68,1.61c0.22,1.35-0.77,2.2-2.43,2.47l-3.51,0.57L83.57,21.58z M87.13,24.07
			c0.72-0.12,1.13-0.42,1.04-0.99c-0.08-0.48-0.5-0.7-1.19-0.59l-1.6,0.26l0.25,1.56L87.13,24.07z M88.04,26.97
			c0.72-0.12,1.11-0.44,1.02-1.01c-0.08-0.49-0.5-0.74-1.33-0.61l-1.87,0.3l0.26,1.62L88.04,26.97z"/>
	</g>
	<g>
		<path class="st177" d="M70.73,33.9c0.18-2.12,1.97-3.71,4.23-3.52c1.34,0.11,2.12,0.54,2.84,1.27l-1.14,1.16
			c-0.53-0.53-1.02-0.85-1.88-0.92c-1.19-0.1-2.23,0.87-2.34,2.16c-0.12,1.36,0.73,2.44,2.05,2.55c0.6,0.05,1.14-0.05,1.58-0.32
			l0.09-1.06l-1.65-0.14l0.12-1.41l3.23,0.27l-0.27,3.23c-0.82,0.58-1.92,1.03-3.28,0.91C72,37.88,70.54,36.12,70.73,33.9z"/>
	</g>
	<g>
		<path class="st177" d="M161.45,41.89c-0.7,0.27-1.49,0.34-2.3,0.17c-2.25-0.48-3.52-2.5-3.07-4.6c0.44-2.08,2.44-3.43,4.69-2.95
			c2.25,0.48,3.52,2.5,3.07,4.6c-0.16,0.76-0.55,1.44-1.09,1.96l0.62,0.8l-1.26,0.92L161.45,41.89z M160.48,40.58l-0.98-1.26
			l1.27-0.93l0.97,1.34c0.2-0.27,0.33-0.59,0.41-0.98c0.26-1.25-0.43-2.49-1.73-2.76c-1.29-0.27-2.41,0.56-2.68,1.83
			c-0.26,1.25,0.43,2.49,1.73,2.76C159.84,40.65,160.18,40.65,160.48,40.58z"/>
	</g>
	<g>
		<path class="st177" d="M144.64,26.12l1.5-0.2l4.08,4.09l-0.62-4.56l1.61-0.22l1,7.4l-1.38,0.19l-4.22-4.22l0.64,4.7l-1.61,0.22
			L144.64,26.12z"/>
	</g>
	<g>
		<path class="st177" d="M95.94,30.04l1.75,0.18l1.02,5.19l2.19-4.88l1.4,0.15l1.14,5.22l2.06-4.87l1.71,0.18l-3.31,7.22l-1.42-0.15
			l-1.17-5.03l-2.18,4.69l-1.42-0.15L95.94,30.04z"/>
	</g>
	<g>
		<path class="st169" d="M19.21,112.69c0,0.09,0.01,0.18,0.02,0.27c0.03,0.28,0.12,0.54,0.25,0.78c0.1,0.18,0.23,0.35,0.37,0.5
			c0.4,0.4,0.94,0.64,1.54,0.64h30.72c1.21,0,2.18-0.98,2.18-2.18c0-0.6-0.24-1.15-0.64-1.54c-0.4-0.4-0.94-0.64-1.54-0.64H21.39
			C20.18,110.5,19.21,111.48,19.21,112.69z"/>
		<path class="st169" d="M21.55,110.11h10.53c0.18,0,0.34-0.15,0.34-0.34l0,0c0-0.18-0.15-0.34-0.34-0.34H21.55
			c-0.18,0-0.34,0.15-0.34,0.34l0,0C21.21,109.96,21.36,110.11,21.55,110.11z"/>
		
			<rect x="22.13" y="110.11" transform="matrix(-1 -1.224647e-16 1.224647e-16 -1 45.4017 220.6083)" class="st178" width="1.14" height="0.4"/>
		<path class="st178" d="M19.47,113.73c0.1,0.18,0.23,0.35,0.37,0.5c0.4,0.4,0.94,0.64,1.54,0.64h6.51v-1.14H19.47z"/>
		<path class="st157" d="M58.36,112.05v1.28c0,0.14-0.02,0.28-0.05,0.41c-0.18,0.66-0.78,1.14-1.49,1.14h-32
			c-0.71,0-1.31-0.48-1.49-1.14c-0.03-0.13-0.05-0.27-0.05-0.41v-1.28c0-0.85,0.69-1.54,1.54-1.54h32
			C57.67,110.5,58.36,111.19,58.36,112.05z"/>
		<path class="st179" d="M58.31,113.73c-0.18,0.66-0.78,1.14-1.49,1.14h-32c-0.71,0-1.31-0.48-1.49-1.14H58.31z"/>
		<g>
			<path class="st155" d="M55.18,112.69c0,0.68,0.25,1.28,0.64,1.69c0.01,0.01,0.02,0.02,0.03,0.03c0.3,0.3,0.68,0.48,1.1,0.48
				c0.65,0,2.25-0.98,3.25-1.63c0.5-0.32,0.84-0.57,0.84-0.57s-0.34-0.24-0.84-0.57c-1-0.65-2.6-1.63-3.25-1.63
				c-0.19,0-0.37,0.04-0.54,0.1c-0.29,0.11-0.54,0.32-0.74,0.58c-0.22,0.29-0.38,0.66-0.44,1.07c0,0,0,0.01,0,0.01
				C55.19,112.41,55.18,112.55,55.18,112.69z"/>
			<path class="st180" d="M55.18,112.69c0,0.68,0.25,1.28,0.64,1.69l4.93-1.69l-5.53-0.41C55.19,112.41,55.18,112.55,55.18,112.69z"
				/>
			<path class="st181" d="M55.66,111.19l4.91,1.34l-4.17-1.93C56.12,110.72,55.86,110.92,55.66,111.19z"/>
			<path class="st157" d="M59.87,112.69c0,0.26,0.13,0.48,0.32,0.57c0.5-0.32,0.84-0.57,0.84-0.57s-0.34-0.24-0.84-0.57
				C60,112.21,59.87,112.43,59.87,112.69z"/>
		</g>
	</g>
	<g>
		<g>
			<path class="st162" d="M45.6,115.01L45.6,115.01c0.22,0,0.45-0.16,0.52-0.36l13.24-40.68c0.06-0.2-0.06-0.36-0.28-0.36l0,0
				c-0.22,0-0.45,0.16-0.52,0.36l-13.24,40.68C45.25,114.85,45.38,115.01,45.6,115.01z"/>
			<path class="st162" d="M34.93,114.95L34.93,114.95c0.22,0,0.45-0.16,0.52-0.36l13.24-40.68c0.06-0.2-0.06-0.36-0.28-0.36l0,0
				c-0.22,0-0.45,0.16-0.52,0.36l-13.24,40.68C34.58,114.79,34.71,114.95,34.93,114.95z"/>
			<path class="st162" d="M46.42,79.59l10.72,0.06c0.21,0,0.43-0.15,0.49-0.34l0,0c0.06-0.19-0.06-0.34-0.26-0.34l-10.72-0.06
				c-0.21,0-0.43,0.15-0.49,0.34l0,0C46.09,79.43,46.21,79.58,46.42,79.59z"/>
			<path class="st162" d="M44.1,86.69l10.72,0.06c0.21,0,0.43-0.15,0.49-0.34l0,0c0.06-0.19-0.06-0.34-0.26-0.34l-10.72-0.06
				c-0.21,0-0.43,0.15-0.49,0.34l0,0C43.78,86.53,43.9,86.69,44.1,86.69z"/>
			<path class="st162" d="M41.88,93.53l10.72,0.06c0.21,0,0.43-0.15,0.49-0.34l0,0c0.06-0.19-0.06-0.34-0.26-0.34L42.1,92.85
				c-0.21,0-0.43,0.15-0.49,0.34l0,0C41.55,93.37,41.67,93.53,41.88,93.53z"/>
			<path class="st162" d="M39.37,101.23l10.72,0.06c0.21,0,0.43-0.15,0.49-0.34l0,0c0.06-0.19-0.06-0.34-0.26-0.34l-10.72-0.06
				c-0.21,0-0.43,0.15-0.49,0.34l0,0C39.05,101.07,39.17,101.23,39.37,101.23z"/>
			<path class="st162" d="M36.75,109.29l10.72,0.06c0.21,0,0.43-0.15,0.49-0.34l0,0c0.06-0.19-0.06-0.34-0.26-0.34l-10.72-0.06
				c-0.21,0-0.43,0.15-0.49,0.34l0,0C36.42,109.13,36.54,109.29,36.75,109.29z"/>
		</g>
		<g>
			<path class="st161" d="M56.57,64.77c0,0,0.13-0.28,0.21-0.42c0.08-0.13,0.43-0.53,0.49-0.44c0.06,0.09,0.3,0.69,0.17,0.86
				c-0.13,0.17,0.01,0.46-0.62,0.64L56.57,64.77z"/>
			<path class="st174" d="M49.56,62.97c0,0,3.23,2.69,4.49,2.45c0.98-0.2,2.49-0.71,2.49-0.71l0.3,0.77c0,0-1.35,1.84-2.77,1.85
				c-2.21,0.02-3.84-0.96-3.84-0.96L49.56,62.97z"/>
			<path class="st182" d="M43.9,91.39c0,0,0.09,1.51,0.39,1.53c0.04,0,1.48,0,1.48,0l1.84-0.01c0,0-0.01-0.44-0.55-0.54
				c-0.54-0.09-1.44-0.47-1.77-1.19C44.95,90.45,43.9,91.39,43.9,91.39z"/>
			<path class="st163" d="M43.79,91.5c0,0,0.56,0.19,1,0.19c0.49,0,0.93-0.13,0.93-0.13s0.11-1.02,0.69-3.27
				c0.3-1.18,0.74-2.69,1.36-4.58c1.71-5.2,2.23-8.25,2.28-8.54c0-0.02,0-0.02,0-0.02l-0.01,0l-5.26-2.31c0,0,0.65,7.17-0.18,9.93
				c-0.12,0.38-0.22,0.83-0.3,1.32C43.78,87.07,43.79,91.5,43.79,91.5z"/>
			<path class="st162" d="M46.41,88.28c0.3-1.18,0.74-2.69,1.36-4.58c1.71-5.2,2.23-8.25,2.28-8.54c0-0.01,0-0.02,0-0.03l-5.26-2.31
				c0,0,0.65,7.17-0.18,9.93C44.49,83.15,46.41,88.28,46.41,88.28z"/>
			<path class="st182" d="M48,91.39c0,0,0.09,1.51,0.39,1.53c0.04,0,1.48,0,1.48,0l1.84-0.01c0,0-0.01-0.44-0.55-0.54
				c-0.54-0.09-1.44-0.47-1.77-1.19C49.05,90.45,48,91.39,48,91.39z"/>
			<path class="st163" d="M50.99,73.01c0,0,0.07,4.65-0.74,10.36c-0.8,5.71-0.53,8.13-0.53,8.13s-0.55,0.18-0.78,0.2
				c-0.57,0.05-1.15-0.13-1.15-0.13s-1.15-5.71-0.82-8.57c0.33-2.86-1.58-9.8-1.58-9.8L50.99,73.01z"/>
			<path class="st161" d="M47.26,62.13l1.03,0.67l0.93-0.26c0.17-0.24,0.22-0.71,0.22-1.12c0-0.4-0.04-0.75-0.04-0.75l-1.38-0.61
				l-0.52-0.23c0,0.01,0.04,0.42,0.05,0.49C47.64,61.39,47.26,62.13,47.26,62.13z"/>
			<path class="st157" d="M51.01,74.3c-1.28,1.23-6.11,1.03-6.41-0.33c-0.3-1.36,0.32-11.57,2.51-12.21
				c0.45-0.13,2.87,0.65,2.87,0.65s0.38,0.99,0.63,2.26c0.05,0.25,0.19,2.86,0.3,5.3c0.05,1.14,0.09,2.25,0.11,3.06
				C51.04,73.77,51.04,74.27,51.01,74.3z"/>
			<path class="st183" d="M47.65,60.33c0.28,0.48,1.27,0.89,1.79,1.08c0-0.4-0.04-0.75-0.04-0.75l-1.38-0.61
				C47.71,60.05,47.52,60.12,47.65,60.33z"/>
			<path class="st161" d="M49.92,60.58c0,0-2.23,0.7-2.64-0.7c-0.41-1.4-0.98-2.25,0.43-2.75c1.41-0.5,1.84-0.05,2.09,0.38
				C50.05,57.95,50.49,60.37,49.92,60.58z"/>
			<path class="st184" d="M49.71,57.38c0,0-0.14,1.62-0.48,1.55c-0.34-0.07-0.71-0.22-0.66,0.27c0.05,0.49-0.33,1.33-0.81,1.33
				c-1.04,0-2.17-2.67-1.88-3.18C46.7,55.89,50.9,55.6,49.71,57.38z"/>
			<path class="st174" d="M49.39,61.79c-0.03-0.01-1.66-0.74-1.85-0.68c-0.19,0.06-0.43,0.65-0.43,0.65l2.87,0.65
				C49.98,62.4,49.75,61.94,49.39,61.79z"/>
			<g>
				<path class="st185" d="M59.55,69.7l-9.15,8.62c-0.18,0.17-0.41,0.22-0.5,0.12l-0.31-0.33c-0.1-0.1-0.03-0.33,0.15-0.49
					l9.15-8.61c0.18-0.17,0.41-0.22,0.5-0.12l0.31,0.33C59.79,69.3,59.73,69.53,59.55,69.7z"/>
				<path class="st169" d="M54.41,74.53l-4.02,3.78c-0.18,0.17-0.41,0.22-0.5,0.12l-0.31-0.33c-0.1-0.1-0.03-0.33,0.15-0.49
					l4.02-3.78L54.41,74.53z"/>
				<path class="st185" d="M57.44,66.44c0.35,1.16,1,2.24,1.95,3.13c2.88,2.71,7.42,2.58,10.14-0.31c2.68-2.85,2.58-7.3-0.2-10.03
					c-0.04-0.04-0.07-0.07-0.11-0.11c-2.88-2.71-7.42-2.58-10.14,0.31C57.26,61.38,56.72,64.07,57.44,66.44z M59.49,59.82
					c1.58-1.68,3.83-2.35,5.94-1.98c1.23,0.21,2.42,0.78,3.39,1.7c2.66,2.5,2.78,6.68,0.28,9.34c-0.92,0.98-2.07,1.61-3.28,1.9
					c-2.09,0.49-4.37-0.04-6.05-1.62C57.12,66.66,56.99,62.48,59.49,59.82z"/>
				<g class="st0">
					<path class="st186" d="M69.12,68.88c-0.92,0.98-2.07,1.61-3.28,1.9c-2.09,0.49-4.37-0.04-6.05-1.62
						c-2.66-2.5-2.78-6.68-0.28-9.34c1.58-1.68,3.83-2.35,5.94-1.98c1.23,0.21,2.42,0.78,3.39,1.7
						C71.49,62.04,71.62,66.22,69.12,68.88z"/>
				</g>
			</g>
			<path class="st174" d="M51.02,73.01c-5.04-3.59-4.62-8.39-4.62-8.39c1.84,1.04,3.67,3.34,4.51,5.33
				C50.95,71.1,50.99,72.21,51.02,73.01z"/>
			<g>
				<path class="st157" d="M55.99,71.38c0.36-0.08,0.59-0.35,0.64-0.4c0,0,0.15,0.01-0.02,0.33c-0.01,0.03-0.05,0.1-0.07,0.15
					c-0.01,0.02,0,0.04,0.03,0.05c0.21,0.02,0.41-0.07,0.81,0.02c0.05,0.01,0.07,0.14,0.07,0.2c0,0.09,0,0.2-0.11,0.34
					c-0.06,0.08-0.24,0.17-0.64,0.33c-0.15,0.06-0.58,0.01-0.99-0.12l-0.32-0.15l0.1-0.6l0.08,0.02
					C55.7,71.57,55.86,71.41,55.99,71.38z"/>
				<path class="st157" d="M47.96,62.4c0,0-4.53,0.86,1.33,7.42c0.94,1.05,6,2.42,6,2.42s0.51-0.44,0.25-0.79
					c0,0-3.49-2.53-4.26-2.94c-0.35-0.18-1.34-4.04-1.9-4.97C48.83,62.61,47.96,62.4,47.96,62.4z"/>
			</g>
			<path class="st161" d="M56.69,64.85c0,0,0.15-0.28,0.18-0.43c0.03-0.15,0.22-0.59,0.29-0.66c0.03-0.03,0.13,0.01,0.14,0.14
				c0.01,0.06-0.02,0.16-0.07,0.29c-0.08,0.2-0.07,0.48-0.1,0.57C57.06,64.98,56.69,64.85,56.69,64.85z"/>
		</g>
	</g>
	<path class="st187" d="M183.12,115.56L1.32,115.5c-0.14,0-0.25-0.11-0.25-0.25l0-0.19c0-0.14,0.11-0.25,0.25-0.25l181.8,0.06
		c0.14,0,0.25,0.11,0.25,0.25v0.19C183.37,115.45,183.26,115.56,183.12,115.56z"/>
</g>
</svg>
