<?xml version="1.0" encoding="utf-8"?>
<!-- Generator: Adobe Illustrator 25.0.0, SVG Export Plug-In . SVG Version: 6.00 Build 0)  -->
<svg version="1.1" id="Capa_1" xmlns="http://www.w3.org/2000/svg" xmlns:xlink="http://www.w3.org/1999/xlink" x="0px" y="0px"
	 width="97.78px" height="99.91px" viewBox="0 0 97.78 99.91" style="enable-background:new 0 0 97.78 99.91;" xml:space="preserve"
	>
<style type="text/css">
	.st0{fill:#36A9E1;stroke:#F39200;stroke-width:2;stroke-miterlimit:10;}
	.st1{fill:none;stroke:#312783;stroke-miterlimit:10;}
	.st2{fill:none;stroke:#312783;stroke-linecap:round;stroke-linejoin:round;stroke-dasharray:3.9392,3.9392;}
	.st3{fill:none;stroke:#E94E1B;stroke-linecap:round;stroke-linejoin:round;stroke-dasharray:1.0025,2.0049;}
	.st4{fill-rule:evenodd;clip-rule:evenodd;fill:none;stroke:#312783;stroke-miterlimit:22.9256;}
	.st5{fill-rule:evenodd;clip-rule:evenodd;fill:#312783;stroke:#312783;stroke-width:0.5669;stroke-miterlimit:22.9256;}
	.st6{fill-rule:evenodd;clip-rule:evenodd;fill:none;stroke:#EF7D00;stroke-width:2;stroke-miterlimit:22.9256;}
	.st7{fill-rule:evenodd;clip-rule:evenodd;fill:#EF7D00;}
	.st8{fill:#312783;}
	.st9{fill-rule:evenodd;clip-rule:evenodd;fill:url(#SVGID_1_);}
	.st10{fill-rule:evenodd;clip-rule:evenodd;fill:url(#SVGID_2_);}
	.st11{fill-rule:evenodd;clip-rule:evenodd;fill:url(#SVGID_3_);}
	.st12{fill-rule:evenodd;clip-rule:evenodd;fill:url(#SVGID_4_);}
	.st13{fill:url(#SVGID_5_);}
	.st14{fill:url(#SVGID_6_);}
	.st15{filter:url(#Adobe_OpacityMaskFilter);}
	.st16{fill:url(#SVGID_8_);}
	.st17{opacity:0.5;mask:url(#SVGID_7_);fill:#E1ECF5;}
	.st18{opacity:0.6;fill:#FFFFFF;}
	.st19{opacity:0.5;}
	.st20{fill:#FFFFFF;}
	.st21{fill:url(#SVGID_9_);}
	.st22{fill:url(#SVGID_10_);}
	.st23{fill:url(#SVGID_11_);}
	.st24{fill:url(#SVGID_12_);}
	.st25{fill:url(#SVGID_13_);}
	.st26{fill:url(#SVGID_14_);}
	.st27{fill:url(#SVGID_15_);}
	.st28{fill:url(#SVGID_16_);}
	.st29{fill:url(#SVGID_17_);}
	.st30{fill:url(#SVGID_18_);}
	.st31{fill-rule:evenodd;clip-rule:evenodd;fill:url(#SVGID_19_);}
	.st32{fill-rule:evenodd;clip-rule:evenodd;fill:url(#SVGID_20_);}
	.st33{fill-rule:evenodd;clip-rule:evenodd;fill:url(#SVGID_21_);}
	.st34{fill-rule:evenodd;clip-rule:evenodd;fill:url(#SVGID_22_);}
	.st35{fill:url(#SVGID_23_);}
	.st36{fill:url(#SVGID_24_);}
	.st37{filter:url(#Adobe_OpacityMaskFilter_1_);}
	.st38{fill:url(#SVGID_26_);}
	.st39{opacity:0.5;mask:url(#SVGID_25_);fill:#E1ECF5;}
	.st40{fill:url(#SVGID_27_);}
	.st41{fill:url(#SVGID_28_);}
	.st42{fill:url(#SVGID_29_);}
	.st43{fill:url(#SVGID_30_);}
	.st44{fill:url(#SVGID_31_);}
	.st45{fill:url(#SVGID_32_);}
	.st46{fill:url(#SVGID_33_);}
	.st47{fill:url(#SVGID_34_);}
	.st48{fill:url(#SVGID_35_);}
	.st49{fill:url(#SVGID_36_);}
	.st50{fill:#EF7D00;}
	.st51{fill-rule:evenodd;clip-rule:evenodd;fill:none;stroke:#EF7D00;stroke-width:1.4173;stroke-miterlimit:22.9256;}
</style>
<g>
	<path class="st0" d="M78.27,50.28c0,16.27-13.19,29.47-29.47,29.47c-16.27,0-29.47-13.19-29.47-29.47
		c0-16.27,13.19-29.47,29.47-29.47C65.08,20.82,78.27,34.01,78.27,50.28z"/>
	<path class="st1" d="M82.23,50.24c0,18.46-14.97,33.43-33.43,33.43c-18.46,0-33.43-14.97-33.43-33.43
		c0-18.46,14.97-33.43,33.43-33.43C67.27,16.81,82.23,31.78,82.23,50.24z"/>
	<g>
		
			<ellipse transform="matrix(0.981 -0.1941 0.1941 0.981 -8.8271 10.3815)" class="st2" cx="48.57" cy="50.24" rx="41.39" ry="41.39"/>
	</g>
	<g>
		<path class="st3" d="M93.95,50.24c0,24.86-20.15,45-45,45c-24.85,0-45-20.15-45-45s20.15-45,45-45
			C73.8,5.24,93.95,25.39,93.95,50.24z"/>
	</g>
	<g>
		<line class="st4" x1="48.95" y1="71.28" x2="48.95" y2="82.25"/>
		<polygon class="st5" points="48.93,87.25 49.76,83.64 50.59,80.03 48.93,80.03 47.28,80.03 48.11,83.64 		"/>
	</g>
	<g>
		<line class="st4" x1="48.95" y1="29.11" x2="48.95" y2="18.14"/>
		<polygon class="st5" points="48.93,13.14 49.76,16.75 50.59,20.36 48.93,20.36 47.28,20.36 48.11,16.75 		"/>
	</g>
	<g>
		<g>
			<line class="st4" x1="27.67" y1="50.21" x2="16.71" y2="50.21"/>
			<polygon class="st5" points="11.71,50.2 15.32,51.02 18.93,51.85 18.93,50.2 18.93,48.54 15.32,49.37 			"/>
		</g>
		<g>
			<line class="st4" x1="69.85" y1="50.21" x2="80.81" y2="50.21"/>
			<polygon class="st5" points="85.82,50.2 82.21,51.02 78.6,51.85 78.6,50.2 78.6,48.54 82.21,49.37 			"/>
		</g>
	</g>
	<g>
		<line class="st6" x1="70.19" y1="29.89" x2="80.49" y2="19.59"/>
		<polygon class="st7" points="79.08,15.95 79.06,21.11 84.22,21.1 89.35,10.83 		"/>
	</g>
	<g>
		<line class="st6" x1="27.79" y1="29.64" x2="17.49" y2="19.34"/>
		<polygon class="st7" points="13.85,20.75 19.02,20.77 19,15.61 8.73,10.49 		"/>
	</g>
	<g>
		<line class="st6" x1="69.58" y1="71.34" x2="79.88" y2="81.64"/>
		<polygon class="st7" points="78.47,85.28 78.45,80.11 83.61,80.14 88.73,90.4 		"/>
	</g>
	<g>
		<line class="st6" x1="17.85" y1="81.64" x2="28.15" y2="71.34"/>
		<polygon class="st7" points="14.21,80.23 19.38,80.21 19.36,85.37 9.09,90.5 		"/>
	</g>
	<g>
		<path class="st8" d="M91.14,88.94c0.11,0.09,0.18,0.33,0.22,0.73c0.03,0.39,0.02,0.83-0.05,1.31c0.1,0.15,0.29,0.4,0.58,0.76
			c0.45,0.57,0.74,1,0.88,1.29c0.14,0.29,0.23,0.66,0.27,1.1c0.11,1.28-0.2,2.37-0.92,3.28c-0.21,0.26-0.43,0.46-0.68,0.58
			c0.13,0.28,0.27,0.49,0.43,0.61c0.2,0.16,0.44,0.24,0.72,0.24c0.03,0,0.05,0,0.07,0.02c0.02,0.02,0.02,0.03,0,0.06
			c-0.04,0.05-0.16,0.05-0.36,0c-0.2-0.05-0.36-0.13-0.48-0.23c-0.18-0.15-0.34-0.37-0.46-0.66c-0.64,0.29-1.27,0.19-1.89-0.3
			c-0.4-0.31-0.7-0.74-0.9-1.29c-0.2-0.54-0.3-1.15-0.27-1.83c0.03-0.86,0.26-1.55,0.68-2.08c0.23-0.29,0.49-0.45,0.79-0.49
			c0.3-0.04,0.58,0.05,0.86,0.27c0.15,0.12,0.28,0.26,0.41,0.43c0.04-0.53,0.09-0.98,0.14-1.38c-0.23-0.46-0.38-0.92-0.44-1.39
			s-0.02-0.79,0.13-0.98C90.96,88.88,91.05,88.86,91.14,88.94z M90.56,92.36c-0.25-0.19-0.51-0.27-0.78-0.24
			c-0.27,0.04-0.51,0.18-0.71,0.44c-0.5,0.63-0.66,1.5-0.47,2.61c0.19,1.11,0.63,1.94,1.33,2.5c0.46,0.37,0.92,0.46,1.39,0.27
			c-0.14-0.37-0.24-0.82-0.32-1.37c-0.26,0.05-0.48,0-0.66-0.15c-0.14-0.11-0.22-0.25-0.25-0.42c-0.03-0.17,0.01-0.32,0.11-0.44
			c0.12-0.16,0.26-0.18,0.4-0.06c0.07,0.06,0.12,0.14,0.12,0.24c0.01,0.1-0.02,0.19-0.08,0.27c-0.09,0.11-0.19,0.13-0.3,0.04
			c-0.04-0.03-0.06-0.07-0.08-0.12c-0.02-0.03-0.04-0.05-0.04-0.06c-0.01-0.01-0.03-0.01-0.04,0c-0.03,0.04-0.02,0.11,0.03,0.22
			c0.05,0.11,0.12,0.2,0.2,0.26c0.15,0.12,0.35,0.16,0.58,0.12c-0.12-0.87-0.11-2.07,0.04-3.61C90.86,92.65,90.71,92.48,90.56,92.36
			z M91.24,91.48c-0.04,0.41-0.09,0.87-0.12,1.37c0.37,0.55,0.59,1.17,0.66,1.85c0.07,0.69-0.04,1.21-0.33,1.56
			c-0.08,0.11-0.21,0.2-0.37,0.29c0.06,0.48,0.17,0.94,0.33,1.36c0.24-0.12,0.46-0.31,0.65-0.55c0.35-0.44,0.56-0.97,0.64-1.57
			c0.08-0.61,0.01-1.24-0.19-1.89c-0.1-0.3-0.2-0.56-0.31-0.78c-0.11-0.22-0.34-0.61-0.69-1.18C91.41,91.8,91.33,91.65,91.24,91.48z
			 M91.09,92.99l-0.03,0.36c-0.09,1.37-0.09,2.41,0,3.12c0.13-0.06,0.24-0.14,0.33-0.25c0.26-0.33,0.36-0.81,0.3-1.44
			C91.64,94.14,91.44,93.54,91.09,92.99z M91.09,89.01c-0.06-0.04-0.11-0.04-0.16,0.03c-0.12,0.16-0.16,0.42-0.09,0.78
			c0.06,0.37,0.2,0.72,0.4,1.05c0.06-0.46,0.07-0.87,0.04-1.22C91.25,89.3,91.19,89.09,91.09,89.01z"/>
	</g>
	<g>
		<path class="st8" d="M94.05,2.84c0.15,0.13,0.11,0.33-0.12,0.62c-0.19,0.22-0.73,0.66-1.64,1.33c-0.1,0.58,0.01,1.01,0.35,1.29
			c0.16,0.14,0.32,0.17,0.48,0.11c0.12-0.17,0.22-0.3,0.29-0.39c0.2-0.24,0.33-0.33,0.39-0.29c0.04,0.03,0,0.11-0.1,0.23
			c-0.13,0.16-0.3,0.32-0.51,0.47C93,6.5,92.85,6.88,92.73,7.35c-0.31,1.2-0.13,2.08,0.52,2.62c0.43,0.36,0.9,0.36,1.41-0.01
			c-0.21-0.03-0.41-0.12-0.59-0.28C93.62,9.3,93.4,8.73,93.4,7.95c0.01-0.78,0.24-1.44,0.7-1.99c0.21-0.25,0.44-0.4,0.69-0.45
			c0.25-0.05,0.48,0.02,0.69,0.19c0.45,0.37,0.64,0.96,0.59,1.75c-0.05,0.79-0.34,1.49-0.85,2.11c-0.1,0.12-0.21,0.23-0.31,0.33
			c0.48,0.03,0.9-0.18,1.27-0.61c0.22-0.27,0.37-0.52,0.43-0.76l0.03-0.05c0.02-0.01,0.03-0.01,0.04,0c0.03,0.03,0,0.14-0.11,0.34
			c-0.11,0.2-0.22,0.37-0.34,0.51c-0.4,0.48-0.88,0.7-1.44,0.67c-0.37,0.29-0.73,0.45-1.08,0.49c-0.35,0.04-0.65-0.04-0.9-0.25
			c-0.33-0.28-0.53-0.68-0.59-1.19c-0.06-0.52,0.03-1.07,0.26-1.65c0.14-0.35,0.34-0.73,0.6-1.12c-0.32,0.16-0.6,0.15-0.83-0.05
			c-0.3-0.25-0.4-0.65-0.29-1.19c-0.57,0.42-1.01,0.81-1.29,1.16c-0.57,0.68-0.88,1.4-0.94,2.16c-0.06,0.76,0.15,1.34,0.63,1.75
			c0.22,0.18,0.45,0.27,0.71,0.27c0.26,0,0.46-0.09,0.61-0.26c0.1-0.12,0.13-0.2,0.09-0.23c-0.02-0.02-0.05,0-0.07,0.05
			c-0.1,0.12-0.21,0.14-0.32,0.04c-0.06-0.05-0.1-0.13-0.1-0.22c0-0.09,0.03-0.18,0.09-0.25c0.12-0.15,0.26-0.16,0.4-0.04
			c0.09,0.08,0.14,0.19,0.13,0.33c0,0.14-0.06,0.27-0.16,0.39c-0.18,0.21-0.43,0.31-0.74,0.31c-0.32-0.01-0.61-0.13-0.88-0.35
			c-0.41-0.34-0.63-0.83-0.67-1.46c-0.05-0.76,0.24-1.52,0.87-2.27c0.35-0.42,0.91-0.91,1.67-1.47c0.11-0.44,0.34-0.88,0.69-1.3
			c0.26-0.31,0.53-0.54,0.79-0.69C93.73,2.76,93.93,2.74,94.05,2.84z M95.39,5.74c-0.17-0.14-0.36-0.19-0.57-0.15
			c-0.22,0.04-0.41,0.16-0.58,0.36c-0.41,0.49-0.61,1.15-0.6,1.96c0.02,0.81,0.24,1.4,0.66,1.75c0.12,0.1,0.28,0.17,0.47,0.2
			c0.14-0.11,0.25-0.22,0.35-0.34c0.45-0.54,0.71-1.23,0.77-2.06C95.95,6.64,95.79,6.07,95.39,5.74z M93.98,2.91
			c-0.09-0.08-0.25-0.05-0.47,0.09c-0.23,0.13-0.44,0.32-0.65,0.57c-0.28,0.34-0.47,0.71-0.55,1.11c0.71-0.44,1.23-0.87,1.58-1.29
			C94.07,3.16,94.1,3,93.98,2.91z"/>
	</g>
	<g>
		<path class="st8" d="M6.05,89.05c0.45,0.07,0.89,0.27,1.32,0.6c0.43,0.33,0.79,0.75,1.1,1.26c0.3,0.49,0.51,1,0.65,1.53
			c0.14,0.53,0.17,1,0.1,1.41c-0.09,0.54-0.34,0.96-0.76,1.23c-0.42,0.28-0.93,0.37-1.52,0.28c-0.54-0.09-1.07-0.34-1.58-0.77
			c-0.51-0.43-0.92-0.96-1.24-1.6c-0.23-0.45-0.4-0.95-0.5-1.49c-0.1-0.54-0.12-1.01-0.05-1.42c0.07-0.41,0.22-0.72,0.45-0.93
			c0.24-0.21,0.52-0.29,0.85-0.24c0.14,0.02,0.29,0.07,0.47,0.15C5.58,89.01,5.82,89.01,6.05,89.05z M4.86,88.98
			c-0.3-0.05-0.56,0.02-0.77,0.2c-0.21,0.18-0.35,0.44-0.4,0.78c-0.11,0.68,0.01,1.4,0.35,2.17c0.33,0.73,0.8,1.37,1.41,1.9
			c0.63,0.56,1.29,0.89,1.98,1c0.44,0.07,0.81,0,1.13-0.22c0.32-0.21,0.51-0.53,0.57-0.93c0.13-0.83-0.16-1.73-0.88-2.7
			c-0.72-0.97-1.53-1.58-2.45-1.82c0.16,0.13,0.34,0.34,0.54,0.64c0.2,0.3,0.29,0.49,0.28,0.58c0,0.02-0.02,0.04-0.04,0.03
			c-0.01,0-0.03-0.03-0.05-0.08c-0.19-0.52-0.49-0.92-0.89-1.21c-0.37-0.06-0.68,0-0.93,0.18c-0.25,0.18-0.41,0.46-0.47,0.82
			C4.13,91.03,4.38,91.79,5,92.63c0.62,0.84,1.27,1.31,1.97,1.42c0.28,0.04,0.51,0.02,0.71-0.09c0.19-0.1,0.31-0.26,0.34-0.47
			c0.02-0.1,0-0.21-0.04-0.32C7.93,93.06,7.88,93,7.82,92.99c-0.02,0-0.03,0-0.03,0.01l0.01,0.04c0.03,0.04,0.04,0.1,0.03,0.18
			c-0.02,0.14-0.11,0.2-0.28,0.17c-0.1-0.02-0.18-0.06-0.24-0.14c-0.06-0.08-0.08-0.17-0.06-0.26c0.03-0.19,0.15-0.27,0.36-0.23
			c0.16,0.03,0.28,0.12,0.38,0.27c0.09,0.15,0.13,0.32,0.1,0.5c-0.04,0.25-0.18,0.45-0.41,0.59c-0.24,0.14-0.51,0.18-0.82,0.13
			c-0.72-0.12-1.38-0.61-1.97-1.47c-0.6-0.87-0.83-1.67-0.71-2.43c0.05-0.32,0.17-0.6,0.37-0.83c0.19-0.23,0.42-0.37,0.68-0.42
			C5.1,89.04,4.98,89,4.86,88.98z"/>
	</g>
	<g>
		<path class="st8" d="M7.96,1.19c0.21,0.13,0.3,0.22,0.28,0.27C8.22,1.48,8.21,1.48,8.2,1.47c-0.03-0.02-0.07-0.05-0.12-0.1
			c-0.05-0.05-0.1-0.08-0.13-0.1C7.59,1.06,7.23,1,6.85,1.11C6.47,1.22,6.16,1.47,5.92,1.85C5.44,2.62,5.46,3.7,5.98,5.09
			C6.13,5.53,6.59,6.46,7.33,7.9c0.22,0.42,0.39,0.81,0.53,1.2C8,9.48,8.04,9.7,8,9.77C7.98,9.81,7.94,9.82,7.91,9.79
			C7.86,9.76,7.84,9.68,7.86,9.53C7.89,9.24,7.7,8.96,7.29,8.71c-0.08-0.05-0.21-0.13-0.4-0.23C6.42,8.22,6.02,7.99,5.69,7.79
			c-0.55-0.34-0.96-0.67-1.25-1C4.16,6.47,3.95,6.1,3.84,5.69c0-0.01-0.01-0.02-0.02-0.03C3.76,5.73,3.81,6,3.98,6.48
			C4.06,6.73,4.17,6.97,4.28,7.2C4.4,7.43,4.74,8.05,5.31,9.05c0.48,0.86,0.75,1.69,0.82,2.48c0.06,0.79-0.09,1.48-0.45,2.06
			c-0.21,0.33-0.45,0.56-0.73,0.68c-0.28,0.12-0.54,0.11-0.77-0.03c-0.13-0.08-0.22-0.19-0.26-0.32c-0.04-0.13-0.03-0.26,0.04-0.37
			c0.1-0.16,0.23-0.2,0.4-0.1c0.08,0.05,0.14,0.12,0.16,0.21c0.03,0.09,0.02,0.17-0.03,0.25c-0.08,0.12-0.19,0.14-0.32,0.06
			c-0.05-0.03-0.08-0.04-0.1-0.02c-0.02,0.04,0.03,0.1,0.17,0.19c0.21,0.13,0.44,0.14,0.7,0.02c0.26-0.12,0.48-0.33,0.67-0.64
			c0.37-0.59,0.48-1.27,0.35-2.06c-0.13-0.78-0.54-1.84-1.23-3.17C4.17,7.23,3.85,6.45,3.77,5.96C3.71,5.62,3.7,5.42,3.74,5.36
			c0.01-0.01,0.02-0.01,0.03-0.01c0,0,0.02,0.03,0.04,0.09c0.12,0.29,0.28,0.54,0.5,0.73c0.22,0.19,0.72,0.54,1.5,1.05
			c0.96,0.62,1.57,1.17,1.86,1.65c0,0.01,0,0.01,0.01,0.02l0.01,0c0.03-0.05-0.37-0.83-1.2-2.34C5.88,5.44,5.53,4.51,5.42,3.76
			C5.31,3.01,5.43,2.35,5.78,1.78c0.25-0.41,0.58-0.66,1-0.78C7.19,0.89,7.58,0.95,7.96,1.19z M3.91,7.13
			C3.96,7.16,4.03,7.3,4.1,7.55c0.11,0.37,0.1,0.66-0.02,0.86C3.99,8.55,3.87,8.64,3.7,8.67c-0.16,0.03-0.32,0-0.47-0.09
			C3.09,8.49,2.95,8.33,2.81,8.1C2.63,7.81,2.5,7.63,2.39,7.57C2.26,7.49,2.12,7.49,1.97,7.56C1.81,7.63,1.67,7.77,1.55,7.96
			C1.2,8.53,1.1,9.2,1.24,9.99c0.15,0.78,0.48,1.33,1,1.65c0.27,0.17,0.54,0.22,0.81,0.16c0.27-0.06,0.49-0.22,0.65-0.47
			c0.14-0.23,0.22-0.5,0.24-0.82c0.01-0.32-0.04-0.61-0.15-0.88c-0.01-0.02-0.01-0.03,0-0.03C3.78,9.57,3.8,9.57,3.82,9.58
			c0.05,0.03,0.1,0.17,0.14,0.43c0.09,0.52,0.02,0.98-0.22,1.37c-0.17,0.27-0.4,0.44-0.68,0.5c-0.29,0.06-0.57,0-0.85-0.17
			c-0.55-0.34-0.9-0.91-1.05-1.71c-0.15-0.8-0.03-1.5,0.34-2.1C1.66,7.66,1.84,7.5,2.05,7.44C2.26,7.37,2.48,7.41,2.7,7.54
			c0.16,0.1,0.36,0.34,0.59,0.7C3.37,8.38,3.45,8.46,3.52,8.5C3.71,8.62,3.87,8.58,4,8.37c0.08-0.12,0.1-0.3,0.08-0.53
			C4.05,7.61,3.98,7.4,3.87,7.2C3.85,7.17,3.85,7.15,3.86,7.14C3.87,7.12,3.88,7.11,3.91,7.13z"/>
	</g>
	<radialGradient id="SVGID_1_" cx="84.2039" cy="15.9724" r="5.1423" gradientUnits="userSpaceOnUse">
		<stop  offset="0" style="stop-color:#FFFFFF;stop-opacity:0.87"/>
		<stop  offset="1" style="stop-color:#010202;stop-opacity:0"/>
	</radialGradient>
	<polygon class="st9" points="89.35,10.83 79.06,21.11 84.22,21.1 	"/>
	
		<radialGradient id="SVGID_2_" cx="-1022.8635" cy="-628.9548" r="5.1427" gradientTransform="matrix(0 1 -1 0 -545.363 1108.121)" gradientUnits="userSpaceOnUse">
		<stop  offset="0" style="stop-color:#FFFFFF;stop-opacity:0.87"/>
		<stop  offset="1" style="stop-color:#010202;stop-opacity:0"/>
	</radialGradient>
	<polygon class="st10" points="88.73,90.4 78.45,80.11 78.47,85.28 	"/>
	
		<radialGradient id="SVGID_3_" cx="-1852.4388" cy="693.814" r="5.1424" gradientTransform="matrix(-1 0 0 -1 -1838.2056 779.1672)" gradientUnits="userSpaceOnUse">
		<stop  offset="0" style="stop-color:#FFFFFF;stop-opacity:0.87"/>
		<stop  offset="1" style="stop-color:#010202;stop-opacity:0"/>
	</radialGradient>
	<polygon class="st11" points="9.09,90.5 19.38,80.21 14.21,80.23 	"/>
	
		<radialGradient id="SVGID_4_" cx="-802.513" cy="1798.5491" r="5.1423" gradientTransform="matrix(0 -1 1 0 -1784.6737 -786.8843)" gradientUnits="userSpaceOnUse">
		<stop  offset="0" style="stop-color:#FFFFFF;stop-opacity:0.87"/>
		<stop  offset="1" style="stop-color:#010202;stop-opacity:0"/>
	</radialGradient>
	<polygon class="st12" points="8.73,10.49 19.02,20.77 19,15.61 	"/>
	<g>
		<g id="globe">
			<g>
				<radialGradient id="SVGID_5_" cx="49.0328" cy="47.2312" r="24.3464" gradientUnits="userSpaceOnUse">
					<stop  offset="0" style="stop-color:#2CAAE1"/>
					<stop  offset="0.1003" style="stop-color:#2BA6DD"/>
					<stop  offset="0.2242" style="stop-color:#279CD2"/>
					<stop  offset="0.3607" style="stop-color:#228AC0"/>
					<stop  offset="0.5061" style="stop-color:#2273A7"/>
					<stop  offset="0.6587" style="stop-color:#24578A"/>
					<stop  offset="0.8151" style="stop-color:#24396D"/>
					<stop  offset="0.8342" style="stop-color:#233569"/>
					<stop  offset="0.8523" style="stop-color:#243B6E"/>
					<stop  offset="0.8839" style="stop-color:#254A7E"/>
					<stop  offset="0.9253" style="stop-color:#22669A"/>
					<stop  offset="0.9743" style="stop-color:#2391C6"/>
					<stop  offset="1" style="stop-color:#2CAAE1"/>
				</radialGradient>
				<path class="st13" d="M69.47,50.24c0,11.62-9.42,21.04-21.04,21.04c-11.62,0-21.04-9.42-21.04-21.04S36.8,29.2,48.42,29.2
					C60.05,29.2,69.47,38.62,69.47,50.24z"/>
				<radialGradient id="SVGID_6_" cx="47.8703" cy="45.2646" r="24.6756" gradientUnits="userSpaceOnUse">
					<stop  offset="0" style="stop-color:#2CAAE1"/>
					<stop  offset="0.2174" style="stop-color:#35ABE2"/>
					<stop  offset="0.3793" style="stop-color:#4AAFE2"/>
					<stop  offset="0.5232" style="stop-color:#65B6E4"/>
					<stop  offset="0.6566" style="stop-color:#84BFE5"/>
					<stop  offset="0.7828" style="stop-color:#A5CBE7"/>
					<stop  offset="0.902" style="stop-color:#C8DAE8"/>
					<stop  offset="1" style="stop-color:#E6E7E9"/>
				</radialGradient>
				<path class="st14" d="M68.57,56.02c-0.28,0.01-0.64,0.14-0.65,0.23c0,0.1-0.39,0.27-0.51,0.32c-0.13,0.05-0.37,0.44-0.43,0.57
					c-0.05,0.13-0.37,0.09-0.48,0.14c-0.11,0.05-0.35,0.24-0.35,0.36c0,0.11-0.07,0.1-0.14-0.03c0,0,0,0-0.15,0.16
					c-0.18,0.2-0.18,0.2-0.18,0.2c-0.1,0.33-0.45,0.73-0.57,0.77c-0.12,0.03-0.14,0.6-0.14,0.83c0,0.23,0.09,0.51,0.2,0.63
					c0,0,0,0,0.02,0.18c0.04,0.36,0.04,0.36,0.04,0.36c-0.06,0.28,0.15,0.53,0.21,0.58c0.06,0.05,0.58-0.1,0.78-0.14
					c0.08-0.02,0.19-0.07,0.28-0.11c0.93-1.56,1.66-3.25,2.17-5.04C68.64,56.02,68.61,56.02,68.57,56.02z M33.76,56.56
					c-0.03,0.06,0.35,0.44,0.49,0.58c0.15,0.13,0.46,0.76,0.52,0.97c0.06,0.21,0.03,0.55,0.01,0.63c-0.02,0.08,0.07,0.25,0.09,0.33
					c0.01,0.07-0.13,0.69-0.08,0.94c0.05,0.25-0.29,1.03-0.28,1.41c0.01,0.39,0.18,0.89,0.25,0.85c0.07-0.04,0.1,0.35-0.02,0.4
					c-0.12,0.05-0.25,0.35-0.19,0.37c0.07,0.02,0,0.32,0.01,0.44c0.02,0.12,0.12,0.92,0.14,1.12c0.02,0.2,0.31,0.69,0.37,0.85
					c0.06,0.17,0.12,0.48,0.14,0.53c0.02,0.05,0.05,0.1,0.06,0.1c0.01,0,0.24,0.09,0.3,0.14c0.07,0.05,0.52,0.02,0.67-0.01
					c0.15-0.03,0.01-0.17-0.05-0.24c-0.07-0.08-0.13-0.43-0.2-0.47c-0.08-0.04-0.11-0.49-0.04-0.59c0.07-0.1,0.34-0.26,0.37-0.35
					c0.03-0.08,0.04-0.48-0.04-0.53c-0.07-0.06,0.02-0.53-0.03-0.77c-0.05-0.24,0.41-0.46,0.44-0.64c0.03-0.19,0.53-0.39,0.65-0.49
					c0.11-0.1,0.21-0.64,0.16-0.75c-0.06-0.12,0.19-0.21,0.3-0.21c0.11,0,0.23-0.08,0.27-0.08c0.04,0,0.17-0.24,0.24-0.29
					c0.07-0.06,0.21-0.63,0.34-0.72c0.13-0.09,0.23-0.44,0.23-0.54c0-0.1,0.19-0.4,0.26-0.49c0.06-0.09,0.54-0.31,0.62-0.34
					c0.08-0.04,0.21-0.79,0.25-1.07c0.03-0.27,0.17-0.64,0.19-0.73c0.01-0.09,0.16-0.17,0.19-0.2c0.03-0.03,0.14-0.38,0.21-0.46
					c0.07-0.08,0.33-0.41,0.34-0.49c0.01-0.07,0.05-0.26,0.09-0.42c0,0,0,0,0-0.18c0-0.3,0-0.3,0-0.3c-0.08-0.23-0.34-0.52-0.4-0.45
					c-0.07,0.06-0.36-0.2-0.51-0.26c-0.15-0.05-0.52-0.1-0.62-0.1c-0.09,0-0.42-0.27-0.57-0.31c-0.15-0.04-0.52-0.12-0.59-0.16
					c-0.07-0.04-0.16-0.6-0.46-0.78c-0.3-0.18-0.83-0.6-0.88-0.76c-0.06-0.15-0.63-0.48-0.81-0.58c-0.18-0.1-0.45-0.12-0.48-0.09
					c-0.04,0.03-0.26-0.3-0.37-0.4c-0.12-0.09-0.46-0.17-0.48-0.09c-0.02,0.09-0.24,0.04-0.3-0.03c-0.05-0.07-0.23,0.03-0.31,0.06
					c-0.08,0.03-0.37,0.46-0.5,0.57c-0.13,0.1-0.29-0.1-0.38-0.14c-0.09-0.04-0.42,0.07-0.51,0.13c-0.09,0.06-0.3-0.46-0.25-0.71
					c0.05-0.24-0.22-0.73-0.42-0.74c-0.2-0.01-0.27-0.52-0.23-0.71c0.04-0.19-0.37-0.3-0.47-0.32c-0.1-0.01-0.36,0.25-0.4,0.38
					c-0.04,0.12-0.98-0.17-0.87-0.73c0.11-0.56,0.55-1.14,0.66-1.21c0.11-0.07,0.71-0.1,0.84-0.03c0.13,0.08,0.25,0,0.28-0.04
					c0.02-0.03,0.51,0.01,0.66,0.07c0.14,0.06,0.35,0.62,0.51,0.69c0.15,0.07,0.21-0.36,0.23-0.47c0.03-0.11-0.07-0.38-0.11-0.45
					c-0.04-0.07,0.24-0.76,0.47-0.88c0.23-0.12,0.47-0.5,0.45-0.57c-0.02-0.07,0.18-0.12,0.24-0.15c0.06-0.03-0.01-0.58,0.08-0.7
					c0.09-0.12,0.52-0.37,0.66-0.43c0.14-0.06,0.24-0.41,0.19-0.47c-0.05-0.06,0.35-0.4,0.56-0.47c0.21-0.06,0.39,0.12,0.34,0.15
					c0.04-0.02,0.33-0.17,0.45-0.25c0.14-0.09,0-0.35-0.09-0.43c-0.09-0.07-0.04-0.38,0.07-0.4c0.11-0.03,0.21-0.29,0.18-0.34
					c-0.03-0.06,0.46,0.05,0.64-0.09c0.18-0.14,0.05,0.33-0.08,0.52c-0.13,0.19,0.1,0.37,0.19,0.33c0.09-0.04,0.18,0.1,0.2,0.15
					c0.02,0.05,0.2-0.05,0.33,0c0.12,0.05,0.2-0.17,0.21-0.27c0.01-0.1-0.29-0.31-0.34-0.44c-0.05-0.12-0.07-0.84-0.07-0.98
					c-0.01-0.15-0.2-0.38-0.27-0.34c-0.06,0.04-0.19-0.38-0.29-0.47c-0.1-0.09-0.12-0.29-0.12-0.36c0-0.07-0.35-0.43-0.43-0.6
					c-0.08-0.17-0.2-0.13-0.21-0.06c-0.01,0.08-0.25,0.09-0.35,0.08c-0.1-0.01-0.18-0.39-0.18-0.54c0-0.14-0.45-0.17-0.53-0.29
					c-0.07-0.12-0.37-0.06-0.42-0.14c-0.05-0.08-0.31-0.16-0.36-0.13c-0.05,0.03-0.03,1.08-0.08,1.36
					c-0.05,0.28-0.29,0.53-0.38,0.52c-0.09-0.01-0.03,0.2,0.03,0.18c0.06-0.02-0.17,0.31-0.2,0.52c-0.03,0.21-0.25-0.01-0.28-0.2
					c-0.04-0.19-0.25-0.46-0.29-0.39c-0.04,0.07-0.19-0.08-0.25-0.04c-0.06,0.04-0.47-0.23-0.63-0.32
					c-0.16-0.09-0.25-0.59-0.35-0.63c-0.09-0.04-0.02-0.1-0.02-0.18c0-0.08,0.31-0.37,0.41-0.48c0.1-0.12,0.44-0.57,0.58-0.67
					c0.14-0.1,0.25-0.36,0.22-0.41c-0.02-0.05,0.59-0.24,0.76-0.3c0.17-0.06,0.31-0.52,0.33-0.66c0.02-0.13-0.1-0.39-0.18-0.42
					c-0.08-0.03,0.23-0.04,0.33,0.01c0.1,0.05,0.42-0.09,0.55-0.03c0.12,0.07,0.38,0.22,0.56,0.33c0,0,0,0-0.04,0.34
					c-0.07,0.58-0.07,0.58-0.07,0.58c-0.48,0.2-0.62,0.55-0.46,0.54c0.17-0.01,0.95,0.33,1.16,0.49c0.22,0.16,0.29-0.23,0.35-0.36
					c0.07-0.12,0.04-0.5-0.01-0.57c-0.05-0.07,0.25-0.05,0.34,0.03c0.09,0.08,0.19-0.08,0.25-0.11c0.07-0.03,0.1-0.35,0.13-0.41
					c0.03-0.07-0.15-0.13-0.15-0.21c-0.01-0.08-0.35-0.23-0.47-0.29c-0.11-0.05-0.14-0.29-0.08-0.34c0.06-0.04-0.04-0.35-0.09-0.45
					c-0.05-0.1-0.42-0.18-0.54-0.18c-0.12,0-0.25-0.28-0.32-0.32c-0.07-0.04-0.54-0.09-0.65-0.06c-0.12,0.03-0.33-0.33-0.52-0.22
					c-0.19,0.11-0.4-0.13-0.48-0.18c-0.09-0.05-0.54,0.44-0.54,0.79c0.01,0.35,0.18,0.68,0.25,0.69c0.07,0.01-0.02,0.32-0.1,0.41
					c-0.08,0.09-0.27-0.09-0.2-0.17c0.07-0.08-0.2-0.44-0.29-0.58c-0.07-0.11-0.3-0.2-0.46-0.26c-0.09,0.1-0.19,0.21-0.28,0.31
					c0.04,0.12,0.08,0.29,0.04,0.41c-0.07,0.21-0.24,0.24-0.25,0.15c0-0.04-0.09-0.07-0.2-0.08c-2.55,3.06-4.25,6.86-4.74,11.02
					c0.1,0.12,0.22,0.25,0.25,0.35c0.06,0.19,0.38,0.31,0.44,0.34c0.06,0.04,0.08-0.35,0.04-0.46c-0.04-0.1,0.08-0.16,0.08-0.09
					c0,0.07,0.3,0.42,0.4,0.54c0.1,0.12,0.21,0.93,0.3,1.1c0.1,0.17,1.02,0.53,1.32,0.59c0.3,0.06,0.67,0.4,0.73,0.49
					c0.06,0.1,0.45,0.15,0.54,0.18c0.09,0.04,0.29,0.31,0.37,0.36c0.08,0.06,0.15,0.22,0.15,0.26c0,0.04,0.52,0.24,0.65,0.38
					c0.13,0.14,0.34,0.1,0.38,0.04c0.04-0.06,0.14,0.28,0.2,0.39c0.05,0.12,0.07,0.4,0.02,0.45c-0.04,0.04-0.12,0.57-0.21,0.68
					c-0.09,0.11-0.27,0.87-0.23,1.02c0.04,0.15,0.29,0.46,0.39,0.51c0.1,0.05,0.06,0.21-0.02,0.22c-0.08,0.01-0.04,0.74,0.15,0.85
					C33.63,56.18,33.79,56.5,33.76,56.56z M36.24,43.72L36.24,43.72C36.24,43.72,36.24,43.72,36.24,43.72z M34.8,34.83
					c0.25-0.04,0.67-0.11,0.7-0.18c0.02-0.06,0.02-0.23-0.02-0.29c0.04,0,0.09,0,0.12,0c0.1,0,0.26-0.52,0.36-0.65
					c0.1-0.12,0.68-0.3,0.82-0.39c0.14-0.08,0.44-0.37,0.55-0.41c0.12-0.04,0.28-0.3,0.26-0.36c-0.02-0.05,0.39-0.31,0.55-0.37
					c0.16-0.07,0.24-0.25,0.18-0.26c-0.04-0.01-0.92,0.45-1.73,0.91c-0.92,0.62-1.78,1.32-2.59,2.08
					C34.25,34.9,34.64,34.86,34.8,34.83z M50.05,61.07c0.27-0.16,0.73-0.84,0.88-0.98c0.15-0.14,0.26-0.66,0.29-0.77
					c0.03-0.11,0.26-0.29,0.35-0.32c0.08-0.02,0.36-1.16,0.6-1.41c0.24-0.25,0.52-1.45,0.49-1.88c-0.03-0.43,0.15-1.25,0.21-1.45
					c0.06-0.2,0.36-0.55,0.45-0.62c0.09-0.07,0.67-0.93,0.86-1.24c0.19-0.31,0.36-0.98,0.33-1.14c-0.04-0.16-0.44-0.27-0.51-0.19
					c-0.07,0.08-0.46,0.14-0.58,0.14c-0.12,0-0.4-0.65-0.57-0.78c-0.17-0.13-0.33-0.88-0.43-1.02c-0.1-0.14-0.38-0.5-0.46-0.58
					c-0.09-0.08-0.1-0.48-0.12-0.58c-0.02-0.11,0.17,0.07,0.2,0.23c0.03,0.16,0.48,0.79,0.62,1.01c0.14,0.21,0.5,0.89,0.6,1.11
					c0.09,0.21,0.9,0.11,1.17-0.02c0.26-0.13,0.59-0.34,0.6-0.41c0.01-0.07,0.43-0.27,0.55-0.36c0.12-0.09,0.22-0.58,0.3-0.66
					c0.08-0.08-0.06-0.54-0.15-0.68c-0.09-0.14-0.51-0.25-0.59-0.2c-0.09,0.05-0.27-0.31-0.33-0.45c-0.06-0.13-0.39-0.3-0.42-0.39
					c-0.03-0.09,0.09-0.24,0.14-0.27c0.05-0.03,0.64,0.38,0.82,0.59c0.17,0.21,0.36,0.59,0.4,0.65c0.03,0.06,0.5,0.1,0.6,0.02
					c0.1-0.08,0.22-0.06,0.27,0.04c0,0,0,0,0.15-0.03c0.51-0.08,0.51-0.08,0.51-0.08c0.24,0.26,0.31,0.49,0.31,0.54
					c0,0.05,0.15,0.26,0.25,0.29c0.1,0.02,0.17,0.36,0.2,0.44c0.03,0.08,0.32,0.59,0.38,0.8c0.06,0.21,0.31,0.62,0.37,0.74
					c0.06,0.11,0.11,0.43,0.11,0.52c0,0.09,0.19,0.26,0.3,0.25c0.12-0.01,0.35-0.74,0.41-1.02c0.05-0.27,0.24-0.5,0.3-0.5
					c0.05,0,0.1-0.15,0.1-0.21c0-0.06,0.3-0.05,0.32-0.13c0.03-0.07,0.11-0.56,0.22-0.63c0.11-0.07,0.48-0.32,0.62-0.37
					c0.13-0.05,0.47,0.25,0.54,0.38c0.08,0.13,0.14,0.48,0.11,0.54c-0.03,0.06,0.18,0.36,0.36,0.35c0.18,0,0.24,0.23,0.24,0.31
					c0.01,0.08,0.24,0.33,0.29,0.43c0.05,0.11,0.03,0.4,0,0.47c-0.03,0.07-0.01,0.45,0.02,0.56c0.03,0.11,0.59,0.67,0.79,0.84
					c0.21,0.17,0.31-0.34,0.2-0.51c-0.11-0.16-0.47-0.54-0.55-0.65c-0.09-0.11-0.1-0.56-0.07-0.69c0.03-0.13,0.32,0.07,0.43,0.16
					c0.12,0.09,0.27,0.29,0.28,0.36c0,0.07,0.75-0.35,0.77-0.8c0.03-0.45,0.27-0.96,0.3-1.08c0.02-0.12-0.07-0.28-0.14-0.29
					c-0.06-0.01,0.11-0.34,0.32-0.34c0.21,0.01,0.71-0.55,0.83-0.77c0.12-0.22,0.36-0.4,0.38-0.43c0.03-0.03,0.2-0.55,0.22-0.77
					c0.03-0.22-0.12-0.55-0.14-0.67c-0.02-0.11-0.2-0.37-0.24-0.45c-0.04-0.08-0.09-0.38-0.06-0.44c0.03-0.06,0.21-0.12,0.23-0.17
					c0.02-0.05,0.23-0.28,0.22-0.38c-0.02-0.1,0.13,0.13,0.23,0.21c0.1,0.08,0.2,0.62,0.33,0.68c0.12,0.06,0.61-0.57,0.55-0.98
					c-0.06-0.41,0.14-0.92,0.26-0.97c0.09-0.04,0.32-0.36,0.48-0.6c-1.08-3.13-2.88-5.92-5.19-8.18c-0.03,0-0.05,0-0.08,0
					c-0.18-0.04-0.18-0.04-0.18-0.04c-0.3-0.06-0.48-0.39-0.43-0.46c0.02-0.02,0.01-0.08,0-0.14c-0.17-0.15-0.34-0.3-0.52-0.45
					c-0.14,0-0.29,0-0.38,0c-0.18-0.01-0.57-0.14-0.64-0.21c-0.07-0.07-0.31,0.06-0.32,0.19c-0.02,0.13-0.43,0.19-0.47,0.29
					c-0.04,0.1-0.25,0.11-0.29,0.05c-0.04-0.05-0.42,0.13-0.61,0.16c-0.19,0.03-0.54,0.18-0.63,0.22c-0.08,0.04-0.29,0.23-0.32,0.32
					c-0.03,0.08-0.28,0.22-0.35,0.25c-0.08,0.03-0.06,0.39,0.04,0.44c0.1,0.05-0.19-0.04-0.32-0.11c-0.13-0.06-0.27,0.15-0.31,0.23
					c-0.04,0.07-0.16-0.04-0.15-0.15c0-0.11-0.32-0.19-0.36-0.11c-0.04,0.08-0.26-0.03-0.36-0.08c-0.09-0.05-0.49,0.37-0.64,0.51
					c-0.15,0.15-0.85,0.26-0.98,0.21c-0.13-0.05-0.26,0.31-0.15,0.34c0.11,0.02-0.29-0.02-0.5,0c-0.22,0.02-0.85,0.28-1.01,0.39
					c-0.15,0.11-0.27-0.03-0.27-0.11c0-0.09-0.24-0.17-0.31-0.19c-0.07-0.02-0.21,0.48-0.34,0.57c-0.13,0.1-0.28-0.39-0.57-0.47
					c-0.3-0.08-0.76-0.37-0.89-0.4c-0.13-0.04-0.4-0.31-0.47-0.39c-0.08-0.08-0.45-0.15-0.58-0.15c-0.12,0-0.51,0.23-0.62,0.31
					c-0.11,0.09-0.27,0.07-0.32,0.1c-0.05,0.03-0.5,0.47-0.67,0.6c-0.17,0.14-0.47,0.72-0.57,0.86c-0.1,0.14-0.24,0.17-0.3,0.17
					c-0.06,0-0.1,0.16-0.1,0.22c0,0.06-0.51,0.32-0.56,0.56c-0.05,0.23,0.05,0.76,0.05,0.95c0,0.19,0.19,0.56,0.33,0.57
					c0.14,0.01,0.07,0.32,0.03,0.41c-0.04,0.09,0.09,0.18,0.09,0.26c0,0.07-0.36,0.18-0.47,0.22c-0.11,0.04-0.29,0.29-0.31,0.38
					c-0.02,0.08-0.36,0.14-0.47,0.25c0.03-0.08,0.07-0.18,0.1-0.25c0.06-0.12-0.03-0.34-0.08-0.38c-0.05-0.04-0.08-0.66-0.16-0.79
					c-0.09-0.13-0.3-0.35-0.35-0.4c-0.05-0.04,0.04-0.2,0.07-0.27c0.03-0.07-0.29-0.11-0.37-0.06c-0.09,0.05-0.13,0.66-0.17,0.82
					c-0.04,0.16,0.16,0.42,0.21,0.43c0.05,0.01,0.04,0.31-0.07,0.32c-0.11,0.01-0.21,0.45-0.16,0.55c0.06,0.1-0.08,0.29-0.15,0.34
					c-0.07,0.04,0.43,0.02,0.65,0.01c0.22,0,0.4,0.09,0.38,0.11c-0.02,0.02-0.43,0.08-0.5,0.18c-0.07,0.1-0.35,0.28-0.4,0.36
					c-0.05,0.07,0.09,0.24,0.21,0.23c0.12-0.01,0.25,0.4,0.34,0.48c0.09,0.08,0.06,0.29,0.02,0.35c-0.04,0.06-0.59-0.04-0.8,0.01
					c-0.21,0.05-0.47,0.49-0.49,0.66c-0.02,0.17,0.03,0.65,0.06,0.78c0.03,0.13,0.46,0.21,0.55,0.28c0.09,0.06,0.51,0,0.6,0.04
					c0.08,0.04,0.37-0.42,0.42-0.64c0.05-0.22,0.5-0.61,0.59-0.76c0.09-0.15,0.57-0.13,0.69-0.21c0.12-0.08,0.05,0.37,0.11,0.61
					c0.06,0.24,0.52,0.21,0.45-0.02c-0.07-0.23,0.05-0.33,0.06-0.24c0.02,0.08,0.46,0.26,0.54,0.39c0.08,0.13,0.06,0.4-0.04,0.4
					c-0.1,0-0.1,0.3,0,0.33c0.1,0.03,0.24-0.34,0.35-0.39c0.11-0.06,0.2-0.29,0.15-0.3c-0.05-0.02,0.1-0.23,0.16-0.16
					c0.06,0.07-0.24-0.45-0.42-0.64c-0.19-0.19-0.06-0.1,0.3,0.19c0,0,0,0,0.24,0.34c0.05,0.06,0.11,0.25,0.15,0.31
					c0.06,0.1,0.06,0.1,0.06,0.1c0.05,0.12,0.09,0.44,0.09,0.53c0,0.09,0.19,0.26,0.31,0.25c0.12-0.01,0.2,0.05,0.18,0.06
					c-0.02,0,0.08,0.23,0.19,0.23c0.11,0.01,0.16-0.29,0.05-0.3c-0.11-0.01-0.1-0.43-0.11-0.62c-0.01-0.19,0.08-0.34,0.12-0.34
					c0.04,0-0.01,0.38,0,0.47c0,0.09,0.05,0.26,0.1,0.38c0,0,0,0,0.12,0.09c0.27,0.2,0.27,0.2,0.27,0.2
					c0.38-0.11,0.89-0.03,0.87,0.05c-0.02,0.08,0.28,0.1,0.3-0.03c0.02-0.12,0.03,0,0.03,0.09c0,0.09-0.25,0.43-0.29,0.58
					c-0.04,0.16-0.92,0.05-1.3,0.02c-0.38-0.03-0.94,0.1-0.98,0.21c-0.04,0.11-0.63-0.26-0.9-0.37c-0.27-0.12-0.48-0.53-0.54-0.58
					c-0.06-0.06,0.05-0.19,0.02-0.27c-0.03-0.08-0.65-0.1-0.83-0.03c-0.18,0.07-1.11,0.16-1.33,0.26c-0.22,0.1-0.55-0.01-0.65-0.02
					c-0.1-0.02-0.35,0.29-0.47,0.34c-0.13,0.05-0.28,0.48-0.35,0.96c0,0,0,0-0.17,0.33c-0.11,0.21-0.11,0.21-0.11,0.21
					c-0.31,0.23-0.65,1.01-0.75,1.17c-0.1,0.16-0.18,1.28-0.18,1.65c0,0.38,0.33,1.17,0.42,1.4c0.09,0.22,0.66,0.71,0.85,0.82
					c0.19,0.11,0.81,0.13,1.01,0.13c0.2,0,0.43-0.19,0.51-0.43c0,0,0,0,0.3,0.03c0.14,0.01,0.14,0.01,0.14,0.01
					c0.01,0.17,0.45,0.3,0.55,0.36c0.11,0.06,0.4,0.02,0.48-0.01c0.09-0.02,0.18,0.75,0.12,0.97c-0.06,0.22,0.15,1.01,0.22,1.25
					c0.06,0.24,0.33,0.88,0.36,1.11c0.02,0.23-0.16,1-0.19,1.27c-0.03,0.27,0.34,1.03,0.44,1.29c0.09,0.26,0.17,0.82,0.17,0.95
					c0,0.13,0.4,0.91,0.49,1.23C48.77,61.15,49.78,61.22,50.05,61.07z M67.43,51.49c0.03,0.06,0.28-0.14,0.43-0.17
					c0.15-0.02,0.25-0.43,0.13-0.46c-0.12-0.04-0.27-0.35-0.36-0.38c-0.09-0.04-0.25,0.13-0.25,0.26c0.01,0.12-0.28,0.17-0.33,0.28
					c-0.05,0.1-0.05,0.18,0.01,0.17C67.12,51.18,67.4,51.44,67.43,51.49z M67.12,53.71c0.08-0.03-0.01-0.43-0.17-0.46
					c-0.16-0.03-0.59,0.53-0.51,0.86c0.08,0.32,0.18,0.3,0.22,0.24c0.04-0.07,0.31,0.04,0.38,0.07c0.08,0.02,0.08-0.05,0-0.17
					C66.97,54.11,67.04,53.74,67.12,53.71z M66.26,53.32c0.02-0.14,0.05-0.59,0.07-0.68c0.02-0.09-0.25-0.35-0.38-0.39
					c-0.13-0.05-0.56,0.88-0.86,1.04c-0.31,0.17-0.42,0.73-0.34,0.86c0.08,0.13,0.72,0.2,0.83,0.3c0.11,0.1,0.23-0.02,0.3-0.03
					c0.07-0.02,0.05-0.06,0.02-0.08c-0.03-0.02,0.22-0.28,0.26-0.44C66.19,53.71,66.24,53.46,66.26,53.32z M64.52,54.85
					c-0.24-0.09-0.52,0.05-0.54,0.14c-0.02,0.09,0.92,0.24,1.23,0.33c0.31,0.08,0.51,0.11,0.44,0.06
					C65.58,55.33,64.76,54.94,64.52,54.85z M66.44,48.72c0.08-0.1-0.11-0.6-0.2-0.48c-0.09,0.11-0.02,0.4,0,0.5
					C66.27,48.83,66.36,48.82,66.44,48.72z M67.01,49.78c0.05-0.13-0.07-0.27-0.27-0.31c-0.2-0.04-0.17,0.57-0.08,0.65
					C66.74,50.19,66.95,49.91,67.01,49.78z M68.07,53.58c0.24,0.17,0.79,0.09,0.81-0.24C68.63,53.18,68.05,53.21,68.07,53.58z
					 M67.94,46.06c-0.1,0.07-0.16,0.25-0.12,0.32c-0.01,0-0.03,0-0.04,0c-0.08,0-0.09,0.32,0,0.38c0.08,0.06,0.29-0.25,0.4-0.32
					c0.11-0.07,0.32-0.12,0.36-0.09c0.03,0.02,0.22-0.03,0.42-0.13c0.04-0.02,0.08-0.07,0.12-0.14c-0.05-0.24-0.1-0.47-0.16-0.7
					c-0.1,0.08-0.22,0.16-0.27,0.2C68.52,45.67,68.07,45.96,67.94,46.06z M62.36,52.53C62.36,52.53,62.37,52.53,62.36,52.53
					C62.32,52.5,62.32,52.49,62.36,52.53z M63.88,53.94c-0.09-0.2-0.38-0.54-0.65-0.75c0,0,0,0-0.1-0.17
					c-0.11-0.18-0.11-0.18-0.11-0.18c-0.1-0.2-0.4-0.36-0.43-0.42c-0.03-0.06-0.12,0.17-0.22,0.11c0.05,0.04,0.17,0.12,0.32,0.23
					c0.28,0.2,0.83,1.58,0.95,1.67C63.77,54.53,63.97,54.14,63.88,53.94z M59.53,51.72c-0.08,0.16,0.4,0.48,0.44,0.41
					c0.04-0.08-0.06-0.46-0.15-0.54C59.74,51.51,59.61,51.57,59.53,51.72z M53.16,59.06c0.02,0.16,0.35,0.29,0.44,0.27
					c0.1-0.03,0.37-0.52,0.4-0.66c0.04-0.14,0.07-0.45,0.07-0.52c0-0.07,0.04-0.24,0.08-0.26c0.04-0.02,0.1-0.19,0.13-0.37
					c0.04-0.19-0.2-1.05-0.21-1.2c-0.01-0.15-0.18,0.08-0.22,0.23c-0.05,0.15-0.48,0.47-0.57,0.6c-0.09,0.13-0.2,0.57-0.16,0.65
					c0.04,0.08-0.04,0.38-0.08,0.46C53.01,58.33,53.14,58.89,53.16,59.06z M37.62,65.05c0.1,0,0.19,0,0.29,0
					C37.96,64.74,37.6,64.79,37.62,65.05z M45.34,32.43c-0.12,0.02-0.44-0.05-0.49-0.11c-0.05-0.06-0.53-0.11-0.66-0.05
					c-0.14,0.06-0.04-0.33,0.15-0.37c0.19-0.04,0.03-0.31-0.17-0.31c-0.2,0-0.7-0.07-0.82-0.05c-0.12,0.03-0.35-0.08-0.43-0.09
					c-0.08-0.01-0.68,0.18-0.96,0.16c-0.28-0.01-0.98,0.02-1.13,0.06c-0.15,0.04-0.26,0.33-0.24,0.44c0.02,0.11-0.67,0.1-0.89,0.11
					c-0.22,0-1.38,0.25-1.68,0.42c-0.3,0.17-0.54,0.59-0.44,0.6c0.1,0.01-0.17,0.25-0.33,0.31c-0.16,0.06-0.55,0.08-0.64,0.17
					c-0.09,0.09,0.1,0.15,0.13,0.22c0.04,0.06,0.14-0.05,0.25,0.01c0.1,0.06,0.44,0.09,0.53,0.12c0.09,0.04-0.29,0.11-0.46,0.12
					c-0.18,0.01-0.14,0.36,0.01,0.41c0.15,0.05,0.52,0.1,0.56,0.04c0.04-0.06,0.44,0.06,0.63,0.09c0.18,0.02,0.32,0.48,0.38,0.58
					c0.06,0.1,0.07,0.45,0.05,0.55c-0.01,0.1,0.32,0.28,0.38,0.22c0.06-0.06,0.04,0.16-0.09,0.14c-0.13-0.01-0.05,0.38,0.12,0.43
					c0.16,0.05,0.05,0.29-0.04,0.37c-0.1,0.07-0.04,0.3-0.14,0.38c-0.1,0.08,0.35,0.85,0.34,1.25c0,0.39,0.24,0.72,0.34,0.72
					c0.1,0,0.42,0.08,0.46,0.16c0.04,0.08,0.2-0.06,0.26-0.12c0.06-0.06,0.19-0.25,0.29-0.42c0.1-0.17,0.32-0.96,0.35-1.05
					c0.03-0.09,0.4-0.03,0.49-0.07c0.08-0.04,0.33-0.24,0.4-0.29c0.07-0.06,0.6-0.28,0.75-0.39c0.14-0.1,0.39-0.55,0.5-0.65
					c0.11-0.1-0.06-0.07-0.2-0.16c-0.14-0.09-0.08-0.21-0.04-0.25c0.04-0.04,0.47,0.07,0.62,0.13c0.15,0.06,0.43-0.14,0.32-0.22
					c-0.11-0.08-0.05-0.08,0-0.04c0.05,0.03,0.11-0.26,0.05-0.31c-0.06-0.06,0.43-0.41,0.35-0.75c-0.09-0.34,0.13-0.68,0.27-0.69
					c0.13,0,0.09-0.38-0.06-0.42c-0.16-0.03-0.01-0.07,0.05-0.12c0.06-0.05,0.13-0.39,0.1-0.45c-0.04-0.07,0.24-0.14,0.29-0.21
					c0.05-0.08,0.36-0.23,0.48-0.25C45.4,32.72,45.46,32.42,45.34,32.43z M48.09,32.71c-0.15-0.05-0.46,0.12-0.42,0.21
					c0.04,0.1-0.25-0.12-0.45-0.02c-0.2,0.1-0.26,0.46-0.16,0.5c0.09,0.05,0.16,0.33,0.16,0.38c0,0.06,0.39,0.02,0.49-0.07
					c0.1-0.08,0.08,0.28-0.01,0.38c-0.1,0.1,0.04,0.3,0.14,0.31c0.11,0.02,0.25,0.27,0.37,0.27c0.11,0,0.3-0.43,0.34-0.59
					c0.04-0.16,0.41-0.03,0.58,0.02c0.17,0.05,0.23-0.59,0.05-0.68c-0.18-0.09-0.41-0.05-0.49-0.12c-0.08-0.07-0.2-0.14-0.29-0.15
					C48.32,33.14,48.24,32.76,48.09,32.71z M49.56,33.01c0.3,0.04,0.63-0.2,0.7-0.27c0.07-0.07-0.82-0.25-1.17-0.26
					c-0.34-0.01-0.62,0.04-0.61,0.1C48.49,32.65,49.26,32.97,49.56,33.01z M44.14,41.06c-0.08-0.03-0.12,0.26-0.1,0.37
					c0.02,0.11,0.29,0.1,0.41,0.08c0.12-0.02,0.21-0.11,0.2-0.21c-0.01-0.1-0.17-0.54-0.24-0.54
					C44.34,40.77,44.22,41.09,44.14,41.06z M45.02,37.64c-0.06-0.11-0.53-0.1-0.64-0.1c-0.11-0.01-0.46-0.12-0.53-0.2
					c-0.06-0.07-0.12,0.29-0.22,0.34c-0.11,0.05,0.05,0.11,0.1,0.08c0.04-0.04,0,0.19-0.05,0.26c-0.05,0.08,0.31,0.13,0.35,0.25
					c0.04,0.12,0.19,0.19,0.33,0.17c0.14-0.02,0.42-0.17,0.52-0.18C44.97,38.24,45.08,37.74,45.02,37.64z M54.81,34.96
					c0.16-0.16,0.82-0.38,0.89-0.54c0.07-0.16-0.05-0.3-0.11-0.3c-0.07,0-0.15,0.08-0.16,0.11c-0.02,0.03-0.77,0.2-1,0.32
					c-0.23,0.11-0.5,0.29-0.6,0.38c-0.1,0.1-0.26,0.85-0.32,0.93c-0.06,0.08,0.25,0.39,0.39,0.48c0.14,0.08,0.32,0.04,0.38,0.02
					c0.05-0.02-0.07-0.54-0.14-0.72C54.06,35.46,54.66,35.13,54.81,34.96z M54,33.01c0.25,0.25,0.39-0.11,0.66-0.07
					C54.66,32.43,53.98,32.61,54,33.01z M58.85,33.1c-0.01,0.09,0.69,0.17,0.89,0.13c0.2-0.03-0.04-0.35-0.34-0.33
					C59.1,32.92,58.85,33.01,58.85,33.1z M33.63,38.27c-0.07,0.07-0.01,0.41,0.13,0.42c0.14,0.01,0.36-0.52,0.53-0.41
					c0.17,0.1,0.29,0.15,0.26,0.09c-0.03-0.05-0.52-0.27-0.58-0.31C33.91,38.03,33.7,38.2,33.63,38.27z M35.41,49.84
					c0,0.06,0.3,0.05,0.35-0.04c0.05-0.09,0.02-0.17-0.06-0.17C35.62,49.62,35.41,49.78,35.41,49.84z M34.05,49.34
					c0.15-0.03,0.08,0.21,0.11,0.29c0.04,0.08,0.38,0.15,0.45,0.21c0.07,0.06,0.25-0.11,0.39-0.09c0.14,0.02-0.05-0.48-0.28-0.47
					c-0.23,0.02-0.42-0.21-0.47-0.24c-0.06-0.02-0.33-0.19-0.41-0.25c-0.08-0.06-0.67-0.12-0.87-0.12c-0.2,0-0.43,0.21-0.46,0.27
					c-0.03,0.07,0.32,0.11,0.42,0.06c0.1-0.05,0.57,0.06,0.67,0.17C33.71,49.29,33.91,49.36,34.05,49.34z M33.42,49.84
					c0,0.06,0.31,0.02,0.38,0.02c0.08,0,0.07-0.05,0-0.11C33.72,49.69,33.42,49.78,33.42,49.84z M33.64,48.26
					c-0.08-0.03-0.14,0.09-0.14,0.15c0,0.06,0.04,0.11,0.1,0.11C33.64,48.52,33.72,48.29,33.64,48.26z M34.28,48.31
					c-0.03-0.06-0.16-0.11-0.2-0.11c-0.04,0-0.07,0.1-0.06,0.22C34.03,48.55,34.31,48.36,34.28,48.31z M34.74,49.02
					c0.12-0.06,0.14-0.21,0.07-0.2c-0.07,0.01-0.21-0.21-0.29-0.25c-0.08-0.03-0.14,0.13-0.14,0.21c0,0.07,0.04,0.12,0.1,0.11
					C34.53,48.87,34.62,49.08,34.74,49.02z M68.99,53.83c-0.06,0.03-0.37,0.07-0.41,0.01c-0.04-0.06-0.1,0.12-0.17,0.15
					c-0.07,0.03-0.03,0.19,0.07,0.14c0.07-0.03,0.36,0.13,0.6,0.28c0.05-0.23,0.09-0.47,0.13-0.71
					C69.12,53.75,69.03,53.81,68.99,53.83z"/>
				<defs>
					<filter id="Adobe_OpacityMaskFilter" filterUnits="userSpaceOnUse" x="32.5" y="29.44" width="31.67" height="26.62">
						
							<feColorMatrix  type="matrix" values="-1 0 0 0 1  0 -1 0 0 1  0 0 -1 0 1  0 0 0 1 0" color-interpolation-filters="sRGB" result="source"/>
						<feFlood  style="flood-color:white;flood-opacity:1" result="back"/>
						<feBlend  in="source" in2="back" mode="normal"/>
					</filter>
				</defs>
				<mask maskUnits="userSpaceOnUse" x="32.5" y="29.44" width="31.67" height="26.62" id="SVGID_7_">
					<g class="st15">
						<radialGradient id="SVGID_8_" cx="48.1074" cy="32.657" r="28.0338" gradientUnits="userSpaceOnUse">
							<stop  offset="0" style="stop-color:#010202"/>
							<stop  offset="0.0877" style="stop-color:#15161B"/>
							<stop  offset="0.2784" style="stop-color:#4A484E"/>
							<stop  offset="0.4603" style="stop-color:#807D83"/>
							<stop  offset="0.6283" style="stop-color:#B2B0B4"/>
							<stop  offset="0.7794" style="stop-color:#DBD9DC"/>
							<stop  offset="0.9084" style="stop-color:#F6F5F6"/>
							<stop  offset="1" style="stop-color:#FFFFFF"/>
						</radialGradient>
						<rect x="29.75" y="26.23" class="st16" width="39.02" height="33.05"/>
					</g>
				</mask>
				<path class="st17" d="M64.17,42.75c0,7.35-7.09,13.31-15.84,13.31c-8.75,0-15.84-5.96-15.84-13.31
					c0-7.35,7.09-13.31,15.84-13.31C57.08,29.44,64.17,35.4,64.17,42.75z"/>
			</g>
			<path class="st18" d="M53.76,29.81c-0.35-0.14-0.71-0.25-1.08-0.33c-3.27-0.73-6.75,0.95-9.73,4.24
				c-2.94,3.25-5.42,8.08-6.73,13.72c0,0.01,0,0.02-0.01,0.02c-1.3,5.65-1.2,11.05,0.03,15.23c1.12,3.83,3.19,6.63,5.98,7.68
				c-2.72-1.09-4.73-3.86-5.84-7.62c-1.23-4.18-1.33-9.58-0.03-15.23c0-0.01,0-0.02,0.01-0.02c1.31-5.65,3.78-10.48,6.73-13.73
				c2.99-3.29,6.47-4.97,9.73-4.24C53.15,29.61,53.46,29.7,53.76,29.81z"/>
			<path class="st18" d="M27.98,55.9c0.01,0.37,0.05,0.74,0.12,1.12c0.64,3.27,3.55,5.78,7.75,7.2c4.14,1.39,9.54,1.72,15.22,0.66
				c0.01,0,0.02,0,0.02,0c5.68-1.06,10.57-3.32,13.9-6.1c3.04-2.55,4.78-5.56,4.62-8.53c0.09,2.92-1.64,5.86-4.63,8.37
				c-3.32,2.79-8.22,5.04-13.9,6.1c-0.01,0-0.02,0-0.02,0.01c-5.68,1.06-11.08,0.73-15.22-0.67c-4.2-1.41-7.12-3.92-7.75-7.2
				C28.04,56.54,28,56.22,27.98,55.9z"/>
			<path class="st18" d="M35.65,33.49c-0.33,0.17-0.66,0.36-0.97,0.58c-2.72,1.95-3.8,5.65-3.34,10.08
				c0.45,4.36,2.4,9.42,5.73,14.17c0,0,0.01,0.01,0.01,0.02c3.34,4.74,7.43,8.27,11.36,10.14c3.6,1.71,7.07,2.05,9.71,0.67
				c-2.62,1.3-6.03,0.95-9.57-0.74c-3.93-1.87-8.03-5.4-11.36-10.14c0-0.01-0.01-0.01-0.01-0.02c-3.33-4.74-5.28-9.81-5.73-14.17
				c-0.46-4.42,0.62-8.13,3.34-10.08C35.09,33.81,35.37,33.64,35.65,33.49z"/>
			<g class="st19">
				<g>
					<path class="st20" d="M37.06,47.06c-1.3,0-2.35-1.05-2.35-2.35c0-1.3,1.05-2.35,2.35-2.35c1.3,0,2.35,1.05,2.35,2.35
						C39.41,46,38.35,47.06,37.06,47.06z M37.06,42.38c-1.28,0-2.33,1.04-2.33,2.33c0,1.28,1.04,2.33,2.33,2.33
						c1.28,0,2.33-1.04,2.33-2.33C39.38,43.42,38.34,42.38,37.06,42.38z"/>
				</g>
				<g>
					<path class="st20" d="M37.06,48.42c-2.05,0-3.72-1.67-3.72-3.71c0-2.05,1.67-3.71,3.72-3.71c2.05,0,3.71,1.67,3.71,3.71
						C40.77,46.76,39.1,48.42,37.06,48.42z M37.06,41.03c-2.03,0-3.68,1.65-3.68,3.68c0,2.03,1.65,3.68,3.68,3.68
						c2.03,0,3.68-1.65,3.68-3.68C40.74,42.68,39.09,41.03,37.06,41.03z"/>
				</g>
				<g>
					<path class="st20" d="M37.06,45.87c-0.64,0-1.16-0.52-1.16-1.16c0-0.64,0.52-1.16,1.16-1.16c0.64,0,1.16,0.52,1.16,1.16
						C38.22,45.35,37.7,45.87,37.06,45.87z M37.06,43.56c-0.63,0-1.14,0.51-1.14,1.14c0,0.63,0.51,1.14,1.14,1.14
						c0.63,0,1.14-0.51,1.14-1.14C38.2,44.08,37.69,43.56,37.06,43.56z"/>
				</g>
			</g>
			<g class="st19">
				<g>
					<path class="st20" d="M62.53,50.05c-1.18,0-2.14-0.96-2.14-2.14c0-1.18,0.96-2.14,2.14-2.14c1.18,0,2.14,0.96,2.14,2.14
						C64.66,49.09,63.71,50.05,62.53,50.05z M62.53,45.8c-1.17,0-2.12,0.95-2.12,2.12c0,1.17,0.95,2.12,2.12,2.12
						s2.12-0.95,2.12-2.12C64.64,46.75,63.69,45.8,62.53,45.8z"/>
				</g>
				<g>
					<path class="st20" d="M62.53,51.08c-1.74,0-3.16-1.42-3.16-3.16c0-1.74,1.42-3.16,3.16-3.16c1.74,0,3.16,1.42,3.16,3.16
						C65.69,49.66,64.27,51.08,62.53,51.08z M62.53,44.78c-1.73,0-3.13,1.41-3.13,3.13c0,1.73,1.41,3.13,3.13,3.13
						c1.73,0,3.13-1.41,3.13-3.13C65.66,46.19,64.25,44.78,62.53,44.78z"/>
				</g>
				<g>
					<path class="st20" d="M62.53,49.2c-0.71,0-1.28-0.58-1.28-1.28c0-0.71,0.58-1.28,1.28-1.28c0.71,0,1.28,0.58,1.28,1.28
						C63.81,48.62,63.23,49.2,62.53,49.2z M62.53,46.65c-0.7,0-1.26,0.57-1.26,1.26c0,0.7,0.57,1.26,1.26,1.26s1.26-0.57,1.26-1.26
						C63.79,47.22,63.22,46.65,62.53,46.65z"/>
				</g>
			</g>
			<g class="st19">
				<g>
					<path class="st20" d="M59.52,63.53c-0.9,0-1.63-0.73-1.63-1.63c0-0.9,0.73-1.63,1.63-1.63c0.9,0,1.63,0.73,1.63,1.63
						C61.15,62.8,60.42,63.53,59.52,63.53z M59.52,60.28c-0.89,0-1.62,0.73-1.62,1.62c0,0.89,0.73,1.62,1.62,1.62
						c0.89,0,1.62-0.73,1.62-1.62C61.14,61.01,60.41,60.28,59.52,60.28z"/>
				</g>
				<g>
					<path class="st20" d="M59.52,62.88c-0.54,0-0.98-0.44-0.98-0.98c0-0.54,0.44-0.98,0.98-0.98c0.54,0,0.98,0.44,0.98,0.98
						C60.5,62.44,60.06,62.88,59.52,62.88z M59.52,60.94c-0.53,0-0.96,0.43-0.96,0.96c0,0.53,0.43,0.96,0.96,0.96
						c0.53,0,0.96-0.43,0.96-0.96C60.48,61.37,60.05,60.94,59.52,60.94z"/>
				</g>
			</g>
			<g class="st19">
				<g>
					<path class="st20" d="M43.83,67.79c-1.26,0-2.29-1.03-2.29-2.29c0-1.26,1.03-2.29,2.29-2.29c1.26,0,2.29,1.03,2.29,2.29
						C46.12,66.76,45.09,67.79,43.83,67.79z M43.83,63.24c-1.25,0-2.27,1.02-2.27,2.27c0,1.25,1.02,2.27,2.27,2.27
						c1.25,0,2.27-1.02,2.27-2.27C46.1,64.25,45.08,63.24,43.83,63.24z"/>
				</g>
				<g>
					<path class="st20" d="M43.83,66.87c-0.76,0-1.37-0.62-1.37-1.37c0-0.76,0.62-1.37,1.37-1.37c0.76,0,1.37,0.62,1.37,1.37
						C45.2,66.26,44.59,66.87,43.83,66.87z M43.83,64.15c-0.75,0-1.35,0.61-1.35,1.35c0,0.74,0.61,1.35,1.35,1.35
						c0.74,0,1.35-0.61,1.35-1.35C45.18,64.76,44.57,64.15,43.83,64.15z"/>
				</g>
			</g>
			<path class="st18" d="M60.76,33.95c-1.6-4.59-4.07-7.28-6.95-7.58c-2.11-0.22-4.2,0.61-6.21,2.85c0.08,0,0.16-0.01,0.24-0.01
				c1.93-2.11,3.93-2.88,5.94-2.67c2.81,0.29,5.22,2.95,6.8,7.47c1.62,4.63,2.14,10.62,1.48,16.88c-0.66,6.26-2.43,12.01-4.98,16.2
				c-2.49,4.09-5.41,6.19-8.22,5.9c-1.3-0.14-2.54-0.8-3.64-1.92c-0.11-0.02-0.2-0.03-0.28-0.04c1.17,1.26,2.49,1.99,3.9,2.14
				c0.18,0.02,0.36,0.03,0.54,0.03c2.71,0,5.47-2.11,7.84-6.01c2.56-4.21,4.34-9.99,5-16.27C62.91,44.61,62.38,38.6,60.76,33.95z"/>
			<path class="st18" d="M65.23,30.52c-2.19-2.19-6.1-2.42-11.01-0.64c-0.07,0.03-0.14,0.05-0.21,0.08c0.1,0.03,0.2,0.06,0.3,0.09
				c4.83-1.74,8.66-1.52,10.79,0.61c2.13,2.13,2.35,5.98,0.6,10.82c-1.79,4.96-5.41,10.32-10.19,15.1
				c-4.78,4.78-10.15,8.4-15.1,10.19c-4.84,1.75-8.68,1.54-10.82-0.6c-1.87-1.87-2.27-5.14-1.11-9.22c-0.02-0.08-0.07-0.22-0.1-0.32
				c-1.26,4.27-0.88,7.7,1.08,9.67c1.21,1.21,2.96,1.83,5.11,1.83c1.73,0,3.71-0.39,5.9-1.18c4.98-1.8,10.37-5.43,15.17-10.24
				l0.01-0.01c4.8-4.8,8.43-10.19,10.23-15.17C67.65,36.61,67.42,32.7,65.23,30.52z"/>
			<path class="st18" d="M63.92,48.51c-4.15-2.35-9.8-3.89-15.9-4.35l-0.01,0c-6.1-0.46-11.9,0.22-16.36,1.92
				c-4.4,1.67-6.93,4.12-7.14,6.91c-0.2,2.67,1.77,5.37,5.58,7.64l-0.16-0.3c-3.58-2.19-5.44-4.78-5.25-7.33
				c0.2-2.71,2.7-5.11,7.04-6.76c4.43-1.69,10.22-2.36,16.3-1.91l0.01,0c6.07,0.46,11.69,2,15.81,4.33
				c4.04,2.28,6.15,5.03,5.94,7.74c-0.14,1.86-1.32,3.59-3.53,5.04c-0.06,0.09-0.15,0.22-0.23,0.34c0.58-0.36,1.05-0.74,1.51-1.13
				c1.48-1.27,2.31-2.71,2.42-4.24C70.16,53.63,68.02,50.82,63.92,48.51z"/>
		</g>
		<g>
			
				<radialGradient id="SVGID_9_" cx="-511.2256" cy="-933.6161" r="1.5033" gradientTransform="matrix(-0.1488 0.9889 -0.9889 -0.1488 -955.4939 432.2289)" gradientUnits="userSpaceOnUse">
				<stop  offset="0" style="stop-color:#FFFFFF;stop-opacity:0.87"/>
				<stop  offset="1" style="stop-color:#010202;stop-opacity:0"/>
			</radialGradient>
			<path class="st21" d="M43.61,67.09c-0.82-0.12-1.39-0.89-1.26-1.71c0.12-0.82,0.89-1.39,1.71-1.26c0.82,0.12,1.39,0.89,1.26,1.71
				C45.19,66.64,44.43,67.21,43.61,67.09z"/>
			
				<radialGradient id="SVGID_10_" cx="-515.3031" cy="-916.9104" r="1.503" gradientTransform="matrix(-0.1488 0.9889 -0.9889 -0.1488 -955.4939 432.2289)" gradientUnits="userSpaceOnUse">
				<stop  offset="0" style="stop-color:#FFFFFF;stop-opacity:0.87"/>
				<stop  offset="1" style="stop-color:#010202;stop-opacity:0"/>
			</radialGradient>
			<path class="st22" d="M27.69,60.57c-0.82-0.12-1.39-0.89-1.26-1.71c0.12-0.82,0.89-1.39,1.71-1.26c0.82,0.12,1.39,0.89,1.26,1.71
				C29.28,60.13,28.51,60.69,27.69,60.57z"/>
			
				<radialGradient id="SVGID_11_" cx="-531.4957" cy="-949.4732" r="1.5032" gradientTransform="matrix(-0.1488 0.9889 -0.9889 -0.1488 -955.4939 432.2289)" gradientUnits="userSpaceOnUse">
				<stop  offset="0" style="stop-color:#FFFFFF;stop-opacity:0.87"/>
				<stop  offset="1" style="stop-color:#010202;stop-opacity:0"/>
			</radialGradient>
			<path class="st23" d="M62.3,49.4c-0.82-0.12-1.39-0.89-1.26-1.71c0.12-0.82,0.89-1.39,1.71-1.26c0.82,0.12,1.39,0.89,1.26,1.71
				C63.89,48.96,63.12,49.52,62.3,49.4z"/>
			<radialGradient id="SVGID_12_" cx="58.0167" cy="28.9444" r="1.2684" gradientUnits="userSpaceOnUse">
				<stop  offset="0" style="stop-color:#FFFFFF;stop-opacity:0.87"/>
				<stop  offset="1" style="stop-color:#010202;stop-opacity:0"/>
			</radialGradient>
			<path class="st24" d="M57.79,30.47c-0.82-0.12-1.39-0.89-1.26-1.71c0.12-0.82,0.89-1.39,1.71-1.26c0.82,0.12,1.39,0.89,1.26,1.71
				C59.38,30.03,58.61,30.6,57.79,30.47z"/>
			
				<radialGradient id="SVGID_13_" cx="-530.8641" cy="-923.72" r="1.5036" gradientTransform="matrix(-0.1488 0.9889 -0.9889 -0.1488 -955.4939 432.2289)" gradientUnits="userSpaceOnUse">
				<stop  offset="0" style="stop-color:#FFFFFF;stop-opacity:0.87"/>
				<stop  offset="1" style="stop-color:#010202;stop-opacity:0"/>
			</radialGradient>
			<path class="st25" d="M36.74,46.19c-0.82-0.12-1.39-0.89-1.26-1.71c0.12-0.82,0.89-1.39,1.71-1.26c0.82,0.12,1.39,0.89,1.26,1.71
				C38.33,45.75,37.56,46.32,36.74,46.19z"/>
			
				<radialGradient id="SVGID_14_" cx="-527.2111" cy="-956.8022" r="1.5032" gradientTransform="matrix(-0.1488 0.9889 -0.9889 -0.1488 -955.4939 432.2289)" gradientUnits="userSpaceOnUse">
				<stop  offset="0" style="stop-color:#FFFFFF;stop-opacity:0.87"/>
				<stop  offset="1" style="stop-color:#010202;stop-opacity:0"/>
			</radialGradient>
			<path class="st26" d="M68.91,54.73c-0.82-0.12-1.39-0.89-1.26-1.71c0.12-0.82,0.89-1.38,1.71-1.26c0.82,0.12,1.39,0.89,1.26,1.71
				C70.5,54.29,69.73,54.85,68.91,54.73z"/>
			
				<radialGradient id="SVGID_15_" cx="-543.6243" cy="-928.3757" r="0.9678" gradientTransform="matrix(-0.1488 0.9889 -0.9889 -0.1488 -955.4939 432.2289)" gradientUnits="userSpaceOnUse">
				<stop  offset="0" style="stop-color:#FFFFFF;stop-opacity:0.87"/>
				<stop  offset="1" style="stop-color:#010202;stop-opacity:0"/>
			</radialGradient>
			<path class="st27" d="M43.32,33.74c-0.53-0.08-0.89-0.57-0.81-1.1c0.08-0.53,0.57-0.89,1.1-0.81c0.53,0.08,0.89,0.57,0.81,1.1
				C44.35,33.45,43.85,33.82,43.32,33.74z"/>
			
				<radialGradient id="SVGID_16_" cx="-528.5988" cy="-918.7715" r="0.9678" gradientTransform="matrix(-0.1488 0.9889 -0.9889 -0.1488 -955.4939 432.2289)" gradientUnits="userSpaceOnUse">
				<stop  offset="0" style="stop-color:#FFFFFF;stop-opacity:0.87"/>
				<stop  offset="1" style="stop-color:#010202;stop-opacity:0"/>
			</radialGradient>
			<path class="st28" d="M31.59,47.17c-0.53-0.08-0.89-0.57-0.81-1.1c0.08-0.53,0.57-0.89,1.1-0.81c0.53,0.08,0.89,0.57,0.81,1.1
				C32.61,46.88,32.12,47.25,31.59,47.17z"/>
			
				<radialGradient id="SVGID_17_" cx="-508.4826" cy="-928.4141" r="0.968" gradientTransform="matrix(-0.1488 0.9889 -0.9889 -0.1488 -955.4939 432.2289)" gradientUnits="userSpaceOnUse">
				<stop  offset="0" style="stop-color:#FFFFFF;stop-opacity:0.87"/>
				<stop  offset="1" style="stop-color:#010202;stop-opacity:0"/>
			</radialGradient>
			<path class="st29" d="M38.13,68.5c-0.53-0.08-0.89-0.57-0.81-1.1c0.08-0.53,0.57-0.89,1.1-0.81c0.53,0.08,0.89,0.57,0.81,1.1
				C39.15,68.21,38.66,68.57,38.13,68.5z"/>
			
				<radialGradient id="SVGID_18_" cx="-517.1453" cy="-948.7434" r="1.5032" gradientTransform="matrix(-0.1488 0.9889 -0.9889 -0.1488 -955.4939 432.2289)" gradientUnits="userSpaceOnUse">
				<stop  offset="0" style="stop-color:#FFFFFF;stop-opacity:0.87"/>
				<stop  offset="1" style="stop-color:#010202;stop-opacity:0"/>
			</radialGradient>
			<path class="st30" d="M59.45,63.48c-0.82-0.12-1.39-0.89-1.26-1.71c0.12-0.82,0.89-1.39,1.71-1.26c0.82,0.12,1.39,0.89,1.26,1.71
				C61.03,63.04,60.27,63.61,59.45,63.48z"/>
		</g>
	</g>
</g>
</svg>
