<?xml version="1.0" encoding="utf-8"?>
<!-- Generator: Adobe Illustrator 25.0.0, SVG Export Plug-In . SVG Version: 6.00 Build 0)  -->
<svg version="1.1" id="Capa_1" xmlns="http://www.w3.org/2000/svg" xmlns:xlink="http://www.w3.org/1999/xlink" x="0px" y="0px"
	 width="329.45px" height="99.91px" viewBox="0 0 329.45 99.91" style="enable-background:new 0 0 329.45 99.91;"
	 xml:space="preserve">
<style type="text/css">
	.st0{fill:#36A9E1;stroke:#F39200;stroke-width:2;stroke-miterlimit:10;}
	.st1{fill:none;stroke:#312783;stroke-miterlimit:10;}
	.st2{fill:none;stroke:#312783;stroke-linecap:round;stroke-linejoin:round;stroke-dasharray:3.9392,3.9392;}
	.st3{fill:none;stroke:#E94E1B;stroke-linecap:round;stroke-linejoin:round;stroke-dasharray:1.0025,2.0049;}
	.st4{fill-rule:evenodd;clip-rule:evenodd;fill:none;stroke:#312783;stroke-miterlimit:22.9256;}
	.st5{fill-rule:evenodd;clip-rule:evenodd;fill:#312783;stroke:#312783;stroke-width:0.5669;stroke-miterlimit:22.9256;}
	.st6{fill-rule:evenodd;clip-rule:evenodd;fill:none;stroke:#EF7D00;stroke-width:2;stroke-miterlimit:22.9256;}
	.st7{fill-rule:evenodd;clip-rule:evenodd;fill:#EF7D00;}
	.st8{fill:#312783;}
	.st9{fill-rule:evenodd;clip-rule:evenodd;fill:url(#SVGID_1_);}
	.st10{fill-rule:evenodd;clip-rule:evenodd;fill:url(#SVGID_2_);}
	.st11{fill-rule:evenodd;clip-rule:evenodd;fill:url(#SVGID_3_);}
	.st12{fill-rule:evenodd;clip-rule:evenodd;fill:url(#SVGID_4_);}
	.st13{fill:url(#SVGID_5_);}
	.st14{fill:url(#SVGID_6_);}
	.st15{filter:url(#Adobe_OpacityMaskFilter);}
	.st16{fill:url(#SVGID_8_);}
	.st17{opacity:0.5;mask:url(#SVGID_7_);fill:#E1ECF5;}
	.st18{opacity:0.6;fill:#FFFFFF;}
	.st19{opacity:0.5;}
	.st20{fill:#FFFFFF;}
	.st21{fill:url(#SVGID_9_);}
	.st22{fill:url(#SVGID_10_);}
	.st23{fill:url(#SVGID_11_);}
	.st24{fill:url(#SVGID_12_);}
	.st25{fill:url(#SVGID_13_);}
	.st26{fill:url(#SVGID_14_);}
	.st27{fill:url(#SVGID_15_);}
	.st28{fill:url(#SVGID_16_);}
	.st29{fill:url(#SVGID_17_);}
	.st30{fill:url(#SVGID_18_);}
	.st31{fill:#EF7D00;}
	.st32{fill-rule:evenodd;clip-rule:evenodd;fill:none;stroke:#EF7D00;stroke-width:1.4173;stroke-miterlimit:22.9256;}
</style>
<g>
	<g>
		<path class="st0" d="M78.09,50.28c0,16.27-13.19,29.47-29.47,29.47c-16.27,0-29.47-13.19-29.47-29.47
			c0-16.27,13.19-29.47,29.47-29.47C64.9,20.82,78.09,34.01,78.09,50.28z"/>
		<path class="st1" d="M82.05,50.24c0,18.46-14.97,33.43-33.43,33.43c-18.46,0-33.43-14.97-33.43-33.43
			c0-18.46,14.97-33.43,33.43-33.43C67.09,16.81,82.05,31.78,82.05,50.24z"/>
		<g>
			
				<ellipse transform="matrix(0.9763 -0.2166 0.2166 0.9763 -9.7334 11.6736)" class="st2" cx="48.39" cy="50.24" rx="41.39" ry="41.39"/>
		</g>
		<g>
			<path class="st3" d="M93.77,50.24c0,24.86-20.15,45-45,45c-24.85,0-45-20.15-45-45s20.15-45,45-45
				C73.62,5.24,93.77,25.39,93.77,50.24z"/>
		</g>
		<g>
			<line class="st4" x1="48.77" y1="71.28" x2="48.77" y2="82.25"/>
			<polygon class="st5" points="48.75,87.25 49.58,83.64 50.41,80.03 48.75,80.03 47.1,80.03 47.93,83.64 			"/>
		</g>
		<g>
			<line class="st4" x1="48.77" y1="29.11" x2="48.77" y2="18.14"/>
			<polygon class="st5" points="48.75,13.14 49.58,16.75 50.41,20.36 48.75,20.36 47.1,20.36 47.93,16.75 			"/>
		</g>
		<g>
			<g>
				<line class="st4" x1="27.49" y1="50.21" x2="16.53" y2="50.21"/>
				<polygon class="st5" points="11.52,50.2 15.14,51.02 18.75,51.85 18.75,50.2 18.75,48.54 15.14,49.37 				"/>
			</g>
			<g>
				<line class="st4" x1="69.67" y1="50.21" x2="80.63" y2="50.21"/>
				<polygon class="st5" points="85.64,50.2 82.03,51.02 78.42,51.85 78.42,50.2 78.42,48.54 82.03,49.37 				"/>
			</g>
		</g>
		<g>
			<line class="st6" x1="70.01" y1="29.89" x2="80.31" y2="19.59"/>
			<polygon class="st7" points="78.9,15.95 78.88,21.11 84.04,21.1 89.17,10.83 			"/>
		</g>
		<g>
			<line class="st6" x1="27.61" y1="29.64" x2="17.31" y2="19.34"/>
			<polygon class="st7" points="13.67,20.75 18.84,20.77 18.82,15.61 8.55,10.49 			"/>
		</g>
		<g>
			<line class="st6" x1="69.4" y1="71.34" x2="79.7" y2="81.64"/>
			<polygon class="st7" points="78.29,85.28 78.27,80.11 83.43,80.14 88.55,90.4 			"/>
		</g>
		<g>
			<line class="st6" x1="17.67" y1="81.64" x2="27.97" y2="71.34"/>
			<polygon class="st7" points="14.03,80.23 19.2,80.21 19.18,85.37 8.91,90.5 			"/>
		</g>
		<g>
			<path class="st8" d="M90.96,88.94c0.11,0.09,0.18,0.33,0.22,0.73c0.03,0.39,0.02,0.83-0.05,1.31c0.1,0.15,0.29,0.4,0.58,0.76
				c0.45,0.57,0.74,1,0.88,1.29c0.14,0.29,0.23,0.66,0.27,1.1c0.11,1.28-0.2,2.37-0.92,3.28c-0.21,0.26-0.43,0.46-0.68,0.58
				c0.13,0.28,0.27,0.49,0.43,0.61c0.2,0.16,0.44,0.24,0.72,0.24c0.03,0,0.05,0,0.07,0.02c0.02,0.02,0.02,0.03,0,0.06
				c-0.04,0.05-0.16,0.05-0.36,0c-0.2-0.05-0.36-0.13-0.48-0.23c-0.18-0.15-0.34-0.37-0.46-0.66c-0.64,0.29-1.27,0.19-1.89-0.3
				c-0.39-0.31-0.7-0.74-0.9-1.29c-0.2-0.54-0.3-1.15-0.27-1.83c0.03-0.86,0.26-1.55,0.68-2.08c0.23-0.29,0.49-0.45,0.79-0.49
				c0.3-0.04,0.58,0.05,0.86,0.27c0.15,0.12,0.28,0.26,0.41,0.43c0.04-0.53,0.09-0.98,0.14-1.38c-0.23-0.46-0.38-0.92-0.44-1.39
				s-0.02-0.79,0.13-0.98C90.77,88.88,90.86,88.86,90.96,88.94z M90.38,92.36c-0.25-0.19-0.51-0.27-0.78-0.24
				c-0.27,0.04-0.51,0.18-0.71,0.44c-0.5,0.63-0.66,1.5-0.47,2.61c0.19,1.11,0.63,1.94,1.33,2.5c0.46,0.37,0.92,0.46,1.39,0.27
				c-0.14-0.37-0.24-0.82-0.32-1.37c-0.26,0.05-0.48,0-0.66-0.15c-0.14-0.11-0.22-0.25-0.25-0.42c-0.03-0.17,0.01-0.32,0.11-0.44
				c0.12-0.16,0.26-0.18,0.4-0.06c0.07,0.06,0.12,0.14,0.12,0.24c0.01,0.1-0.02,0.19-0.08,0.27c-0.09,0.11-0.19,0.13-0.3,0.04
				c-0.04-0.03-0.06-0.07-0.08-0.12c-0.02-0.03-0.04-0.05-0.04-0.06c-0.01-0.01-0.03-0.01-0.04,0c-0.03,0.04-0.02,0.11,0.03,0.22
				c0.05,0.11,0.12,0.2,0.2,0.26c0.15,0.12,0.35,0.16,0.58,0.12c-0.12-0.87-0.11-2.07,0.04-3.61
				C90.68,92.65,90.53,92.48,90.38,92.36z M91.06,91.48c-0.04,0.41-0.09,0.87-0.12,1.37c0.37,0.55,0.59,1.17,0.66,1.85
				c0.07,0.69-0.04,1.21-0.33,1.56c-0.08,0.11-0.21,0.2-0.37,0.29c0.06,0.48,0.17,0.94,0.33,1.36c0.24-0.12,0.46-0.31,0.65-0.55
				c0.35-0.44,0.56-0.97,0.64-1.57c0.08-0.61,0.01-1.24-0.19-1.89c-0.1-0.3-0.2-0.56-0.31-0.78c-0.11-0.22-0.34-0.61-0.69-1.18
				C91.23,91.8,91.14,91.65,91.06,91.48z M90.91,92.99l-0.03,0.36c-0.09,1.37-0.09,2.41,0,3.12c0.13-0.06,0.24-0.14,0.33-0.25
				c0.26-0.33,0.36-0.81,0.3-1.44C91.46,94.14,91.26,93.54,90.91,92.99z M90.91,89.01c-0.06-0.04-0.11-0.04-0.16,0.03
				c-0.12,0.16-0.16,0.42-0.09,0.78c0.06,0.37,0.2,0.72,0.4,1.05c0.06-0.46,0.07-0.87,0.04-1.22C91.07,89.3,91.01,89.09,90.91,89.01
				z"/>
		</g>
		<g>
			<path class="st8" d="M93.87,2.84c0.15,0.13,0.11,0.33-0.12,0.62c-0.19,0.22-0.73,0.66-1.64,1.33c-0.1,0.58,0.01,1.01,0.35,1.29
				c0.16,0.14,0.32,0.17,0.48,0.11c0.12-0.17,0.22-0.3,0.29-0.39c0.2-0.24,0.33-0.33,0.39-0.29c0.04,0.03,0,0.11-0.1,0.23
				C93.37,5.91,93.2,6.06,93,6.21c-0.18,0.29-0.33,0.66-0.45,1.14c-0.31,1.2-0.13,2.08,0.52,2.62c0.43,0.36,0.9,0.36,1.41-0.01
				c-0.21-0.03-0.41-0.12-0.59-0.28c-0.45-0.38-0.68-0.96-0.67-1.74c0.01-0.78,0.24-1.44,0.7-1.99c0.21-0.25,0.44-0.4,0.69-0.45
				c0.25-0.05,0.48,0.02,0.69,0.19c0.45,0.37,0.64,0.96,0.59,1.75c-0.05,0.79-0.34,1.49-0.85,2.11c-0.1,0.12-0.21,0.23-0.31,0.33
				c0.48,0.03,0.9-0.18,1.27-0.61c0.22-0.27,0.37-0.52,0.43-0.76l0.03-0.05c0.02-0.01,0.03-0.01,0.04,0c0.03,0.03,0,0.14-0.11,0.34
				c-0.11,0.2-0.22,0.37-0.34,0.51c-0.4,0.48-0.88,0.7-1.44,0.67c-0.37,0.29-0.73,0.45-1.08,0.49c-0.35,0.04-0.65-0.04-0.9-0.25
				c-0.33-0.28-0.53-0.68-0.59-1.19c-0.06-0.52,0.03-1.07,0.26-1.65c0.14-0.35,0.34-0.73,0.6-1.12c-0.32,0.16-0.6,0.15-0.83-0.05
				c-0.3-0.25-0.4-0.65-0.29-1.19c-0.57,0.42-1.01,0.81-1.29,1.16c-0.57,0.68-0.88,1.4-0.94,2.16c-0.06,0.76,0.15,1.34,0.63,1.75
				c0.22,0.18,0.45,0.27,0.71,0.27c0.26,0,0.46-0.09,0.61-0.26c0.1-0.12,0.13-0.2,0.09-0.23c-0.02-0.02-0.05,0-0.07,0.05
				c-0.1,0.12-0.21,0.14-0.32,0.04c-0.06-0.05-0.1-0.13-0.1-0.22c0-0.09,0.03-0.18,0.09-0.25c0.12-0.15,0.26-0.16,0.4-0.04
				c0.09,0.08,0.14,0.19,0.13,0.33c0,0.14-0.06,0.27-0.16,0.39c-0.18,0.21-0.43,0.31-0.74,0.31c-0.32-0.01-0.61-0.13-0.88-0.35
				c-0.41-0.34-0.63-0.83-0.67-1.46c-0.05-0.76,0.24-1.52,0.87-2.27c0.35-0.42,0.91-0.91,1.67-1.47c0.11-0.44,0.34-0.88,0.69-1.3
				c0.26-0.31,0.53-0.54,0.79-0.69C93.55,2.76,93.75,2.74,93.87,2.84z M95.21,5.74c-0.17-0.14-0.36-0.19-0.57-0.15
				c-0.22,0.04-0.41,0.16-0.58,0.36c-0.41,0.49-0.61,1.15-0.6,1.96c0.02,0.81,0.24,1.4,0.66,1.75c0.12,0.1,0.28,0.17,0.47,0.2
				c0.14-0.11,0.25-0.22,0.35-0.34c0.45-0.54,0.71-1.23,0.77-2.06C95.77,6.64,95.61,6.07,95.21,5.74z M93.8,2.91
				c-0.09-0.08-0.25-0.05-0.47,0.09c-0.23,0.13-0.44,0.32-0.65,0.57c-0.28,0.34-0.47,0.71-0.55,1.11c0.71-0.44,1.23-0.87,1.58-1.29
				C93.88,3.16,93.92,3,93.8,2.91z"/>
		</g>
		<g>
			<path class="st8" d="M5.87,89.05c0.45,0.07,0.89,0.27,1.32,0.6c0.43,0.33,0.79,0.75,1.1,1.26c0.3,0.49,0.51,1,0.65,1.53
				c0.14,0.53,0.17,1,0.1,1.41c-0.09,0.54-0.34,0.96-0.76,1.23c-0.42,0.28-0.93,0.37-1.52,0.28c-0.54-0.09-1.07-0.34-1.58-0.77
				c-0.51-0.43-0.92-0.96-1.24-1.6c-0.23-0.45-0.4-0.95-0.5-1.49c-0.1-0.54-0.12-1.01-0.05-1.42c0.07-0.41,0.22-0.72,0.45-0.93
				c0.24-0.21,0.52-0.29,0.85-0.24c0.14,0.02,0.29,0.07,0.47,0.15C5.4,89.01,5.64,89.01,5.87,89.05z M4.68,88.98
				c-0.3-0.05-0.56,0.02-0.77,0.2c-0.21,0.18-0.35,0.44-0.4,0.78c-0.11,0.68,0.01,1.4,0.35,2.17c0.33,0.73,0.8,1.37,1.41,1.9
				c0.63,0.56,1.29,0.89,1.98,1c0.44,0.07,0.81,0,1.13-0.22c0.32-0.21,0.51-0.53,0.57-0.93c0.13-0.83-0.16-1.73-0.88-2.7
				c-0.72-0.97-1.53-1.58-2.45-1.82c0.16,0.13,0.34,0.34,0.54,0.64c0.2,0.3,0.29,0.49,0.28,0.58c0,0.02-0.02,0.04-0.04,0.03
				c-0.01,0-0.03-0.03-0.05-0.08c-0.19-0.52-0.49-0.92-0.89-1.21c-0.37-0.06-0.68,0-0.93,0.18c-0.25,0.18-0.41,0.46-0.47,0.82
				c-0.11,0.69,0.14,1.45,0.76,2.29c0.62,0.84,1.27,1.31,1.97,1.42c0.28,0.04,0.51,0.02,0.71-0.09c0.19-0.1,0.31-0.26,0.34-0.47
				c0.02-0.1,0-0.21-0.04-0.32C7.75,93.06,7.7,93,7.64,92.99c-0.02,0-0.03,0-0.03,0.01l0.01,0.04c0.03,0.04,0.04,0.1,0.03,0.18
				c-0.02,0.14-0.11,0.2-0.28,0.17c-0.1-0.02-0.18-0.06-0.24-0.14c-0.06-0.08-0.08-0.17-0.06-0.26c0.03-0.19,0.15-0.27,0.36-0.23
				c0.16,0.03,0.28,0.12,0.38,0.27c0.09,0.15,0.13,0.32,0.1,0.5c-0.04,0.25-0.18,0.45-0.41,0.59c-0.24,0.14-0.51,0.18-0.82,0.13
				c-0.72-0.12-1.38-0.61-1.97-1.47c-0.6-0.87-0.83-1.67-0.71-2.43c0.05-0.32,0.17-0.6,0.37-0.83c0.19-0.23,0.42-0.37,0.68-0.42
				C4.92,89.04,4.8,89,4.68,88.98z"/>
		</g>
		<g>
			<path class="st8" d="M7.78,1.19c0.21,0.13,0.3,0.22,0.28,0.27C8.04,1.48,8.03,1.48,8.01,1.47c-0.03-0.02-0.07-0.05-0.12-0.1
				c-0.05-0.05-0.1-0.08-0.13-0.1C7.41,1.06,7.05,1,6.67,1.11C6.29,1.22,5.98,1.47,5.74,1.85C5.26,2.62,5.28,3.7,5.79,5.09
				C5.95,5.53,6.41,6.46,7.15,7.9c0.22,0.42,0.39,0.81,0.53,1.2C7.82,9.48,7.86,9.7,7.82,9.77C7.79,9.81,7.76,9.82,7.73,9.79
				C7.68,9.76,7.66,9.68,7.68,9.53c0.04-0.29-0.15-0.56-0.57-0.82C7.03,8.66,6.89,8.58,6.7,8.48C6.24,8.22,5.84,7.99,5.51,7.79
				c-0.55-0.34-0.96-0.67-1.25-1C3.97,6.47,3.77,6.1,3.66,5.69c0-0.01-0.01-0.02-0.02-0.03C3.58,5.73,3.63,6,3.8,6.48
				C3.88,6.73,3.98,6.97,4.1,7.2c0.12,0.23,0.46,0.85,1.02,1.86c0.48,0.86,0.75,1.69,0.82,2.48c0.06,0.79-0.09,1.48-0.45,2.06
				c-0.21,0.33-0.45,0.56-0.73,0.68C4.49,14.4,4.23,14.39,4,14.25c-0.13-0.08-0.22-0.19-0.26-0.32c-0.04-0.13-0.03-0.26,0.04-0.37
				c0.1-0.16,0.23-0.2,0.4-0.1c0.08,0.05,0.14,0.12,0.16,0.21c0.03,0.09,0.02,0.17-0.03,0.25c-0.08,0.12-0.19,0.14-0.32,0.06
				c-0.05-0.03-0.08-0.04-0.1-0.02c-0.02,0.04,0.03,0.1,0.17,0.19c0.21,0.13,0.44,0.14,0.7,0.02c0.26-0.12,0.48-0.33,0.67-0.64
				c0.37-0.59,0.48-1.27,0.35-2.06c-0.13-0.78-0.54-1.84-1.23-3.17C3.99,7.23,3.67,6.45,3.59,5.96c-0.05-0.34-0.06-0.54-0.03-0.6
				c0.01-0.01,0.02-0.01,0.03-0.01c0,0,0.02,0.03,0.04,0.09c0.12,0.29,0.28,0.54,0.5,0.73c0.22,0.19,0.72,0.54,1.5,1.05
				C6.58,7.84,7.2,8.39,7.48,8.87c0,0.01,0,0.01,0.01,0.02l0.01,0c0.03-0.05-0.37-0.83-1.2-2.34C5.7,5.44,5.35,4.51,5.24,3.76
				C5.12,3.01,5.25,2.35,5.6,1.78C5.85,1.37,6.18,1.12,6.6,1C7.01,0.89,7.4,0.95,7.78,1.19z M3.72,7.13
				C3.78,7.16,3.84,7.3,3.92,7.55c0.11,0.37,0.1,0.66-0.02,0.86C3.81,8.55,3.68,8.64,3.52,8.67c-0.16,0.03-0.32,0-0.47-0.09
				C2.91,8.49,2.77,8.33,2.63,8.1C2.45,7.81,2.32,7.63,2.21,7.57C2.08,7.49,1.94,7.49,1.78,7.56C1.63,7.63,1.49,7.77,1.37,7.96
				C1.02,8.53,0.92,9.2,1.06,9.99c0.15,0.78,0.48,1.33,1,1.65c0.27,0.17,0.54,0.22,0.81,0.16c0.27-0.06,0.49-0.22,0.65-0.47
				c0.14-0.23,0.22-0.5,0.24-0.82c0.01-0.32-0.04-0.61-0.15-0.88c-0.01-0.02-0.01-0.03,0-0.03C3.6,9.57,3.62,9.57,3.64,9.58
				c0.05,0.03,0.1,0.17,0.14,0.43c0.09,0.52,0.02,0.98-0.22,1.37c-0.17,0.27-0.4,0.44-0.68,0.5c-0.29,0.06-0.57,0-0.85-0.17
				c-0.55-0.34-0.9-0.91-1.05-1.71c-0.15-0.8-0.03-1.5,0.34-2.1C1.48,7.66,1.66,7.5,1.87,7.44C2.08,7.37,2.3,7.41,2.52,7.54
				c0.16,0.1,0.36,0.34,0.59,0.7C3.19,8.38,3.27,8.46,3.34,8.5c0.19,0.12,0.35,0.08,0.48-0.13c0.08-0.12,0.1-0.3,0.08-0.53
				C3.87,7.61,3.8,7.4,3.69,7.2C3.67,7.17,3.67,7.15,3.67,7.14C3.69,7.12,3.7,7.11,3.72,7.13z"/>
		</g>
		<radialGradient id="SVGID_1_" cx="84.0233" cy="15.9724" r="5.1423" gradientUnits="userSpaceOnUse">
			<stop  offset="0" style="stop-color:#FFFFFF;stop-opacity:0.87"/>
			<stop  offset="1" style="stop-color:#010202;stop-opacity:0"/>
		</radialGradient>
		<polygon class="st9" points="89.17,10.83 78.88,21.11 84.04,21.1 		"/>
		
			<radialGradient id="SVGID_2_" cx="-595.8535" cy="-201.7643" r="5.1427" gradientTransform="matrix(0 1 -1 0 -118.3531 681.1111)" gradientUnits="userSpaceOnUse">
			<stop  offset="0" style="stop-color:#FFFFFF;stop-opacity:0.87"/>
			<stop  offset="1" style="stop-color:#010202;stop-opacity:0"/>
		</radialGradient>
		<polygon class="st10" points="88.55,90.4 78.27,80.11 78.29,85.28 		"/>
		
			<radialGradient id="SVGID_3_" cx="-998.2383" cy="693.814" r="5.1424" gradientTransform="matrix(-1 0 0 -1 -984.1858 779.1672)" gradientUnits="userSpaceOnUse">
			<stop  offset="0" style="stop-color:#FFFFFF;stop-opacity:0.87"/>
			<stop  offset="1" style="stop-color:#010202;stop-opacity:0"/>
		</radialGradient>
		<polygon class="st11" points="8.91,90.5 19.19,80.21 14.03,80.23 		"/>
		
			<radialGradient id="SVGID_4_" cx="-375.5031" cy="1371.3585" r="5.1423" gradientTransform="matrix(0 -1 1 0 -1357.6638 -359.8745)" gradientUnits="userSpaceOnUse">
			<stop  offset="0" style="stop-color:#FFFFFF;stop-opacity:0.87"/>
			<stop  offset="1" style="stop-color:#010202;stop-opacity:0"/>
		</radialGradient>
		<polygon class="st12" points="8.55,10.49 18.84,20.77 18.82,15.61 		"/>
		<g>
			<g id="globe">
				<g>
					<radialGradient id="SVGID_5_" cx="48.8521" cy="47.2312" r="24.3464" gradientUnits="userSpaceOnUse">
						<stop  offset="0" style="stop-color:#2CAAE1"/>
						<stop  offset="0.1003" style="stop-color:#2BA6DD"/>
						<stop  offset="0.2242" style="stop-color:#279CD2"/>
						<stop  offset="0.3607" style="stop-color:#228AC0"/>
						<stop  offset="0.5061" style="stop-color:#2273A7"/>
						<stop  offset="0.6587" style="stop-color:#24578A"/>
						<stop  offset="0.8151" style="stop-color:#24396D"/>
						<stop  offset="0.8342" style="stop-color:#233569"/>
						<stop  offset="0.8523" style="stop-color:#243B6E"/>
						<stop  offset="0.8839" style="stop-color:#254A7E"/>
						<stop  offset="0.9253" style="stop-color:#22669A"/>
						<stop  offset="0.9743" style="stop-color:#2391C6"/>
						<stop  offset="1" style="stop-color:#2CAAE1"/>
					</radialGradient>
					<path class="st13" d="M69.28,50.24c0,11.62-9.42,21.04-21.04,21.04c-11.62,0-21.04-9.42-21.04-21.04S36.62,29.2,48.24,29.2
						C59.86,29.2,69.28,38.62,69.28,50.24z"/>
					<radialGradient id="SVGID_6_" cx="47.6896" cy="45.2646" r="24.6756" gradientUnits="userSpaceOnUse">
						<stop  offset="0" style="stop-color:#2CAAE1"/>
						<stop  offset="0.2174" style="stop-color:#35ABE2"/>
						<stop  offset="0.3793" style="stop-color:#4AAFE2"/>
						<stop  offset="0.5232" style="stop-color:#65B6E4"/>
						<stop  offset="0.6566" style="stop-color:#84BFE5"/>
						<stop  offset="0.7828" style="stop-color:#A5CBE7"/>
						<stop  offset="0.902" style="stop-color:#C8DAE8"/>
						<stop  offset="1" style="stop-color:#E6E7E9"/>
					</radialGradient>
					<path class="st14" d="M68.39,56.02c-0.28,0.01-0.64,0.14-0.65,0.23c0,0.1-0.39,0.27-0.51,0.32c-0.13,0.05-0.37,0.44-0.43,0.57
						c-0.05,0.13-0.37,0.09-0.48,0.14c-0.11,0.05-0.35,0.24-0.35,0.36c0,0.11-0.07,0.1-0.14-0.03c0,0,0,0-0.15,0.16
						c-0.18,0.2-0.18,0.2-0.18,0.2c-0.1,0.33-0.45,0.73-0.57,0.77c-0.12,0.03-0.14,0.6-0.14,0.83c0,0.23,0.09,0.51,0.2,0.63
						c0,0,0,0,0.02,0.18c0.04,0.36,0.04,0.36,0.04,0.36c-0.06,0.28,0.15,0.53,0.21,0.58c0.06,0.05,0.58-0.1,0.78-0.14
						c0.08-0.02,0.19-0.07,0.28-0.11c0.93-1.56,1.66-3.25,2.17-5.04C68.46,56.02,68.43,56.02,68.39,56.02z M33.58,56.56
						c-0.03,0.06,0.35,0.44,0.49,0.58c0.15,0.13,0.46,0.76,0.52,0.97c0.06,0.21,0.03,0.55,0.01,0.63c-0.02,0.08,0.07,0.25,0.09,0.33
						c0.01,0.07-0.13,0.69-0.08,0.94c0.05,0.25-0.29,1.03-0.28,1.41c0.01,0.39,0.18,0.89,0.25,0.85c0.07-0.04,0.1,0.35-0.02,0.4
						c-0.12,0.05-0.25,0.35-0.19,0.37c0.07,0.02,0,0.32,0.01,0.44c0.02,0.12,0.12,0.92,0.14,1.12c0.02,0.2,0.31,0.69,0.37,0.85
						c0.06,0.17,0.12,0.48,0.14,0.53c0.02,0.05,0.05,0.1,0.06,0.1c0.01,0,0.24,0.09,0.3,0.14c0.07,0.05,0.52,0.02,0.67-0.01
						c0.15-0.03,0.01-0.17-0.05-0.24c-0.07-0.08-0.13-0.43-0.2-0.47c-0.08-0.04-0.11-0.49-0.04-0.59c0.07-0.1,0.34-0.26,0.37-0.35
						c0.03-0.08,0.04-0.48-0.04-0.53c-0.07-0.06,0.02-0.53-0.03-0.77c-0.05-0.24,0.41-0.46,0.44-0.64c0.03-0.19,0.53-0.39,0.65-0.49
						c0.11-0.1,0.21-0.64,0.16-0.75c-0.06-0.12,0.19-0.21,0.3-0.21c0.11,0,0.23-0.08,0.27-0.08c0.04,0,0.17-0.24,0.24-0.29
						c0.07-0.06,0.21-0.63,0.34-0.72c0.13-0.09,0.23-0.44,0.23-0.54c0-0.1,0.19-0.4,0.26-0.49c0.06-0.09,0.54-0.31,0.62-0.34
						c0.08-0.04,0.21-0.79,0.25-1.07c0.03-0.27,0.17-0.64,0.19-0.73c0.01-0.09,0.16-0.17,0.19-0.2c0.03-0.03,0.14-0.38,0.21-0.46
						c0.07-0.08,0.33-0.41,0.34-0.49c0.01-0.07,0.05-0.26,0.09-0.42c0,0,0,0,0-0.18c0-0.3,0-0.3,0-0.3
						c-0.08-0.23-0.34-0.52-0.4-0.45c-0.06,0.06-0.36-0.2-0.51-0.26c-0.15-0.05-0.52-0.1-0.62-0.1c-0.09,0-0.42-0.27-0.57-0.31
						c-0.15-0.04-0.52-0.12-0.59-0.16c-0.07-0.04-0.16-0.6-0.46-0.78c-0.3-0.18-0.83-0.6-0.88-0.76c-0.06-0.15-0.63-0.48-0.81-0.58
						c-0.18-0.1-0.45-0.12-0.48-0.09c-0.04,0.03-0.26-0.3-0.37-0.4c-0.12-0.09-0.46-0.17-0.48-0.09c-0.02,0.09-0.24,0.04-0.3-0.03
						c-0.05-0.07-0.23,0.03-0.31,0.06c-0.08,0.03-0.37,0.46-0.5,0.57c-0.13,0.1-0.29-0.1-0.38-0.14c-0.09-0.04-0.42,0.07-0.51,0.13
						c-0.09,0.06-0.3-0.46-0.25-0.71c0.05-0.24-0.22-0.73-0.42-0.74c-0.2-0.01-0.27-0.52-0.23-0.71c0.04-0.19-0.37-0.3-0.47-0.32
						c-0.1-0.01-0.36,0.25-0.4,0.38c-0.04,0.12-0.98-0.17-0.87-0.73c0.11-0.56,0.55-1.14,0.66-1.21c0.11-0.07,0.71-0.1,0.84-0.03
						c0.13,0.08,0.25,0,0.28-0.04c0.02-0.03,0.51,0.01,0.66,0.07c0.14,0.06,0.35,0.62,0.51,0.69c0.15,0.07,0.21-0.36,0.23-0.47
						c0.03-0.11-0.07-0.38-0.11-0.45c-0.04-0.07,0.24-0.76,0.47-0.88c0.23-0.12,0.47-0.5,0.45-0.57c-0.02-0.07,0.18-0.12,0.24-0.15
						c0.06-0.03-0.01-0.58,0.08-0.7c0.09-0.12,0.52-0.37,0.66-0.43c0.14-0.06,0.24-0.41,0.19-0.47c-0.05-0.06,0.35-0.4,0.56-0.47
						c0.21-0.06,0.39,0.12,0.34,0.15c0.04-0.02,0.33-0.17,0.45-0.25c0.14-0.09,0-0.35-0.09-0.43c-0.09-0.07-0.04-0.38,0.07-0.4
						c0.11-0.03,0.21-0.29,0.18-0.34c-0.03-0.06,0.46,0.05,0.64-0.09c0.18-0.14,0.05,0.33-0.08,0.52c-0.13,0.19,0.1,0.37,0.19,0.33
						c0.09-0.04,0.18,0.1,0.2,0.15c0.02,0.05,0.2-0.05,0.33,0c0.12,0.05,0.2-0.17,0.21-0.27c0.01-0.1-0.29-0.31-0.34-0.44
						c-0.05-0.12-0.07-0.84-0.07-0.98c-0.01-0.15-0.2-0.38-0.27-0.34c-0.06,0.04-0.19-0.38-0.29-0.47c-0.1-0.09-0.12-0.29-0.12-0.36
						c0-0.07-0.35-0.43-0.43-0.6c-0.08-0.17-0.2-0.13-0.21-0.06c-0.01,0.08-0.25,0.09-0.35,0.08c-0.1-0.01-0.18-0.39-0.18-0.54
						c0-0.14-0.45-0.17-0.53-0.29c-0.07-0.12-0.37-0.06-0.42-0.14c-0.05-0.08-0.31-0.16-0.36-0.13c-0.05,0.03-0.03,1.08-0.08,1.36
						c-0.05,0.28-0.29,0.53-0.38,0.52c-0.09-0.01-0.03,0.2,0.03,0.18c0.06-0.02-0.17,0.31-0.2,0.52c-0.03,0.21-0.25-0.01-0.28-0.2
						c-0.04-0.19-0.25-0.46-0.29-0.39c-0.04,0.07-0.19-0.08-0.25-0.04c-0.06,0.04-0.47-0.23-0.63-0.32
						c-0.16-0.09-0.25-0.59-0.35-0.63c-0.09-0.04-0.02-0.1-0.02-0.18c0-0.08,0.31-0.37,0.41-0.48c0.1-0.12,0.44-0.57,0.58-0.67
						c0.14-0.1,0.25-0.36,0.22-0.41c-0.02-0.05,0.59-0.24,0.76-0.3c0.17-0.06,0.31-0.52,0.33-0.66c0.02-0.13-0.1-0.39-0.18-0.42
						c-0.08-0.03,0.23-0.04,0.33,0.01c0.1,0.05,0.42-0.09,0.55-0.03c0.12,0.07,0.38,0.22,0.56,0.33c0,0,0,0-0.04,0.34
						c-0.07,0.58-0.07,0.58-0.07,0.58c-0.48,0.2-0.62,0.55-0.46,0.54c0.17-0.01,0.95,0.33,1.16,0.49c0.22,0.16,0.29-0.23,0.35-0.36
						c0.07-0.12,0.04-0.5-0.01-0.57c-0.05-0.07,0.25-0.05,0.34,0.03c0.09,0.08,0.19-0.08,0.25-0.11c0.07-0.03,0.1-0.35,0.13-0.41
						c0.03-0.07-0.15-0.13-0.15-0.21c-0.01-0.08-0.35-0.23-0.47-0.29c-0.11-0.05-0.14-0.29-0.08-0.34c0.06-0.04-0.04-0.35-0.09-0.45
						c-0.05-0.1-0.42-0.18-0.54-0.18c-0.12,0-0.25-0.28-0.32-0.32c-0.07-0.04-0.54-0.09-0.65-0.06c-0.12,0.03-0.33-0.33-0.52-0.22
						c-0.19,0.11-0.4-0.13-0.48-0.18c-0.09-0.05-0.54,0.44-0.54,0.79c0.01,0.35,0.18,0.68,0.25,0.69c0.07,0.01-0.02,0.32-0.1,0.41
						c-0.08,0.09-0.27-0.09-0.2-0.17c0.07-0.08-0.2-0.44-0.29-0.58c-0.07-0.11-0.3-0.2-0.46-0.26c-0.09,0.1-0.19,0.21-0.28,0.31
						c0.04,0.12,0.08,0.29,0.04,0.41c-0.07,0.21-0.24,0.24-0.25,0.15c0-0.04-0.09-0.07-0.2-0.08c-2.55,3.06-4.25,6.86-4.74,11.02
						c0.1,0.12,0.22,0.25,0.25,0.35c0.06,0.19,0.38,0.31,0.44,0.34c0.06,0.04,0.08-0.35,0.04-0.46c-0.04-0.1,0.08-0.16,0.08-0.09
						c0,0.07,0.3,0.42,0.4,0.54c0.1,0.12,0.21,0.93,0.3,1.1c0.1,0.17,1.02,0.53,1.32,0.59c0.3,0.06,0.67,0.4,0.73,0.49
						c0.06,0.1,0.45,0.15,0.54,0.18c0.09,0.04,0.29,0.31,0.37,0.36c0.08,0.06,0.15,0.22,0.15,0.26c0,0.04,0.52,0.24,0.65,0.38
						c0.13,0.14,0.34,0.1,0.38,0.04c0.04-0.06,0.14,0.28,0.2,0.39c0.05,0.12,0.07,0.4,0.02,0.45c-0.04,0.04-0.12,0.57-0.21,0.68
						c-0.09,0.11-0.27,0.87-0.23,1.02c0.04,0.15,0.29,0.46,0.39,0.51c0.1,0.05,0.06,0.21-0.02,0.22c-0.08,0.01-0.04,0.74,0.15,0.85
						C33.45,56.18,33.61,56.5,33.58,56.56z M36.06,43.72L36.06,43.72C36.06,43.72,36.06,43.72,36.06,43.72z M34.62,34.83
						c0.25-0.04,0.67-0.11,0.7-0.18c0.02-0.06,0.02-0.23-0.02-0.29c0.04,0,0.09,0,0.12,0c0.1,0,0.26-0.52,0.36-0.65
						c0.1-0.12,0.68-0.3,0.82-0.39c0.14-0.08,0.44-0.37,0.55-0.41c0.12-0.04,0.28-0.3,0.26-0.36c-0.02-0.05,0.39-0.31,0.55-0.37
						c0.16-0.07,0.24-0.25,0.18-0.26c-0.04-0.01-0.92,0.45-1.73,0.91c-0.92,0.62-1.78,1.32-2.59,2.08
						C34.07,34.9,34.46,34.86,34.62,34.83z M49.87,61.07c0.27-0.16,0.73-0.84,0.88-0.98c0.15-0.14,0.26-0.66,0.29-0.77
						c0.03-0.11,0.26-0.29,0.35-0.32c0.08-0.02,0.36-1.16,0.6-1.41c0.24-0.25,0.52-1.45,0.49-1.88c-0.03-0.43,0.15-1.25,0.21-1.45
						c0.06-0.2,0.36-0.55,0.45-0.62c0.09-0.07,0.67-0.93,0.86-1.24c0.19-0.31,0.36-0.98,0.33-1.14c-0.04-0.16-0.44-0.27-0.51-0.19
						c-0.07,0.08-0.46,0.14-0.58,0.14c-0.12,0-0.4-0.65-0.57-0.78c-0.17-0.13-0.33-0.88-0.43-1.02c-0.1-0.14-0.38-0.5-0.46-0.58
						c-0.09-0.08-0.1-0.48-0.12-0.58c-0.02-0.11,0.17,0.07,0.2,0.23c0.03,0.16,0.48,0.79,0.62,1.01c0.14,0.21,0.5,0.89,0.6,1.11
						c0.09,0.21,0.9,0.11,1.17-0.02c0.26-0.13,0.59-0.34,0.6-0.41c0.01-0.07,0.43-0.27,0.55-0.36c0.12-0.09,0.22-0.58,0.3-0.66
						c0.08-0.08-0.06-0.54-0.15-0.68c-0.09-0.14-0.51-0.25-0.59-0.2c-0.09,0.05-0.27-0.31-0.33-0.45c-0.06-0.13-0.39-0.3-0.42-0.39
						c-0.03-0.09,0.09-0.24,0.14-0.27c0.05-0.03,0.64,0.38,0.81,0.59c0.17,0.21,0.36,0.59,0.4,0.65c0.03,0.06,0.5,0.1,0.6,0.02
						c0.1-0.08,0.22-0.06,0.27,0.04c0,0,0,0,0.15-0.03c0.51-0.08,0.51-0.08,0.51-0.08c0.24,0.26,0.31,0.49,0.31,0.54
						c0,0.05,0.15,0.26,0.25,0.29c0.1,0.02,0.17,0.36,0.2,0.44c0.03,0.08,0.32,0.59,0.38,0.8c0.06,0.21,0.31,0.62,0.37,0.74
						c0.06,0.11,0.11,0.43,0.11,0.52c0,0.09,0.19,0.26,0.3,0.25c0.12-0.01,0.35-0.74,0.41-1.02c0.05-0.27,0.24-0.5,0.3-0.5
						c0.05,0,0.1-0.15,0.1-0.21c0-0.06,0.3-0.05,0.32-0.13c0.03-0.07,0.11-0.56,0.22-0.63c0.11-0.07,0.48-0.32,0.62-0.37
						c0.13-0.05,0.47,0.25,0.54,0.38c0.08,0.13,0.14,0.48,0.11,0.54c-0.03,0.06,0.18,0.36,0.36,0.35c0.18,0,0.24,0.23,0.24,0.31
						c0.01,0.08,0.24,0.33,0.29,0.43c0.05,0.11,0.03,0.4,0,0.47c-0.03,0.07-0.01,0.45,0.02,0.56c0.03,0.11,0.59,0.67,0.79,0.84
						c0.21,0.17,0.31-0.34,0.2-0.51c-0.11-0.16-0.47-0.54-0.55-0.65c-0.09-0.11-0.1-0.56-0.07-0.69c0.03-0.13,0.32,0.07,0.43,0.16
						c0.12,0.09,0.27,0.29,0.28,0.36c0,0.07,0.75-0.35,0.77-0.8c0.03-0.45,0.27-0.96,0.3-1.08c0.02-0.12-0.07-0.28-0.14-0.29
						c-0.06-0.01,0.11-0.34,0.32-0.34c0.21,0.01,0.71-0.55,0.83-0.77c0.12-0.22,0.36-0.4,0.38-0.43c0.03-0.03,0.2-0.55,0.22-0.77
						c0.03-0.22-0.12-0.55-0.14-0.67c-0.02-0.11-0.2-0.37-0.24-0.45c-0.04-0.08-0.09-0.38-0.06-0.44c0.03-0.06,0.21-0.12,0.23-0.17
						c0.02-0.05,0.23-0.28,0.22-0.38c-0.02-0.1,0.13,0.13,0.23,0.21c0.1,0.08,0.2,0.62,0.33,0.68c0.12,0.06,0.61-0.57,0.55-0.98
						c-0.06-0.41,0.14-0.92,0.26-0.97c0.09-0.04,0.32-0.36,0.48-0.6c-1.08-3.13-2.88-5.92-5.19-8.18c-0.03,0-0.05,0-0.08,0
						c-0.18-0.04-0.18-0.04-0.18-0.04c-0.3-0.06-0.48-0.39-0.43-0.46c0.02-0.02,0.01-0.08,0-0.14c-0.17-0.15-0.34-0.3-0.52-0.45
						c-0.14,0-0.29,0-0.38,0c-0.18-0.01-0.57-0.14-0.64-0.21c-0.07-0.07-0.31,0.06-0.32,0.19c-0.02,0.13-0.43,0.19-0.47,0.29
						c-0.04,0.1-0.25,0.11-0.29,0.05c-0.04-0.05-0.42,0.13-0.61,0.16c-0.19,0.03-0.55,0.18-0.63,0.22
						c-0.08,0.04-0.29,0.23-0.32,0.32c-0.03,0.08-0.28,0.22-0.35,0.25c-0.08,0.03-0.06,0.39,0.04,0.44c0.1,0.05-0.19-0.04-0.32-0.11
						c-0.13-0.06-0.27,0.15-0.31,0.23c-0.04,0.07-0.16-0.04-0.15-0.15c0-0.11-0.32-0.19-0.36-0.11c-0.04,0.08-0.26-0.03-0.36-0.08
						c-0.09-0.05-0.49,0.37-0.64,0.51c-0.15,0.15-0.85,0.26-0.98,0.21c-0.13-0.05-0.26,0.31-0.15,0.34c0.11,0.02-0.29-0.02-0.5,0
						c-0.22,0.02-0.85,0.28-1.01,0.39c-0.15,0.11-0.27-0.03-0.27-0.11c0-0.09-0.24-0.17-0.31-0.19c-0.07-0.02-0.21,0.48-0.34,0.57
						c-0.13,0.1-0.28-0.39-0.57-0.47c-0.3-0.08-0.76-0.37-0.89-0.4c-0.13-0.04-0.4-0.31-0.47-0.39c-0.08-0.08-0.45-0.15-0.58-0.15
						c-0.12,0-0.51,0.23-0.62,0.31c-0.11,0.09-0.27,0.07-0.32,0.1c-0.05,0.03-0.5,0.47-0.67,0.6c-0.17,0.14-0.47,0.72-0.57,0.86
						c-0.1,0.14-0.24,0.17-0.3,0.17c-0.06,0-0.1,0.16-0.1,0.22c0,0.06-0.51,0.32-0.56,0.56c-0.05,0.23,0.05,0.76,0.05,0.95
						c0,0.19,0.19,0.56,0.33,0.57c0.14,0.01,0.07,0.32,0.03,0.41c-0.04,0.09,0.09,0.18,0.09,0.26c0,0.07-0.36,0.18-0.47,0.22
						c-0.11,0.04-0.29,0.29-0.31,0.38c-0.02,0.08-0.36,0.14-0.47,0.25c0.03-0.08,0.07-0.18,0.1-0.25c0.06-0.12-0.03-0.34-0.08-0.38
						c-0.05-0.04-0.08-0.66-0.16-0.79c-0.09-0.13-0.3-0.35-0.35-0.4c-0.05-0.04,0.04-0.2,0.07-0.27c0.03-0.07-0.29-0.11-0.37-0.06
						c-0.09,0.05-0.13,0.66-0.17,0.82c-0.04,0.16,0.16,0.42,0.21,0.43c0.05,0.01,0.04,0.31-0.07,0.32
						c-0.11,0.01-0.21,0.45-0.16,0.55c0.06,0.1-0.08,0.29-0.15,0.34c-0.07,0.04,0.43,0.02,0.65,0.01c0.22,0,0.4,0.09,0.38,0.11
						c-0.02,0.02-0.43,0.08-0.5,0.18c-0.07,0.1-0.35,0.28-0.4,0.36c-0.05,0.07,0.09,0.24,0.21,0.23c0.12-0.01,0.25,0.4,0.34,0.48
						c0.09,0.08,0.06,0.29,0.02,0.35c-0.04,0.06-0.59-0.04-0.8,0.01c-0.21,0.05-0.47,0.49-0.49,0.66c-0.02,0.17,0.03,0.65,0.06,0.78
						c0.03,0.13,0.46,0.21,0.55,0.28c0.09,0.06,0.51,0,0.6,0.04c0.08,0.04,0.37-0.42,0.42-0.64c0.05-0.22,0.5-0.61,0.59-0.76
						c0.09-0.15,0.57-0.13,0.69-0.21c0.12-0.08,0.05,0.37,0.11,0.61c0.06,0.24,0.52,0.21,0.45-0.02c-0.07-0.23,0.05-0.33,0.06-0.24
						c0.02,0.08,0.46,0.26,0.54,0.39c0.08,0.13,0.06,0.4-0.04,0.4c-0.1,0-0.1,0.3,0,0.33c0.1,0.03,0.24-0.34,0.35-0.39
						c0.11-0.06,0.2-0.29,0.15-0.3c-0.05-0.02,0.1-0.23,0.16-0.16c0.06,0.07-0.24-0.45-0.42-0.64c-0.19-0.19-0.06-0.1,0.3,0.19
						c0,0,0,0,0.24,0.34c0.05,0.06,0.11,0.25,0.15,0.31c0.06,0.1,0.06,0.1,0.06,0.1c0.05,0.12,0.09,0.44,0.09,0.53
						c0,0.09,0.19,0.26,0.31,0.25c0.12-0.01,0.2,0.05,0.18,0.06c-0.02,0,0.08,0.23,0.19,0.23c0.11,0.01,0.16-0.29,0.05-0.3
						c-0.11-0.01-0.1-0.43-0.11-0.62c-0.01-0.19,0.08-0.34,0.12-0.34c0.04,0-0.01,0.38,0,0.47c0,0.09,0.05,0.26,0.1,0.38
						c0,0,0,0,0.12,0.09c0.27,0.2,0.27,0.2,0.27,0.2c0.38-0.11,0.89-0.03,0.87,0.05c-0.02,0.08,0.28,0.1,0.3-0.03
						c0.02-0.12,0.03,0,0.03,0.09c0,0.09-0.25,0.43-0.29,0.58c-0.04,0.16-0.92,0.05-1.3,0.02c-0.38-0.03-0.94,0.1-0.98,0.21
						c-0.04,0.11-0.63-0.26-0.9-0.37c-0.27-0.12-0.48-0.53-0.54-0.58c-0.06-0.06,0.05-0.19,0.02-0.27c-0.03-0.08-0.65-0.1-0.83-0.03
						c-0.18,0.07-1.11,0.16-1.33,0.26c-0.22,0.1-0.55-0.01-0.65-0.02c-0.1-0.02-0.35,0.29-0.47,0.34c-0.13,0.05-0.28,0.48-0.35,0.96
						c0,0,0,0-0.17,0.33c-0.11,0.21-0.11,0.21-0.11,0.21c-0.31,0.23-0.65,1.01-0.75,1.17c-0.1,0.16-0.18,1.28-0.18,1.65
						c0,0.38,0.33,1.17,0.42,1.4c0.09,0.22,0.66,0.71,0.85,0.82c0.19,0.11,0.81,0.13,1.01,0.13c0.2,0,0.43-0.19,0.51-0.43
						c0,0,0,0,0.3,0.03c0.14,0.01,0.14,0.01,0.14,0.01c0.01,0.17,0.45,0.3,0.55,0.36c0.11,0.06,0.4,0.02,0.48-0.01
						c0.09-0.02,0.18,0.75,0.12,0.97c-0.06,0.22,0.15,1.01,0.22,1.25c0.06,0.24,0.33,0.88,0.36,1.11c0.02,0.23-0.16,1-0.19,1.27
						c-0.03,0.27,0.34,1.03,0.44,1.29c0.09,0.26,0.17,0.82,0.17,0.95c0,0.13,0.4,0.91,0.49,1.23C48.59,61.15,49.6,61.22,49.87,61.07
						z M67.25,51.49c0.03,0.06,0.28-0.14,0.43-0.17c0.15-0.02,0.25-0.43,0.13-0.46c-0.12-0.04-0.27-0.35-0.36-0.38
						c-0.09-0.04-0.25,0.13-0.25,0.26c0.01,0.12-0.28,0.17-0.33,0.28c-0.05,0.1-0.05,0.18,0.01,0.17
						C66.94,51.18,67.22,51.44,67.25,51.49z M66.94,53.71c0.08-0.03-0.01-0.43-0.16-0.46c-0.16-0.03-0.59,0.53-0.51,0.86
						c0.08,0.32,0.18,0.3,0.22,0.24c0.04-0.07,0.31,0.04,0.38,0.07c0.08,0.02,0.08-0.05,0-0.17C66.78,54.11,66.86,53.74,66.94,53.71
						z M66.07,53.32c0.02-0.14,0.05-0.59,0.07-0.68c0.02-0.09-0.25-0.35-0.38-0.39c-0.13-0.05-0.56,0.88-0.86,1.04
						c-0.31,0.17-0.42,0.73-0.34,0.86c0.08,0.13,0.72,0.2,0.83,0.3c0.11,0.1,0.23-0.02,0.3-0.03c0.07-0.02,0.05-0.06,0.02-0.08
						c-0.03-0.02,0.22-0.28,0.26-0.44C66.01,53.71,66.06,53.46,66.07,53.32z M64.34,54.85c-0.24-0.09-0.52,0.05-0.54,0.14
						c-0.02,0.09,0.92,0.24,1.23,0.33c0.31,0.08,0.51,0.11,0.44,0.06C65.4,55.33,64.58,54.94,64.34,54.85z M66.26,48.72
						c0.08-0.1-0.11-0.6-0.2-0.48c-0.09,0.11-0.02,0.4,0,0.5C66.09,48.83,66.18,48.82,66.26,48.72z M66.83,49.78
						c0.05-0.13-0.07-0.27-0.27-0.31c-0.2-0.04-0.17,0.57-0.08,0.65C66.56,50.19,66.77,49.91,66.83,49.78z M67.89,53.58
						c0.24,0.17,0.79,0.09,0.81-0.24C68.45,53.18,67.87,53.21,67.89,53.58z M67.76,46.06c-0.1,0.07-0.16,0.25-0.12,0.32
						c-0.01,0-0.03,0-0.04,0c-0.08,0-0.09,0.32,0,0.38c0.08,0.06,0.29-0.25,0.4-0.32c0.11-0.07,0.32-0.12,0.36-0.09
						c0.03,0.02,0.22-0.03,0.42-0.13c0.04-0.02,0.08-0.07,0.12-0.14c-0.05-0.24-0.1-0.47-0.16-0.7c-0.1,0.08-0.22,0.16-0.27,0.2
						C68.34,45.67,67.89,45.96,67.76,46.06z M62.18,52.53C62.18,52.53,62.18,52.53,62.18,52.53C62.14,52.5,62.14,52.49,62.18,52.53z
						 M63.7,53.94c-0.09-0.2-0.38-0.54-0.65-0.75c0,0,0,0-0.1-0.17c-0.11-0.18-0.11-0.18-0.11-0.18c-0.1-0.2-0.4-0.36-0.43-0.42
						c-0.03-0.06-0.12,0.17-0.22,0.11c0.05,0.04,0.17,0.12,0.32,0.23c0.28,0.2,0.83,1.58,0.95,1.67
						C63.59,54.53,63.79,54.14,63.7,53.94z M59.35,51.72c-0.08,0.16,0.4,0.48,0.44,0.41c0.04-0.08-0.06-0.46-0.15-0.54
						C59.56,51.51,59.43,51.57,59.35,51.72z M52.98,59.06c0.02,0.16,0.35,0.29,0.44,0.27c0.1-0.03,0.37-0.52,0.4-0.66
						c0.04-0.14,0.07-0.45,0.07-0.52c0-0.07,0.04-0.24,0.08-0.26c0.04-0.02,0.1-0.19,0.13-0.37c0.04-0.19-0.2-1.05-0.21-1.2
						c-0.01-0.15-0.18,0.08-0.22,0.23c-0.05,0.15-0.48,0.47-0.57,0.6c-0.09,0.13-0.2,0.57-0.16,0.65c0.04,0.08-0.04,0.38-0.08,0.46
						C52.83,58.33,52.96,58.89,52.98,59.06z M37.44,65.05c0.1,0,0.19,0,0.29,0C37.78,64.74,37.42,64.79,37.44,65.05z M45.16,32.43
						c-0.12,0.02-0.44-0.05-0.49-0.11c-0.05-0.06-0.53-0.11-0.66-0.05c-0.14,0.06-0.04-0.33,0.15-0.37
						c0.19-0.04,0.03-0.31-0.17-0.31c-0.2,0-0.7-0.07-0.82-0.05c-0.12,0.03-0.35-0.08-0.43-0.09c-0.08-0.01-0.68,0.18-0.96,0.16
						c-0.28-0.01-0.98,0.02-1.13,0.06c-0.15,0.04-0.26,0.33-0.24,0.44c0.02,0.11-0.67,0.1-0.89,0.11c-0.22,0-1.38,0.25-1.68,0.42
						c-0.3,0.17-0.54,0.59-0.44,0.6c0.1,0.01-0.17,0.25-0.33,0.31c-0.16,0.06-0.55,0.08-0.64,0.17c-0.09,0.09,0.1,0.15,0.13,0.22
						c0.04,0.06,0.14-0.05,0.25,0.01c0.1,0.06,0.44,0.09,0.53,0.12c0.09,0.04-0.29,0.11-0.46,0.12c-0.18,0.01-0.14,0.36,0.01,0.41
						c0.15,0.05,0.52,0.1,0.56,0.04c0.04-0.06,0.44,0.06,0.63,0.09c0.18,0.02,0.32,0.48,0.38,0.58c0.06,0.1,0.07,0.45,0.05,0.55
						c-0.01,0.1,0.32,0.28,0.38,0.22c0.06-0.06,0.04,0.16-0.09,0.14c-0.13-0.01-0.05,0.38,0.12,0.43c0.16,0.05,0.05,0.29-0.04,0.37
						c-0.1,0.07-0.04,0.3-0.14,0.38c-0.1,0.08,0.35,0.85,0.34,1.25c0,0.39,0.24,0.72,0.34,0.72c0.1,0,0.42,0.08,0.46,0.16
						c0.04,0.08,0.2-0.06,0.26-0.12c0.06-0.06,0.19-0.25,0.29-0.42c0.1-0.17,0.32-0.96,0.35-1.05c0.03-0.09,0.4-0.03,0.49-0.07
						c0.08-0.04,0.33-0.24,0.4-0.29c0.07-0.06,0.6-0.28,0.75-0.39c0.14-0.1,0.39-0.55,0.5-0.65c0.11-0.1-0.06-0.07-0.2-0.16
						c-0.14-0.09-0.08-0.21-0.04-0.25c0.04-0.04,0.47,0.07,0.62,0.13c0.15,0.06,0.43-0.14,0.32-0.22c-0.11-0.08-0.05-0.08,0-0.04
						c0.05,0.03,0.11-0.26,0.05-0.31c-0.06-0.06,0.43-0.41,0.35-0.75c-0.08-0.34,0.13-0.68,0.27-0.69c0.13,0,0.09-0.38-0.06-0.42
						c-0.16-0.03-0.01-0.07,0.05-0.12c0.06-0.05,0.13-0.39,0.1-0.45c-0.04-0.07,0.24-0.14,0.29-0.21c0.05-0.08,0.36-0.23,0.48-0.25
						C45.22,32.72,45.28,32.42,45.16,32.43z M47.91,32.71c-0.15-0.05-0.46,0.12-0.42,0.21c0.04,0.1-0.25-0.12-0.45-0.02
						c-0.2,0.1-0.26,0.46-0.16,0.5c0.09,0.05,0.16,0.33,0.16,0.38c0,0.06,0.39,0.02,0.49-0.07c0.1-0.08,0.08,0.28-0.01,0.38
						c-0.1,0.1,0.04,0.3,0.14,0.31c0.11,0.02,0.25,0.27,0.37,0.27c0.11,0,0.3-0.43,0.34-0.59c0.04-0.16,0.41-0.03,0.58,0.02
						c0.17,0.05,0.23-0.59,0.05-0.68c-0.18-0.09-0.41-0.05-0.49-0.12c-0.08-0.07-0.2-0.14-0.29-0.15
						C48.14,33.14,48.06,32.76,47.91,32.71z M49.38,33.01c0.3,0.04,0.63-0.2,0.7-0.27c0.07-0.07-0.82-0.25-1.17-0.26
						c-0.34-0.01-0.62,0.04-0.61,0.1C48.31,32.65,49.08,32.97,49.38,33.01z M43.95,41.06c-0.08-0.03-0.12,0.26-0.1,0.37
						c0.02,0.11,0.29,0.1,0.41,0.08c0.12-0.02,0.21-0.11,0.2-0.21c-0.01-0.1-0.17-0.54-0.24-0.54
						C44.16,40.77,44.03,41.09,43.95,41.06z M44.84,37.64c-0.06-0.11-0.53-0.1-0.64-0.1c-0.11-0.01-0.46-0.12-0.53-0.2
						c-0.06-0.07-0.12,0.29-0.22,0.34c-0.11,0.05,0.05,0.11,0.1,0.08c0.04-0.04,0,0.19-0.05,0.26c-0.05,0.08,0.31,0.13,0.35,0.25
						c0.04,0.12,0.19,0.19,0.33,0.17c0.14-0.02,0.42-0.17,0.52-0.18C44.79,38.24,44.9,37.74,44.84,37.64z M54.63,34.96
						c0.16-0.16,0.82-0.38,0.9-0.54c0.07-0.16-0.05-0.3-0.11-0.3c-0.07,0-0.15,0.08-0.16,0.11c-0.02,0.03-0.77,0.2-1,0.32
						c-0.23,0.11-0.5,0.29-0.6,0.38c-0.1,0.1-0.26,0.85-0.31,0.93c-0.06,0.08,0.25,0.39,0.39,0.48c0.14,0.08,0.32,0.04,0.38,0.02
						c0.05-0.02-0.07-0.54-0.14-0.72C53.88,35.46,54.47,35.13,54.63,34.96z M53.82,33.01c0.25,0.25,0.39-0.11,0.66-0.07
						C54.48,32.43,53.8,32.61,53.82,33.01z M58.67,33.1c-0.01,0.09,0.69,0.17,0.89,0.13c0.2-0.03-0.04-0.35-0.34-0.33
						C58.92,32.92,58.67,33.01,58.67,33.1z M33.44,38.27c-0.07,0.07-0.01,0.41,0.13,0.42c0.14,0.01,0.36-0.52,0.53-0.41
						c0.17,0.1,0.29,0.15,0.26,0.09c-0.03-0.05-0.52-0.27-0.58-0.31C33.73,38.03,33.52,38.2,33.44,38.27z M35.23,49.84
						c0,0.06,0.3,0.05,0.35-0.04c0.05-0.09,0.02-0.17-0.06-0.17C35.44,49.62,35.23,49.78,35.23,49.84z M33.87,49.34
						c0.15-0.03,0.08,0.21,0.11,0.29c0.04,0.08,0.38,0.15,0.45,0.21c0.07,0.06,0.25-0.11,0.39-0.09c0.14,0.02-0.05-0.48-0.28-0.47
						c-0.23,0.02-0.42-0.21-0.47-0.24c-0.06-0.02-0.33-0.19-0.41-0.25c-0.08-0.06-0.67-0.12-0.87-0.12c-0.2,0-0.43,0.21-0.46,0.27
						c-0.03,0.07,0.32,0.11,0.42,0.06c0.1-0.05,0.57,0.06,0.67,0.17C33.53,49.29,33.73,49.36,33.87,49.34z M33.24,49.84
						c0,0.06,0.31,0.02,0.38,0.02c0.08,0,0.07-0.05,0-0.11C33.54,49.69,33.24,49.78,33.24,49.84z M33.46,48.26
						c-0.08-0.03-0.14,0.09-0.14,0.15c0,0.06,0.04,0.11,0.1,0.11C33.46,48.52,33.54,48.29,33.46,48.26z M34.1,48.31
						c-0.03-0.06-0.16-0.11-0.2-0.11c-0.04,0-0.07,0.1-0.06,0.22C33.85,48.55,34.12,48.36,34.1,48.31z M34.56,49.02
						c0.12-0.06,0.14-0.21,0.07-0.2c-0.07,0.01-0.21-0.21-0.29-0.25c-0.08-0.03-0.14,0.13-0.14,0.21c0,0.07,0.04,0.12,0.1,0.11
						C34.35,48.87,34.44,49.08,34.56,49.02z M68.81,53.83c-0.06,0.03-0.37,0.07-0.41,0.01c-0.04-0.06-0.1,0.12-0.17,0.15
						c-0.07,0.03-0.03,0.19,0.07,0.14c0.07-0.03,0.36,0.13,0.6,0.28c0.05-0.23,0.09-0.47,0.13-0.71
						C68.94,53.75,68.85,53.81,68.81,53.83z"/>
					<defs>
						<filter id="Adobe_OpacityMaskFilter" filterUnits="userSpaceOnUse" x="32.32" y="29.44" width="31.67" height="26.62">
							
								<feColorMatrix  type="matrix" values="-1 0 0 0 1  0 -1 0 0 1  0 0 -1 0 1  0 0 0 1 0" color-interpolation-filters="sRGB" result="source"/>
							<feFlood  style="flood-color:white;flood-opacity:1" result="back"/>
							<feBlend  in="source" in2="back" mode="normal"/>
						</filter>
					</defs>
					<mask maskUnits="userSpaceOnUse" x="32.32" y="29.44" width="31.67" height="26.62" id="SVGID_7_">
						<g class="st15">
							<radialGradient id="SVGID_8_" cx="47.9267" cy="32.657" r="28.0338" gradientUnits="userSpaceOnUse">
								<stop  offset="0" style="stop-color:#010202"/>
								<stop  offset="0.0877" style="stop-color:#15161B"/>
								<stop  offset="0.2784" style="stop-color:#4A484E"/>
								<stop  offset="0.4603" style="stop-color:#807D83"/>
								<stop  offset="0.6283" style="stop-color:#B2B0B4"/>
								<stop  offset="0.7794" style="stop-color:#DBD9DC"/>
								<stop  offset="0.9084" style="stop-color:#F6F5F6"/>
								<stop  offset="1" style="stop-color:#FFFFFF"/>
							</radialGradient>
							<rect x="29.57" y="26.23" class="st16" width="39.02" height="33.05"/>
						</g>
					</mask>
					<path class="st17" d="M63.99,42.75c0,7.35-7.09,13.31-15.84,13.31c-8.75,0-15.84-5.96-15.84-13.31
						c0-7.35,7.09-13.31,15.84-13.31C56.9,29.44,63.99,35.4,63.99,42.75z"/>
				</g>
				<path class="st18" d="M53.58,29.81c-0.35-0.14-0.71-0.25-1.08-0.33c-3.27-0.73-6.75,0.95-9.73,4.24
					c-2.94,3.25-5.42,8.08-6.73,13.72c0,0.01,0,0.02-0.01,0.02c-1.3,5.65-1.2,11.05,0.03,15.23c1.12,3.83,3.19,6.63,5.98,7.68
					c-2.72-1.09-4.73-3.86-5.84-7.62c-1.23-4.18-1.33-9.58-0.03-15.23c0-0.01,0-0.02,0.01-0.02c1.31-5.65,3.78-10.48,6.73-13.73
					c2.99-3.29,6.47-4.97,9.73-4.24C52.97,29.61,53.28,29.7,53.58,29.81z"/>
				<path class="st18" d="M27.8,55.9c0.01,0.37,0.05,0.74,0.12,1.12c0.64,3.27,3.55,5.78,7.75,7.2c4.14,1.39,9.54,1.72,15.22,0.66
					c0.01,0,0.02,0,0.02,0c5.68-1.06,10.57-3.32,13.9-6.1c3.04-2.55,4.78-5.56,4.62-8.53c0.09,2.92-1.64,5.86-4.63,8.37
					c-3.32,2.79-8.22,5.04-13.9,6.1c-0.01,0-0.02,0-0.02,0.01c-5.68,1.06-11.08,0.73-15.22-0.67c-4.2-1.41-7.12-3.92-7.75-7.2
					C27.85,56.54,27.82,56.22,27.8,55.9z"/>
				<path class="st18" d="M35.47,33.49c-0.33,0.17-0.66,0.36-0.97,0.58c-2.72,1.95-3.8,5.65-3.34,10.08
					c0.45,4.36,2.4,9.42,5.73,14.17c0,0,0.01,0.01,0.01,0.02c3.34,4.74,7.43,8.27,11.36,10.14c3.6,1.71,7.07,2.05,9.71,0.67
					c-2.62,1.3-6.03,0.95-9.57-0.74c-3.93-1.87-8.03-5.4-11.36-10.14c0-0.01-0.01-0.01-0.01-0.02c-3.33-4.74-5.28-9.81-5.73-14.17
					c-0.46-4.42,0.62-8.13,3.34-10.08C34.91,33.81,35.18,33.64,35.47,33.49z"/>
				<g class="st19">
					<g>
						<path class="st20" d="M36.88,47.06c-1.3,0-2.35-1.05-2.35-2.35c0-1.3,1.05-2.35,2.35-2.35c1.3,0,2.35,1.05,2.35,2.35
							C39.23,46,38.17,47.06,36.88,47.06z M36.88,42.38c-1.28,0-2.33,1.04-2.33,2.33c0,1.28,1.04,2.33,2.33,2.33
							c1.28,0,2.33-1.04,2.33-2.33C39.2,43.42,38.16,42.38,36.88,42.38z"/>
					</g>
					<g>
						<path class="st20" d="M36.88,48.42c-2.05,0-3.72-1.67-3.72-3.71c0-2.05,1.67-3.71,3.72-3.71c2.05,0,3.71,1.67,3.71,3.71
							C40.59,46.76,38.92,48.42,36.88,48.42z M36.88,41.03c-2.03,0-3.68,1.65-3.68,3.68c0,2.03,1.65,3.68,3.68,3.68
							c2.03,0,3.68-1.65,3.68-3.68C40.56,42.68,38.9,41.03,36.88,41.03z"/>
					</g>
					<g>
						<path class="st20" d="M36.88,45.87c-0.64,0-1.16-0.52-1.16-1.16c0-0.64,0.52-1.16,1.16-1.16c0.64,0,1.16,0.52,1.16,1.16
							C38.04,45.35,37.52,45.87,36.88,45.87z M36.88,43.56c-0.63,0-1.14,0.51-1.14,1.14c0,0.63,0.51,1.14,1.14,1.14
							c0.63,0,1.14-0.51,1.14-1.14C38.02,44.08,37.51,43.56,36.88,43.56z"/>
					</g>
				</g>
				<g class="st19">
					<g>
						<path class="st20" d="M62.35,50.05c-1.18,0-2.14-0.96-2.14-2.14c0-1.18,0.96-2.14,2.14-2.14c1.18,0,2.14,0.96,2.14,2.14
							C64.48,49.09,63.52,50.05,62.35,50.05z M62.35,45.8c-1.17,0-2.12,0.95-2.12,2.12c0,1.17,0.95,2.12,2.12,2.12
							s2.12-0.95,2.12-2.12C64.46,46.75,63.51,45.8,62.35,45.8z"/>
					</g>
					<g>
						<path class="st20" d="M62.35,51.08c-1.74,0-3.16-1.42-3.16-3.16c0-1.74,1.42-3.16,3.16-3.16c1.74,0,3.16,1.42,3.16,3.16
							C65.51,49.66,64.09,51.08,62.35,51.08z M62.35,44.78c-1.73,0-3.13,1.41-3.13,3.13c0,1.73,1.41,3.13,3.13,3.13
							c1.73,0,3.13-1.41,3.13-3.13C65.48,46.19,64.07,44.78,62.35,44.78z"/>
					</g>
					<g>
						<path class="st20" d="M62.35,49.2c-0.71,0-1.28-0.58-1.28-1.28c0-0.71,0.58-1.28,1.28-1.28c0.71,0,1.28,0.58,1.28,1.28
							C63.63,48.62,63.05,49.2,62.35,49.2z M62.35,46.65c-0.7,0-1.26,0.57-1.26,1.26c0,0.7,0.57,1.26,1.26,1.26
							c0.7,0,1.26-0.57,1.26-1.26C63.61,47.22,63.04,46.65,62.35,46.65z"/>
					</g>
				</g>
				<g class="st19">
					<g>
						<path class="st20" d="M59.34,63.53c-0.9,0-1.63-0.73-1.63-1.63c0-0.9,0.73-1.63,1.63-1.63c0.9,0,1.63,0.73,1.63,1.63
							C60.97,62.8,60.24,63.53,59.34,63.53z M59.34,60.28c-0.89,0-1.62,0.73-1.62,1.62c0,0.89,0.73,1.62,1.62,1.62
							c0.89,0,1.62-0.73,1.62-1.62C60.96,61.01,60.23,60.28,59.34,60.28z"/>
					</g>
					<g>
						<path class="st20" d="M59.34,62.88c-0.54,0-0.98-0.44-0.98-0.98c0-0.54,0.44-0.98,0.98-0.98c0.54,0,0.98,0.44,0.98,0.98
							C60.32,62.44,59.88,62.88,59.34,62.88z M59.34,60.94c-0.53,0-0.96,0.43-0.96,0.96c0,0.53,0.43,0.96,0.96,0.96
							c0.53,0,0.96-0.43,0.96-0.96C60.3,61.37,59.87,60.94,59.34,60.94z"/>
					</g>
				</g>
				<g class="st19">
					<g>
						<path class="st20" d="M43.65,67.79c-1.26,0-2.29-1.03-2.29-2.29c0-1.26,1.03-2.29,2.29-2.29c1.26,0,2.29,1.03,2.29,2.29
							C45.94,66.76,44.91,67.79,43.65,67.79z M43.65,63.24c-1.25,0-2.27,1.02-2.27,2.27c0,1.25,1.02,2.27,2.27,2.27
							c1.25,0,2.27-1.02,2.27-2.27C45.92,64.25,44.9,63.24,43.65,63.24z"/>
					</g>
					<g>
						<path class="st20" d="M43.65,66.87c-0.76,0-1.37-0.62-1.37-1.37c0-0.76,0.62-1.37,1.37-1.37c0.76,0,1.37,0.62,1.37,1.37
							C45.02,66.26,44.41,66.87,43.65,66.87z M43.65,64.15c-0.75,0-1.35,0.61-1.35,1.35c0,0.74,0.61,1.35,1.35,1.35
							c0.74,0,1.35-0.61,1.35-1.35C45,64.76,44.39,64.15,43.65,64.15z"/>
					</g>
				</g>
				<path class="st18" d="M60.58,33.95c-1.6-4.59-4.07-7.28-6.95-7.58c-2.11-0.22-4.2,0.61-6.21,2.85c0.08,0,0.16-0.01,0.24-0.01
					c1.93-2.11,3.93-2.88,5.94-2.67c2.81,0.29,5.22,2.95,6.8,7.47c1.62,4.63,2.14,10.62,1.48,16.88c-0.66,6.26-2.43,12.01-4.98,16.2
					c-2.49,4.09-5.41,6.19-8.22,5.9c-1.3-0.14-2.54-0.8-3.64-1.92c-0.11-0.02-0.2-0.03-0.28-0.04c1.17,1.26,2.49,1.99,3.9,2.14
					c0.18,0.02,0.36,0.03,0.54,0.03c2.71,0,5.47-2.11,7.84-6.01c2.56-4.21,4.34-9.99,5-16.27C62.73,44.61,62.2,38.6,60.58,33.95z"/>
				<path class="st18" d="M65.05,30.52c-2.19-2.19-6.1-2.42-11.01-0.64c-0.07,0.03-0.14,0.05-0.21,0.08c0.1,0.03,0.2,0.06,0.3,0.09
					c4.83-1.74,8.66-1.52,10.79,0.61c2.13,2.13,2.35,5.98,0.6,10.82c-1.79,4.96-5.41,10.32-10.19,15.1
					c-4.78,4.78-10.15,8.4-15.1,10.19c-4.84,1.75-8.68,1.54-10.82-0.6c-1.87-1.87-2.27-5.14-1.11-9.22
					c-0.02-0.08-0.07-0.22-0.1-0.32c-1.26,4.27-0.88,7.7,1.08,9.67c1.21,1.21,2.96,1.83,5.11,1.83c1.73,0,3.71-0.39,5.9-1.18
					c4.98-1.8,10.37-5.43,15.17-10.24l0.01-0.01c4.8-4.8,8.43-10.19,10.23-15.17C67.47,36.61,67.24,32.7,65.05,30.52z"/>
				<path class="st18" d="M63.74,48.51c-4.15-2.35-9.8-3.89-15.9-4.35l-0.01,0c-6.1-0.46-11.9,0.22-16.36,1.92
					c-4.4,1.67-6.93,4.12-7.14,6.91c-0.2,2.67,1.77,5.37,5.58,7.64l-0.16-0.3c-3.58-2.19-5.44-4.78-5.25-7.33
					c0.2-2.71,2.7-5.11,7.04-6.76c4.43-1.69,10.22-2.36,16.3-1.91l0.01,0c6.07,0.46,11.69,2,15.81,4.33
					c4.04,2.28,6.15,5.03,5.94,7.74c-0.14,1.86-1.32,3.59-3.53,5.04c-0.06,0.09-0.15,0.22-0.23,0.34c0.58-0.36,1.05-0.74,1.51-1.13
					c1.48-1.27,2.31-2.71,2.42-4.24C69.98,53.63,67.84,50.82,63.74,48.51z"/>
			</g>
			<g>
				
					<radialGradient id="SVGID_9_" cx="-20.6539" cy="-511.1946" r="1.5033" gradientTransform="matrix(-0.1488 0.9889 -0.9889 -0.1488 -464.9449 9.9588)" gradientUnits="userSpaceOnUse">
					<stop  offset="0" style="stop-color:#FFFFFF;stop-opacity:0.87"/>
					<stop  offset="1" style="stop-color:#010202;stop-opacity:0"/>
				</radialGradient>
				<path class="st21" d="M43.42,67.09c-0.82-0.12-1.39-0.89-1.26-1.71c0.12-0.82,0.89-1.39,1.71-1.26
					c0.82,0.12,1.39,0.89,1.26,1.71C45.01,66.64,44.25,67.21,43.42,67.09z"/>
				
					<radialGradient id="SVGID_10_" cx="-24.7313" cy="-494.489" r="1.503" gradientTransform="matrix(-0.1488 0.9889 -0.9889 -0.1488 -464.9449 9.9588)" gradientUnits="userSpaceOnUse">
					<stop  offset="0" style="stop-color:#FFFFFF;stop-opacity:0.87"/>
					<stop  offset="1" style="stop-color:#010202;stop-opacity:0"/>
				</radialGradient>
				<path class="st22" d="M27.51,60.57c-0.82-0.12-1.39-0.89-1.26-1.71c0.12-0.82,0.89-1.39,1.71-1.26
					c0.82,0.12,1.39,0.89,1.26,1.71C29.1,60.13,28.33,60.69,27.51,60.57z"/>
				
					<radialGradient id="SVGID_11_" cx="-40.924" cy="-527.0518" r="1.5032" gradientTransform="matrix(-0.1488 0.9889 -0.9889 -0.1488 -464.9449 9.9588)" gradientUnits="userSpaceOnUse">
					<stop  offset="0" style="stop-color:#FFFFFF;stop-opacity:0.87"/>
					<stop  offset="1" style="stop-color:#010202;stop-opacity:0"/>
				</radialGradient>
				<path class="st23" d="M62.12,49.4c-0.82-0.12-1.39-0.89-1.26-1.71c0.12-0.82,0.89-1.39,1.71-1.26c0.82,0.12,1.39,0.89,1.26,1.71
					C63.71,48.96,62.94,49.52,62.12,49.4z"/>
				<radialGradient id="SVGID_12_" cx="57.8361" cy="28.9444" r="1.2684" gradientUnits="userSpaceOnUse">
					<stop  offset="0" style="stop-color:#FFFFFF;stop-opacity:0.87"/>
					<stop  offset="1" style="stop-color:#010202;stop-opacity:0"/>
				</radialGradient>
				<path class="st24" d="M57.61,30.47c-0.82-0.12-1.39-0.89-1.26-1.71c0.12-0.82,0.89-1.39,1.71-1.26
					c0.82,0.12,1.39,0.89,1.26,1.71C59.2,30.03,58.43,30.6,57.61,30.47z"/>
				
					<radialGradient id="SVGID_13_" cx="-40.2923" cy="-501.2986" r="1.5036" gradientTransform="matrix(-0.1488 0.9889 -0.9889 -0.1488 -464.9449 9.9588)" gradientUnits="userSpaceOnUse">
					<stop  offset="0" style="stop-color:#FFFFFF;stop-opacity:0.87"/>
					<stop  offset="1" style="stop-color:#010202;stop-opacity:0"/>
				</radialGradient>
				<path class="st25" d="M36.56,46.19c-0.82-0.12-1.39-0.89-1.26-1.71c0.12-0.82,0.89-1.39,1.71-1.26
					c0.82,0.12,1.39,0.89,1.26,1.71C38.15,45.75,37.38,46.32,36.56,46.19z"/>
				
					<radialGradient id="SVGID_14_" cx="-36.6393" cy="-534.3807" r="1.5032" gradientTransform="matrix(-0.1488 0.9889 -0.9889 -0.1488 -464.9449 9.9588)" gradientUnits="userSpaceOnUse">
					<stop  offset="0" style="stop-color:#FFFFFF;stop-opacity:0.87"/>
					<stop  offset="1" style="stop-color:#010202;stop-opacity:0"/>
				</radialGradient>
				<path class="st26" d="M68.73,54.73c-0.82-0.12-1.39-0.89-1.26-1.71c0.12-0.82,0.89-1.38,1.71-1.26
					c0.82,0.12,1.39,0.89,1.26,1.71C70.32,54.29,69.55,54.85,68.73,54.73z"/>
				
					<radialGradient id="SVGID_15_" cx="-53.0526" cy="-505.9543" r="0.9678" gradientTransform="matrix(-0.1488 0.9889 -0.9889 -0.1488 -464.9449 9.9588)" gradientUnits="userSpaceOnUse">
					<stop  offset="0" style="stop-color:#FFFFFF;stop-opacity:0.87"/>
					<stop  offset="1" style="stop-color:#010202;stop-opacity:0"/>
				</radialGradient>
				<path class="st27" d="M43.14,33.74c-0.53-0.08-0.89-0.57-0.81-1.1c0.08-0.53,0.57-0.89,1.1-0.81c0.53,0.08,0.89,0.57,0.81,1.1
					C44.16,33.45,43.67,33.82,43.14,33.74z"/>
				
					<radialGradient id="SVGID_16_" cx="-38.027" cy="-496.35" r="0.9678" gradientTransform="matrix(-0.1488 0.9889 -0.9889 -0.1488 -464.9449 9.9588)" gradientUnits="userSpaceOnUse">
					<stop  offset="0" style="stop-color:#FFFFFF;stop-opacity:0.87"/>
					<stop  offset="1" style="stop-color:#010202;stop-opacity:0"/>
				</radialGradient>
				<path class="st28" d="M31.41,47.17c-0.53-0.08-0.89-0.57-0.81-1.1c0.08-0.53,0.57-0.89,1.1-0.81c0.53,0.08,0.89,0.57,0.81,1.1
					C32.43,46.88,31.94,47.25,31.41,47.17z"/>
				
					<radialGradient id="SVGID_17_" cx="-17.9109" cy="-505.9926" r="0.968" gradientTransform="matrix(-0.1488 0.9889 -0.9889 -0.1488 -464.9449 9.9588)" gradientUnits="userSpaceOnUse">
					<stop  offset="0" style="stop-color:#FFFFFF;stop-opacity:0.87"/>
					<stop  offset="1" style="stop-color:#010202;stop-opacity:0"/>
				</radialGradient>
				<path class="st29" d="M37.95,68.5c-0.53-0.08-0.89-0.57-0.81-1.1c0.08-0.53,0.57-0.89,1.1-0.81c0.53,0.08,0.89,0.57,0.81,1.1
					C38.97,68.21,38.48,68.57,37.95,68.5z"/>
				
					<radialGradient id="SVGID_18_" cx="-26.5736" cy="-526.3219" r="1.5032" gradientTransform="matrix(-0.1488 0.9889 -0.9889 -0.1488 -464.9449 9.9588)" gradientUnits="userSpaceOnUse">
					<stop  offset="0" style="stop-color:#FFFFFF;stop-opacity:0.87"/>
					<stop  offset="1" style="stop-color:#010202;stop-opacity:0"/>
				</radialGradient>
				<path class="st30" d="M59.26,63.48c-0.82-0.12-1.39-0.89-1.26-1.71c0.12-0.82,0.89-1.39,1.71-1.26
					c0.82,0.12,1.39,0.89,1.26,1.71C60.85,63.04,60.09,63.61,59.26,63.48z"/>
			</g>
		</g>
	</g>
	<g>
		<path class="st31" d="M113.48,35.13V21.74h8.36v1.67h-6.7v4.02h5.02v1.68h-5.02v4.34h6.7v1.68H113.48z"/>
		<path class="st31" d="M135.57,29.11c0,1.65-0.59,3.06-1.77,4.25c-1.18,1.18-2.6,1.77-4.25,1.77h-4.51V23.08h4.51
			c1.65,0,3.07,0.59,4.25,1.77C134.98,26.03,135.57,27.45,135.57,29.11z M134.06,29.11c0-1.24-0.44-2.3-1.33-3.19
			c-0.88-0.89-1.94-1.33-3.19-1.33h-3.01v9.03h3.01c1.24,0,2.3-0.44,3.19-1.32C133.62,31.4,134.06,30.34,134.06,29.11z"/>
		<path class="st31" d="M137.83,35.13V23.08h1.5v12.05H137.83z"/>
		<path class="st31" d="M146.48,24.59v10.54h-1.5V24.59h-3.76v-1.51h9.03v1.51H146.48z"/>
		<path class="st31" d="M163.73,29.11c0,1.68-0.61,3.13-1.82,4.34c-1.22,1.21-2.67,1.81-4.34,1.81c-1.68,0-3.13-0.6-4.35-1.81
			c-1.22-1.22-1.82-2.66-1.82-4.34c0-1.69,0.61-3.14,1.82-4.35c1.21-1.22,2.67-1.82,4.35-1.82c1.68,0,3.13,0.61,4.34,1.82
			S163.73,27.42,163.73,29.11z M162.23,29.11c0-1.27-0.46-2.37-1.38-3.29c-0.92-0.92-2.02-1.38-3.28-1.38
			c-1.27,0-2.37,0.46-3.29,1.38c-0.92,0.92-1.38,2.02-1.38,3.29c0,1.27,0.46,2.36,1.38,3.28c0.92,0.92,2.02,1.38,3.29,1.38
			c1.27,0,2.36-0.46,3.28-1.38C161.77,31.47,162.23,30.37,162.23,29.11z"/>
		<path class="st31" d="M174.04,35.13l-3.03-5.27h-3.52v5.27h-1.5V23.08h6.39c0.92,0,1.72,0.34,2.38,1.01
			c0.67,0.67,1.01,1.46,1.01,2.39c0,0.86-0.3,1.61-0.89,2.25c-0.59,0.65-1.31,1.02-2.17,1.11l3.06,5.28H174.04z M174.27,26.48
			c0-0.52-0.19-0.96-0.56-1.33c-0.37-0.37-0.81-0.56-1.32-0.56h-4.89v3.76h4.89c0.5,0,0.94-0.18,1.32-0.55
			C174.08,27.43,174.27,26.99,174.27,26.48z"/>
		<path class="st31" d="M178.04,35.13V23.08h1.5v12.05H178.04z"/>
		<path class="st31" d="M190.29,35.13l-0.83-2.25h-5.98l-0.83,2.25h-1.59l4.38-12.05h2.08l4.38,12.05H190.29z M186.47,24.66
			l-2.46,6.71h4.9L186.47,24.66z"/>
		<path class="st31" d="M193.4,35.13V23.08h1.5v10.54h6.03v1.51H193.4z"/>
		<path class="st8" d="M141.98,51.55c-1.19-1.81-2.78-3.27-4.75-4.36c-1.94-1.08-4-1.62-6.18-1.62c-3.55,0-6.59,1.28-9.14,3.85
			c-2.55,2.55-3.82,5.59-3.82,9.12c0,3.55,1.27,6.59,3.82,9.14c2.55,2.55,5.6,3.82,9.14,3.82c2.14,0,4.18-0.53,6.13-1.59
			c1.98-1.08,3.56-2.52,4.75-4.34l3.5,2.3c-1.6,2.4-3.68,4.3-6.23,5.69c-2.57,1.39-5.29,2.08-8.16,2.08
			c-4.71,0-8.74-1.67-12.11-5.02c-3.37-3.37-5.05-7.39-5.05-12.08c0-4.67,1.68-8.69,5.05-12.06c3.38-3.38,7.42-5.07,12.11-5.07
			c2.88,0,5.6,0.71,8.19,2.13c2.58,1.42,4.67,3.34,6.25,5.76L141.98,51.55z"/>
		<path class="st8" d="M170.66,75.28l-2.08-5.64h-14.95l-2.08,5.64h-3.97l10.96-30.12h5.2l10.96,30.12H170.66z M161.12,49.1
			l-6.15,16.77h12.25L161.12,49.1z"/>
		<path class="st8" d="M198.57,75.28L191,62.09h-8.8v13.19h-3.75V45.16h15.98c2.3,0,4.29,0.84,5.96,2.52
			c1.68,1.67,2.52,3.66,2.52,5.98c0,2.16-0.74,4.04-2.23,5.64c-1.47,1.62-3.28,2.54-5.42,2.77l7.65,13.21H198.57z M199.14,53.66
			c0-1.29-0.47-2.4-1.4-3.33c-0.93-0.93-2.04-1.4-3.31-1.4H182.2v9.41h12.23c1.26,0,2.36-0.46,3.31-1.37
			C198.67,56.04,199.14,54.94,199.14,53.66z"/>
		<path class="st8" d="M234.92,60.23c0,4.12-1.48,7.66-4.44,10.61c-2.96,2.96-6.5,4.44-10.64,4.44h-11.27V45.16h11.27
			c4.13,0,7.68,1.48,10.64,4.44C233.44,52.55,234.92,56.1,234.92,60.23z M231.15,60.23c0-3.1-1.11-5.76-3.33-7.97
			c-2.21-2.22-4.86-3.33-7.97-3.33h-7.52v22.57h7.52c3.1,0,5.76-1.1,7.97-3.31C230.04,65.97,231.15,63.32,231.15,60.23z"/>
		<path class="st8" d="M240.58,75.28V45.16h3.75v30.12H240.58z"/>
		<path class="st8" d="M270.71,75.28l-15.07-23.16v23.16h-3.75V45.16h3.75l15.07,23.19V45.16h3.75v30.12H270.71z"/>
		<path class="st8" d="M301.32,75.28l-2.08-5.64h-14.95l-2.08,5.64h-3.97l10.96-30.12h5.2l10.96,30.12H301.32z M291.79,49.1
			l-6.15,16.77h12.25L291.79,49.1z"/>
		<path class="st8" d="M309.12,75.28V45.16h3.75v26.35h15.07v3.77H309.12z"/>
	</g>
	<g>
		<path class="st8" d="M280.02,86.72V79.2h0.94v6.58h3.76v0.94H280.02z"/>
		<path class="st8" d="M290.36,86.72l-3.76-5.79v5.79h-0.94V79.2h0.94l3.76,5.79V79.2h0.94v7.52H290.36z"/>
		<path class="st8" d="M299.02,81.38c-0.27-0.41-0.62-0.73-1.07-0.97c-0.43-0.25-0.9-0.37-1.39-0.37c-0.8,0-1.48,0.29-2.05,0.86
			c-0.57,0.57-0.86,1.26-0.86,2.05c0,0.8,0.29,1.48,0.86,2.05c0.57,0.57,1.26,0.86,2.05,0.86c0.92,0,1.69-0.37,2.29-1.12v-1.32
			h-2.29v-0.94h3.23v4.23h-0.94v-0.85c-0.54,0.62-1.3,0.94-2.29,0.94c-1.06,0-1.96-0.38-2.72-1.13c-0.76-0.76-1.13-1.66-1.13-2.72
			c0-1.05,0.38-1.95,1.13-2.71c0.76-0.76,1.67-1.14,2.72-1.14c0.65,0,1.26,0.16,1.84,0.48c0.58,0.32,1.05,0.75,1.4,1.29
			L299.02,81.38z"/>
		<path class="st8" d="M309.14,84.71c0,0.58-0.21,1.07-0.63,1.48c-0.42,0.41-0.92,0.61-1.5,0.61c-0.5,0-0.94-0.16-1.32-0.47
			c-0.38-0.31-0.62-0.72-0.72-1.22l0.91-0.24c0.04,0.28,0.17,0.52,0.38,0.72c0.21,0.19,0.46,0.29,0.75,0.29
			c0.32,0,0.59-0.11,0.83-0.34c0.24-0.22,0.35-0.5,0.35-0.82c0-0.48-0.28-0.86-0.84-1.12c-0.26-0.12-0.51-0.23-0.77-0.35
			c-0.26-0.12-0.52-0.23-0.78-0.35c-0.56-0.37-0.84-0.93-0.84-1.69c0-0.58,0.21-1.08,0.63-1.48c0.42-0.41,0.92-0.61,1.5-0.61
			c0.5,0,0.94,0.16,1.32,0.48c0.38,0.32,0.62,0.73,0.71,1.22l-0.93,0.24c-0.04-0.29-0.16-0.53-0.36-0.72
			c-0.2-0.19-0.45-0.29-0.74-0.29c-0.32,0-0.59,0.11-0.83,0.34c-0.24,0.22-0.35,0.5-0.35,0.82c0,0.49,0.28,0.87,0.84,1.14l1.54,0.69
			C308.86,83.41,309.14,83.96,309.14,84.71z"/>
		<path class="st8" d="M311.02,86.72v-0.94h0.94v0.94H311.02z"/>
		<path class="st8" d="M318.66,86.72l-0.52-1.41h-3.73l-0.52,1.41h-1l2.74-7.52h1.29l2.74,7.52H318.66z M316.28,80.17l-1.53,4.19
			h3.06L316.28,80.17z"/>
		<path class="st8" d="M320.61,86.72v-0.94h0.94v0.94H320.61z"/>
		<path class="st8" d="M327.6,84.71c0,0.58-0.21,1.07-0.63,1.48c-0.42,0.41-0.92,0.61-1.5,0.61c-0.5,0-0.94-0.16-1.32-0.47
			c-0.38-0.31-0.62-0.72-0.72-1.22l0.91-0.24c0.04,0.28,0.17,0.52,0.38,0.72c0.21,0.19,0.46,0.29,0.75,0.29
			c0.32,0,0.59-0.11,0.83-0.34c0.24-0.22,0.35-0.5,0.35-0.82c0-0.48-0.28-0.86-0.84-1.12c-0.26-0.12-0.51-0.23-0.77-0.35
			c-0.26-0.12-0.52-0.23-0.78-0.35c-0.56-0.37-0.84-0.93-0.84-1.69c0-0.58,0.21-1.08,0.63-1.48c0.42-0.41,0.92-0.61,1.5-0.61
			c0.5,0,0.94,0.16,1.32,0.48c0.38,0.32,0.62,0.73,0.71,1.22l-0.93,0.24c-0.04-0.29-0.16-0.53-0.36-0.72
			c-0.2-0.19-0.45-0.29-0.74-0.29c-0.32,0-0.59,0.11-0.83,0.34c-0.24,0.22-0.35,0.5-0.35,0.82c0,0.49,0.28,0.87,0.84,1.14l1.54,0.69
			C327.32,83.41,327.6,83.96,327.6,84.71z"/>
	</g>
	<line class="st32" x1="116.79" y1="83.75" x2="277.15" y2="83.75"/>
</g>
<g>
</g>
<g>
</g>
<g>
</g>
<g>
</g>
<g>
</g>
<g>
</g>
</svg>
